<svg width="27" height="12" viewBox="0 0 27 12" fill="none" xmlns="http://www.w3.org/2000/svg">
<path d="M7.84455 5.43692L5.87113 7.41033L5.87074 7.41073C5.72319 7.5574 5.52359 7.63973 5.31555 7.63973C5.1075 7.63973 4.90791 7.5574 4.76036 7.41073L4.75997 7.41033L1.03997 3.69033C0.891821 3.54219 0.808594 3.34126 0.808594 3.13175C0.808594 2.92224 0.891821 2.72131 1.03997 2.57317C1.18811 2.42502 1.38904 2.3418 1.59855 2.3418C1.80806 2.3418 2.00899 2.42502 2.15713 2.57317L5.31855 5.73459L7.29197 3.76117L7.29236 3.76077C7.43991 3.6141 7.6395 3.53178 7.84755 3.53178C8.05559 3.53178 8.25519 3.6141 8.40274 3.76078L8.40313 3.76117L11.611 6.96909V5.86775C11.611 5.65889 11.694 5.45859 11.8417 5.3109C11.9894 5.16322 12.1897 5.08025 12.3985 5.08025C12.5026 5.08025 12.6057 5.10087 12.7017 5.14094C12.7978 5.18101 12.885 5.23972 12.9582 5.31368C13.0314 5.38764 13.0893 5.47539 13.1284 5.57184C13.1674 5.66798 13.187 5.77088 13.186 5.87461M7.84455 5.43692L10.4939 8.08625M7.84455 5.43692L10.4939 8.08625M7.84455 5.43692L10.4939 8.08625M13.186 5.87461C13.186 5.87495 13.186 5.87529 13.186 5.87563L12.9986 5.87375H13.186V5.87461ZM13.186 5.87461V8.87375C13.186 9.08261 13.1031 9.28291 12.9554 9.4306C12.8077 9.57828 12.6074 9.66125 12.3985 9.66125H9.39855C9.18969 9.66125 8.98939 9.57828 8.8417 9.4306C8.69402 9.28291 8.61105 9.08261 8.61105 8.87375C8.61105 8.66489 8.69402 8.46459 8.8417 8.3169C8.98939 8.16922 9.18969 8.08625 9.39855 8.08625H10.4939" fill="#E32D4F" stroke="#E32D4F" stroke-width="0.375"/>
<path d="M19.8833 10L18.8663 8.461L18.3983 7.813L16.5083 5.221H18.2453L19.2353 6.697L19.7303 7.39L21.6023 10H19.8833ZM16.4633 10L18.3893 7.327L19.1633 8.254L18.1733 10H16.4633ZM19.6403 7.921L18.8663 6.994L19.8113 5.221H21.5123L19.6403 7.921ZM22.3171 10L22.0111 9.244L23.8201 7.246C23.9281 7.132 24.0421 7.003 24.1621 6.859C24.2821 6.715 24.3961 6.568 24.5041 6.418C24.6181 6.262 24.7081 6.112 24.7741 5.968C24.8461 5.824 24.8821 5.695 24.8821 5.581C24.8821 5.461 24.8551 5.356 24.8011 5.266C24.7531 5.176 24.6781 5.107 24.5761 5.059C24.4801 5.005 24.3541 4.978 24.1981 4.978C24.0661 4.978 23.9371 5.014 23.8111 5.086C23.6851 5.158 23.5651 5.266 23.4511 5.41C23.3431 5.548 23.2411 5.725 23.1451 5.941L22.0111 5.311C22.1371 4.963 22.3141 4.657 22.5421 4.393C22.7761 4.129 23.0491 3.922 23.3611 3.772C23.6731 3.622 24.0061 3.55 24.3601 3.556C24.7321 3.556 25.0651 3.634 25.3591 3.79C25.6591 3.946 25.8961 4.162 26.0701 4.438C26.2501 4.708 26.3401 5.026 26.3401 5.392C26.3401 5.554 26.3161 5.722 26.2681 5.896C26.2261 6.07 26.1541 6.256 26.0521 6.454C25.9561 6.646 25.8271 6.853 25.6651 7.075C25.5031 7.297 25.3051 7.537 25.0711 7.795L23.6761 9.316L23.4871 8.641H26.6191V10H22.3171Z" fill="#E32D4F"/>
</svg>
