<svg width="26" height="14" viewBox="0 0 26 14" fill="none" xmlns="http://www.w3.org/2000/svg">
<path d="M18.8833 10L17.8663 8.461L17.3983 7.813L15.5083 5.221H17.2453L18.2353 6.697L18.7303 7.39L20.6023 10H18.8833ZM15.4633 10L17.3893 7.327L18.1633 8.254L17.1733 10H15.4633ZM18.6403 7.921L17.8663 6.994L18.8113 5.221H20.5123L18.6403 7.921ZM21.3171 10L21.0111 9.244L22.8201 7.246C22.9281 7.132 23.0421 7.003 23.1621 6.859C23.2821 6.715 23.3961 6.568 23.5041 6.418C23.6181 6.262 23.7081 6.112 23.7741 5.968C23.8461 5.824 23.8821 5.695 23.8821 5.581C23.8821 5.461 23.8551 5.356 23.8011 5.266C23.7531 5.176 23.6781 5.107 23.5761 5.059C23.4801 5.005 23.3541 4.978 23.1981 4.978C23.0661 4.978 22.9371 5.014 22.8111 5.086C22.6851 5.158 22.5651 5.266 22.4511 5.41C22.3431 5.548 22.2411 5.725 22.1451 5.941L21.0111 5.311C21.1371 4.963 21.3141 4.657 21.5421 4.393C21.7761 4.129 22.0491 3.922 22.3611 3.772C22.6731 3.622 23.0061 3.55 23.3601 3.556C23.7321 3.556 24.0651 3.634 24.3591 3.79C24.6591 3.946 24.8961 4.162 25.0701 4.438C25.2501 4.708 25.3401 5.026 25.3401 5.392C25.3401 5.554 25.3161 5.722 25.2681 5.896C25.2261 6.07 25.1541 6.256 25.0521 6.454C24.9561 6.646 24.8271 6.853 24.6651 7.075C24.5031 7.297 24.3051 7.537 24.0711 7.795L22.6761 9.316L22.4871 8.641H25.6191V10H21.3171Z" fill="#FF9E44"/>
<path fill-rule="evenodd" clip-rule="evenodd" d="M4.78863 7.31625L6.666 9.13128C6.85222 9.31025 7.10413 9.4107 7.36671 9.4107C7.62929 9.4107 7.88121 9.31025 8.06743 9.13127L8.06824 9.1305L9.54018 7.70743L11.0121 6.28437V6.92367C11.0121 7.17852 11.1168 7.42294 11.3032 7.60314C11.4896 7.78335 11.7424 7.88458 12.006 7.88459M4.78863 7.31625L1.70101 10.3013C1.51414 10.482 1.2607 10.5835 0.996427 10.5835C0.732158 10.5835 0.478713 10.482 0.291847 10.3013C0.10498 10.1207 0 9.87565 0 9.62016C0 9.36466 0.10498 9.11963 0.291847 8.93897L4.08405 5.2727L4.08485 5.27192C4.27108 5.09295 4.52299 4.99249 4.78557 4.99249C5.04815 4.99249 5.30006 5.09295 5.48629 5.27192L7.36366 7.08695L9.60296 4.922H8.94782C8.68421 4.922 8.4314 4.82076 8.24501 4.64055C8.05861 4.46035 7.95389 4.21593 7.95389 3.96108C7.95389 3.70623 8.05861 3.46182 8.24501 3.28161C8.4314 3.1014 8.68421 3.00016 8.94782 3.00016H12.006C12.2697 3.00016 12.5225 3.1014 12.7089 3.28161C12.8953 3.46182 13 3.70623 13 3.96108V6.91617C13.001 7.04245 12.9763 7.1677 12.9272 7.28474C12.8778 7.40244 12.8048 7.50951 12.7124 7.59975C12.6199 7.69 12.5099 7.76165 12.3887 7.81054C12.2675 7.85942 12.1374 7.88459 12.006 7.88459" fill="#FF9E44"/>
</svg>
