<svg width="14" height="13" viewBox="0 0 14 13" fill="none" xmlns="http://www.w3.org/2000/svg">
<path d="M11.611 7.46909V6.36775C11.611 6.15889 11.694 5.95859 11.8417 5.8109C11.9894 5.66322 12.1897 5.58025 12.3985 5.58025C12.5026 5.58025 12.6057 5.60087 12.7017 5.64094C12.7978 5.68101 12.885 5.73972 12.9582 5.81368L12.8249 5.9456L12.9582 5.81368C13.0314 5.88764 13.0893 5.97539 13.1284 6.07184C13.1674 6.16798 13.187 6.27088 13.186 6.37461M11.611 7.46909L12.9985 9.37375C12.9985 9.53288 12.9353 9.68549 12.8228 9.79801C12.7103 9.91054 12.5577 9.97375 12.3985 9.97375H9.39855C9.23942 9.97375 9.08681 9.91054 8.97428 9.79801C8.86176 9.68549 8.79855 9.53288 8.79855 9.37375C8.79855 9.21462 8.86176 9.06201 8.97428 8.94949C9.08681 8.83697 9.23942 8.77375 9.39855 8.77375H10.6814L10.4939 8.58625M11.611 7.46909L8.40313 4.26117L8.40274 4.26078C8.25519 4.1141 8.05559 4.03178 7.84755 4.03178C7.6395 4.03178 7.43991 4.1141 7.29236 4.26077L7.29197 4.26117L5.31855 6.23459L2.15713 3.07317C2.00899 2.92502 1.80806 2.8418 1.59855 2.8418C1.38904 2.8418 1.18811 2.92502 1.03997 3.07317C0.891821 3.22131 0.808594 3.42224 0.808594 3.63175C0.808594 3.84126 0.891821 4.04219 1.03997 4.19033L4.75997 7.91033L4.76036 7.91073C4.90791 8.0574 5.1075 8.13973 5.31555 8.13973C5.5236 8.13973 5.72319 8.0574 5.87074 7.91073L5.87113 7.91033L7.84455 5.93692M11.611 7.46909L7.84455 5.93692M13.186 6.37461C13.186 6.37495 13.186 6.37529 13.186 6.37563L12.9985 6.37375H13.186V6.37461ZM13.186 6.37461V9.37375C13.186 9.58261 13.1031 9.78291 12.9554 9.9306C12.8077 10.0783 12.6074 10.1613 12.3985 10.1613H9.39855C9.18969 10.1613 8.98939 10.0783 8.8417 9.9306C8.69402 9.78291 8.61105 9.58261 8.61105 9.37375C8.61105 9.16489 8.69402 8.96459 8.8417 8.8169C8.98939 8.66922 9.18969 8.58625 9.39855 8.58625H10.4939M10.4939 8.58625L7.84455 5.93692M10.4939 8.58625H10.759L7.84455 5.93692" fill="#FF4D7F" stroke="#FF4D7F" stroke-width="0.375"/>
</svg>
