<svg width="12" height="12" viewBox="0 0 12 12" fill="none" xmlns="http://www.w3.org/2000/svg">
<path d="M5.38957 1.12075C5.70913 0.743605 6.29081 0.743605 6.61037 1.12075L6.99541 1.57524C7.19137 1.80651 7.50117 1.90718 7.79565 1.83525L8.37429 1.69389C8.85449 1.57659 9.32509 1.9185 9.36193 2.41144L9.40629 3.00546C9.42889 3.30773 9.62037 3.57128 9.90085 3.68617L10.4521 3.91194C10.9095 4.09928 11.0893 4.65252 10.8293 5.07296L10.5161 5.5796C10.3567 5.83744 10.3567 6.1632 10.5161 6.42104L10.8293 6.92768C11.0893 7.34811 10.9095 7.90135 10.4521 8.08868L9.90085 8.31448C9.62037 8.42936 9.42889 8.69292 9.40629 8.99516L9.36193 9.5892C9.32509 10.0821 8.85449 10.424 8.37429 10.3068L7.79565 10.1654C7.50117 10.0934 7.19137 10.1941 6.99541 10.4254L6.61037 10.8799C6.29081 11.257 5.70913 11.257 5.38957 10.8799L5.00453 10.4254C4.80857 10.1941 4.49877 10.0934 4.20429 10.1654L3.62564 10.3068C3.14545 10.424 2.67485 10.0821 2.63802 9.5892L2.59365 8.99516C2.57106 8.69292 2.37958 8.42936 2.09908 8.31448L1.54785 8.08868C1.09042 7.90135 0.910662 7.34811 1.17061 6.92768L1.48386 6.42104C1.64327 6.1632 1.64327 5.83744 1.48386 5.5796L1.17061 5.07296C0.910662 4.65252 1.09042 4.09928 1.54785 3.91194L2.09908 3.68617C2.37958 3.57128 2.57106 3.30773 2.59365 3.00546L2.63802 2.41144C2.67485 1.9185 3.14545 1.57659 3.62564 1.69389L4.20429 1.83525C4.49877 1.90718 4.80857 1.80651 5.00453 1.57524L5.38957 1.12075Z" fill="#0B6CFF"/>
<path d="M5.4 7.05039L4.35 6.00039L4 6.35039L5.4 7.75039L8.4 4.75039L8.05 4.40039L5.4 7.05039Z" fill="white" stroke="white" stroke-width="0.500002"/>
</svg>
