<svg width="14" height="13" viewBox="0 0 14 13" fill="none" xmlns="http://www.w3.org/2000/svg">
<path d="M13.186 6.62551C13.187 6.72924 13.1674 6.83213 13.1284 6.92827C13.0893 7.02473 13.0314 7.11247 12.9582 7.18644C12.885 7.2604 12.7978 7.31911 12.7017 7.35918C12.6057 7.39924 12.5026 7.41987 12.3985 7.41987C12.1897 7.41987 11.9894 7.3369 11.8417 7.18921C11.694 7.04153 11.611 6.84122 11.611 6.63237V5.53103L8.40313 8.73895L8.40274 8.73934C8.25519 8.88601 8.05559 8.96834 7.84755 8.96834C7.6395 8.96834 7.43991 8.88601 7.29236 8.73934L7.29197 8.73895L5.31855 6.76553L2.15713 9.92695C2.00899 10.0751 1.80806 10.1583 1.59855 10.1583C1.38904 10.1583 1.18811 10.0751 1.03997 9.92695C0.891821 9.7788 0.808594 9.57788 0.808594 9.36837C0.808594 9.15886 0.891821 8.95793 1.03997 8.80978L4.75997 5.08978L4.76036 5.08939C4.90791 4.94272 5.1075 4.86039 5.31555 4.86039C5.5236 4.86039 5.72319 4.94272 5.87074 5.08939L5.87113 5.08978L7.84455 7.0632L10.4939 4.41387H9.39855C9.18969 4.41387 8.98939 4.3309 8.8417 4.18321C8.69402 4.03553 8.61105 3.83522 8.61105 3.62637C8.61105 3.41751 8.69402 3.21721 8.8417 3.06952C8.98939 2.92184 9.18969 2.83887 9.39855 2.83887H12.3985C12.6074 2.83887 12.8077 2.92184 12.9554 3.06952C13.1031 3.21721 13.186 3.41751 13.186 3.62637V6.62551ZM13.186 6.62551V6.62637H12.9985L13.186 6.62449C13.186 6.62483 13.186 6.62517 13.186 6.62551Z" fill="#25EC7A" stroke="#25EC7A" stroke-width="0.375"/>
</svg>
