<svg width="64" height="64" viewBox="0 0 64 64" fill="none" xmlns="http://www.w3.org/2000/svg">
<g clip-path="url(#clip0_947_22962)">
<path d="M11 22C17.0802 22 22 17.0802 22 11C22 4.91983 17.0802 0 11 0C4.91983 0 0 4.91983 0 11C0 17.0802 4.91983 22 11 22Z" fill="#281B4C"/>
<path fill-rule="evenodd" clip-rule="evenodd" d="M7.84632 6.875C7.54013 6.875 7.2318 6.99223 6.99757 7.22664C6.52901 7.69543 6.52887 8.45545 6.99757 8.92415L9.30259 11.2292L6.99757 13.5342C6.5288 14.0029 6.5288 14.7629 6.99757 15.2317C7.23156 15.4657 7.53977 15.5833 7.84632 15.5833C8.15252 15.5833 8.46106 15.4659 8.69528 15.2315L11.0001 12.9267L13.3051 15.2317C13.7736 15.7005 14.5341 15.7004 15.0026 15.2317C15.4716 14.7627 15.4716 14.0031 15.0026 13.5342L12.6976 11.2292L15.0026 8.92415C15.4714 8.45538 15.4714 7.69541 15.0026 7.22664C14.5344 6.75823 13.7735 6.75792 13.3049 7.22685L11.0001 9.53166L8.69508 7.22664C8.46109 6.99266 8.15287 6.875 7.84632 6.875ZM7.84632 15.125C8.03611 15.125 8.22628 15.0525 8.37099 14.9076L11 12.2786L10.9999 12.2785L8.37082 14.9076C8.22616 15.0524 8.03605 15.125 7.84632 15.125ZM14.1515 15.1249C14.3422 15.1255 14.5331 15.0531 14.6785 14.9076C14.9685 14.6176 14.9685 14.1482 14.6785 13.8583L12.0494 11.2292L14.6785 8.60006C14.9683 8.31028 14.9683 7.84051 14.6785 7.55073C14.5332 7.40535 14.3423 7.33291 14.1516 7.33348C14.3422 7.33295 14.5331 7.40539 14.6784 7.55073C14.9681 7.84051 14.9681 8.31028 14.6784 8.60006L12.0493 11.2292L14.6784 13.8583C14.9683 14.1482 14.9683 14.6176 14.6784 14.9076C14.533 15.053 14.3422 15.1255 14.1515 15.1249ZM11 10.1798L8.37099 7.55073C8.22628 7.40603 8.03611 7.33333 7.84632 7.33333C7.84555 7.33333 7.84479 7.33333 7.84402 7.33334" fill="#423577"/>
<path d="M25.829 36.7186C25.0849 34.9794 23.0723 34.1729 21.3332 34.917C19.594 35.661 18.7875 37.6736 19.5316 39.4127L24.0219 49.9084C27.7416 58.6031 37.8062 62.6363 46.5008 58.9165C55.1955 55.1968 59.2287 45.1322 55.5089 36.4375L51.9167 28.041C51.1726 26.3019 49.16 25.4953 47.4209 26.2394C45.6817 26.9834 44.8752 28.996 45.6193 30.7352L44.7212 28.636C43.9772 26.8969 41.9645 26.0904 40.2254 26.8344C38.4863 27.5785 37.6798 29.5911 38.4238 31.3302L37.5257 29.2311C36.7817 27.4919 34.7691 26.6854 33.0299 27.4295C31.2908 28.1735 30.4843 30.1861 31.2283 31.9253L24.9419 17.2313C24.1979 15.4922 22.1852 14.6856 20.4461 15.4297C18.707 16.1737 17.9005 18.1863 18.6445 19.9255L28.9722 44.0655L25.829 36.7186Z" stroke="#423577" stroke-width="5.12" stroke-miterlimit="10" stroke-linecap="round" stroke-linejoin="round"/>
</g>
<defs>
<clipPath id="clip0_947_22962">
<rect width="64" height="64" fill="white"/>
</clipPath>
</defs>
</svg>
