<svg width="64" height="64" viewBox="0 0 64 64" fill="none" xmlns="http://www.w3.org/2000/svg">
<path d="M19.7154 35.6314C18.6556 33.7946 16.3068 33.1648 14.47 34.2259C12.6332 35.2858 12.0035 37.6346 13.0646 39.4714L19.4646 50.5562C24.7663 59.7389 36.5091 62.8864 45.6918 57.5834C54.8745 52.2816 58.022 40.5389 52.719 31.3562L47.599 22.4883C46.5391 20.6515 44.1903 20.0218 42.3535 21.0829C40.5167 22.1427 39.8883 24.4915 40.9481 26.3283L39.6681 24.1114C38.6083 22.2746 36.2594 21.6448 34.4226 22.7059C32.5858 23.7658 31.9561 26.1146 33.0172 27.9514L31.7372 25.7344C30.6774 23.8976 28.3286 23.2679 26.4918 24.329C24.655 25.3888 24.0252 27.7376 25.0863 29.5744L16.1263 14.0557C15.0665 12.2189 12.7177 11.5891 10.8809 12.6503C9.04411 13.7101 8.41432 16.0589 9.47544 17.8957L24.1954 43.392L19.7154 35.6314Z" stroke="#423577" stroke-width="5.12" stroke-miterlimit="10" stroke-linecap="round" stroke-linejoin="round"/>
<path d="M20.7354 8.18817C31.3146 2.78785 44.5946 4.51457 53.4471 13.367" stroke="#FF4D7F" stroke-width="2.56" stroke-miterlimit="10" stroke-linecap="round" stroke-linejoin="round"/>
<path d="M20.7354 3.83997V8.95997L25.8554 10.24" stroke="#FF4D7F" stroke-width="2.56" stroke-miterlimit="10" stroke-linecap="round" stroke-linejoin="round"/>
</svg>
