<svg width="64" height="64" viewBox="0 0 64 64" fill="none" xmlns="http://www.w3.org/2000/svg">
<path d="M33.0409 24.7155C34.1007 22.8787 33.4723 20.5299 31.6355 19.47C29.7987 18.4102 27.4499 19.0387 26.39 20.8755L19.99 31.9603C14.6882 41.143 17.8345 52.8857 27.0172 58.1875C36.1999 63.4892 47.9426 60.343 53.2444 51.1603L58.3644 42.2924C59.4242 40.4556 58.7958 38.1068 56.959 37.047C55.1222 35.9872 52.7734 36.6156 51.7135 38.4524L52.9935 36.2355C54.0534 34.3987 53.4249 32.0499 51.5881 30.99C49.7513 29.9302 47.4025 30.5587 46.3427 32.3955L47.6227 30.1785C48.6825 28.3417 48.054 25.9929 46.2172 24.9331C44.3804 23.8732 42.0316 24.5017 40.9718 26.3385L49.9318 10.8198C50.9916 8.98301 50.3631 6.63421 48.5263 5.57437C46.6895 4.51453 44.3407 5.14301 43.2809 6.97981L28.5609 32.4761L33.0409 24.7155Z" stroke="#423577" stroke-width="5.12" stroke-miterlimit="10" stroke-linecap="round" stroke-linejoin="round"/>
<path d="M35.2718 8.18813C25.6693 3.28701 13.842 4.25725 5.12012 11.0976" stroke="#25EC7A" stroke-width="2.56" stroke-miterlimit="10" stroke-linecap="round" stroke-linejoin="round"/>
<path d="M35.8402 3.83997V8.95997L30.7202 10.24" stroke="#25EC7A" stroke-width="2.56" stroke-miterlimit="10" stroke-linecap="round" stroke-linejoin="round"/>
</svg>
