<svg width="24" height="25" viewBox="0 0 24 25" fill="none" xmlns="http://www.w3.org/2000/svg">
<path d="M12 24.5C18.6329 24.5 24 19.1329 24 12.5C24 5.86709 18.6329 0.5 12 0.5C5.36709 0.5 0 5.86709 0 12.5C0 19.1329 5.36709 24.5 12 24.5Z" fill="#281B4C"/>
<path d="M10.2036 16.6309L9.07363 14.9209L8.55363 14.2009L6.45363 11.3209H8.38363L9.48363 12.9609L10.0336 13.7309L12.1136 16.6309H10.2036ZM6.40363 16.6309L8.54363 13.6609L9.40363 14.6909L8.30363 16.6309H6.40363ZM9.93363 14.3209L9.07363 13.2909L10.1236 11.3209H12.0136L9.93363 14.3209ZM12.9079 16.6309L12.5679 15.7909L14.5779 13.5709C14.6979 13.4442 14.8245 13.3009 14.9579 13.1409C15.0912 12.9809 15.2179 12.8175 15.3379 12.6509C15.4645 12.4775 15.5645 12.3109 15.6379 12.1509C15.7179 11.9909 15.7579 11.8475 15.7579 11.7209C15.7579 11.5875 15.7279 11.4709 15.6679 11.3709C15.6145 11.2709 15.5312 11.1942 15.4179 11.1409C15.3112 11.0809 15.1712 11.0509 14.9979 11.0509C14.8512 11.0509 14.7079 11.0909 14.5679 11.1709C14.4279 11.2509 14.2945 11.3709 14.1679 11.5309C14.0479 11.6842 13.9345 11.8809 13.8279 12.1209L12.5679 11.4209C12.7079 11.0342 12.9045 10.6942 13.1579 10.4009C13.4179 10.1075 13.7212 9.87753 14.0679 9.71086C14.4145 9.54419 14.7845 9.46419 15.1779 9.47086C15.5912 9.47086 15.9612 9.55753 16.2879 9.73086C16.6212 9.90419 16.8845 10.1442 17.0779 10.4509C17.2779 10.7509 17.3779 11.1042 17.3779 11.5109C17.3779 11.6909 17.3512 11.8775 17.2979 12.0709C17.2512 12.2642 17.1712 12.4709 17.0579 12.6909C16.9512 12.9042 16.8079 13.1342 16.6279 13.3809C16.4479 13.6275 16.2279 13.8942 15.9679 14.1809L14.4179 15.8709L14.2079 15.1209H17.6879V16.6309H12.9079Z" fill="#FF9E44"/>
</svg>
