<svg width="24" height="24" viewBox="0 0 24 24" fill="none" xmlns="http://www.w3.org/2000/svg">
<circle cx="12.5" cy="12.5" r="7.5" fill="black"/>
<path d="M17.7356 9.4023L11.2759 15.8621C10.977 16.1609 10.5172 16.2069 10.1724 16C10.1149 15.9655 10.046 15.908 9.98851 15.8621L6.26437 12.1379C5.90805 11.7816 5.90805 11.2069 6.26437 10.8506C6.62069 10.4943 7.1954 10.4943 7.54023 10.8506L10.6207 13.931L16.4483 8.10345C16.8046 7.74713 17.3793 7.74713 17.7241 8.10345C18.0805 8.48276 18.0805 9.05747 17.7356 9.4023ZM12 2C6.48276 2 2 6.48276 2 12C2 17.5172 6.48276 22 12 22C17.5172 22 22 17.5172 22 12C22 6.48276 17.5172 2 12 2Z" fill="#25EC7A"/>
</svg>
