<svg width="200" height="200" viewBox="0 0 200 200" fill="none" xmlns="http://www.w3.org/2000/svg">
<path d="M127.772 5.76709C120.996 7.3395 116.513 10.565 114.806 15.0933C113.615 18.2528 113.846 21.7932 115.491 25.6172L118.361 24.3828C117.046 21.3269 116.834 18.5721 117.73 16.1949C119.399 11.7668 124.496 9.73609 128.478 8.81198L127.772 5.76709ZM70.675 7.7988C63.4188 7.827 54.1168 11.1711 45.2111 17.4988C38.2127 22.4713 32.5887 28.5328 29.3748 34.5673C25.9799 40.9413 25.6408 46.6051 28.4188 50.515L39.2785 65.7997C41.4691 68.883 45.3273 70.4941 50.3602 70.4941C51.7978 70.4874 53.2328 70.37 54.6525 70.1432C61.4083 69.0937 68.9836 65.7772 75.982 60.8048C90.9808 50.1475 98.3573 35.6459 92.7751 27.7893L81.9146 12.5038C79.6467 9.31196 75.6398 7.7795 70.675 7.7988ZM70.8741 10.9383C74.7113 10.9383 77.7429 12.0281 79.3672 14.3143C83.7806 20.5286 76.4293 33.6525 63.3119 42.9726C50.1935 52.2932 35.3808 54.9177 30.9663 48.7046C28.9096 45.81 29.3235 41.3109 32.1328 36.0359C35.1231 30.4217 40.4109 24.7433 47.0216 20.0463C55.3132 14.1549 64.2821 10.9383 70.8741 10.9383ZM33.4893 13.311C33.2295 13.4897 32.9699 13.6703 32.7111 13.8542C31.0634 15.0252 29.4694 16.2747 27.9725 17.5675L30.0157 19.9326C31.4382 18.7039 32.9539 17.5164 34.5216 16.4025C34.7674 16.2277 35.0139 16.0553 35.2609 15.8852L33.4893 13.311ZM141.293 14.3395C140.503 14.3317 139.731 14.3493 138.979 14.3929C132.522 14.7665 128.19 17.0302 126.782 20.7672L120.169 38.3126C117.388 45.6913 127.412 56.0711 142.989 61.9423C149.647 64.4512 156.083 65.6718 161.491 65.6716C168.738 65.6712 174.136 63.4783 175.729 59.253L182.342 41.7076C183.75 37.9706 181.99 33.4107 177.386 28.8681C173.095 24.6352 166.751 20.8037 159.521 18.0786C153.195 15.6944 146.819 14.394 141.293 14.3395ZM140.947 17.4622C146.175 17.4622 152.302 18.6974 158.419 21.003C165.249 23.577 171.205 27.1603 175.191 31.0929C178.81 34.6632 180.35 38.1308 179.418 40.606C177.555 45.5485 165.572 47.0765 150.704 41.4727C143.875 38.8987 137.918 35.3154 133.932 31.3828C130.313 27.8126 128.773 24.3449 129.706 21.8697C130.639 19.3945 134.084 17.8061 139.159 17.5125C139.743 17.4788 140.338 17.4621 140.947 17.4622ZM83.677 20.3797L90.2276 29.599C92.9016 33.3624 91.2529 39.6608 86.6273 46.1136L77.7017 33.5511C81.1335 29.0053 83.2191 24.4283 83.677 20.3797ZM23.8687 21.4691C14.8234 30.9666 11.703 40.9373 15.9188 46.8705L18.4663 45.0608C15.2078 40.4747 18.2881 31.86 26.1315 23.6245L23.8687 21.4691ZM51.0102 22.9622L48.4628 24.7727L52.9878 31.1409L46.6195 35.6659L48.4292 38.2134L54.7982 33.6884L59.3232 40.0566L61.8707 38.2469L57.3457 31.8779L63.7139 27.3529L61.9042 24.8055L55.5352 29.3312L51.0102 22.9622ZM153.043 25.869L152.303 28.9048C153.256 29.138 154.195 29.4287 155.113 29.7753C160.711 31.8852 165.068 35.9364 165.709 39.6263L168.787 39.0915C167.941 34.2154 163.006 29.4113 156.215 26.8517C155.179 26.4605 154.119 26.1324 153.043 25.869ZM127.441 27.8771C128.539 30.016 129.992 31.9533 131.737 33.6068C132.587 34.4412 133.478 35.2326 134.407 35.978L128.949 50.4601C124.171 46.3757 122.032 42.2289 123.093 39.415L127.441 27.8771ZM75.6562 36.068L84.6284 48.6946C81.9029 51.9161 78.8178 54.8153 75.4334 57.3357L66.3842 44.5992C69.7699 42.0937 72.8782 39.2338 75.6562 36.068ZM137.016 37.9166C140.501 40.2849 144.233 42.2667 148.147 43.8271L142.636 58.4481C138.713 56.8966 134.986 54.8909 131.53 52.472L137.016 37.9166ZM151.071 44.9288C155.04 46.343 159.152 47.3173 163.334 47.834L157.848 62.3917C153.655 61.9277 149.531 60.9742 145.561 59.5505L151.071 44.9288ZM63.8368 46.4096L72.8867 59.1461C69.399 61.5199 65.6507 63.4858 61.715 65.0055L52.72 52.3445C56.6269 50.769 60.3538 48.7793 63.8368 46.4096ZM177.168 46.5752L172.804 58.1505C171.744 60.9646 167.4 62.6696 161.115 62.584L166.577 48.0919C167.094 48.1128 167.605 48.1262 168.105 48.1262C171.643 48.1262 174.739 47.6022 177.168 46.5752ZM49.6652 53.4409L58.6205 66.0439C57.1618 66.4777 55.6762 66.8156 54.1734 67.0555C48.2675 67.973 43.8826 66.8839 41.826 63.9893L35.2746 54.7692C36.6628 55.0708 38.08 55.2182 39.5005 55.2086C40.9381 55.2024 42.3731 55.0856 43.7928 54.8592C45.7841 54.5393 47.7474 54.0651 49.6652 53.4409ZM110.843 56.9229C104.5 56.9859 97.4205 58.0138 90.2184 59.9533L91.031 62.9708C101.101 60.2591 110.865 59.3926 118.52 60.5309L118.98 57.4402C116.458 57.0651 113.726 56.8943 110.843 56.9229ZM192.186 60.6171L189.062 60.6644C189.133 65.3694 184.42 70.0699 176.133 73.5604L177.346 76.4397C187.008 72.37 192.279 66.7507 192.186 60.6171ZM135.473 64.2784L133.886 66.9709C136.246 68.3615 137.821 70.1205 138.567 72.1985C139.172 73.9918 139.228 75.9253 138.726 77.7504L141.76 78.4996C142.413 76.0772 142.325 73.5147 141.508 71.1426C140.509 68.3592 138.479 66.0498 135.473 64.2784ZM108.878 68.1168C102.531 68.1362 95.0832 69.4858 87.378 72.2519C79.8851 74.9415 73.1678 78.6337 68.0833 82.8125H46.8751C43.9233 82.8165 41.0474 83.7477 38.6536 85.4747C36.2597 87.2017 34.469 89.6371 33.5343 92.437C33.2965 92.5875 33.104 92.7998 32.9774 93.0512L19.7907 119.426C18.9281 121.157 18.4306 123.047 18.3291 124.978C18.2277 126.909 18.5244 128.841 19.201 130.653L24.669 145.232C25.2168 146.694 25.4456 148.255 25.3401 149.812C25.2346 151.369 24.7971 152.885 24.0571 154.259L4.87451 189.884L7.62567 191.366L26.809 155.74C27.7602 153.974 28.3224 152.024 28.4578 150.023C28.5933 148.021 28.2987 146.014 27.5941 144.135L22.1269 129.556C21.6006 128.146 21.3698 126.644 21.4487 125.142C21.5275 123.64 21.9145 122.17 22.5854 120.824L32.8126 100.369V131.25C32.8124 131.578 32.9155 131.898 33.1073 132.164C33.2991 132.43 33.5697 132.629 33.881 132.733C34.1922 132.837 34.5282 132.84 34.8413 132.742C35.1545 132.644 35.4288 132.45 35.6255 132.188L53.5928 108.231L54.8608 108.865C57.2817 110.07 59.1694 112.13 60.1579 114.647C61.1464 117.164 61.1654 119.958 60.2113 122.488L54.7868 136.951C54.7113 137.153 54.6782 137.367 54.6895 137.582C54.7008 137.797 54.7562 138.007 54.8524 138.199C56.5745 141.643 57.2553 145.515 56.8114 149.34C56.3675 153.165 54.8182 156.778 52.353 159.736L45.675 167.75C45.5242 167.93 45.4163 168.143 45.3591 168.371L39.1091 193.371L42.1411 194.129L48.3041 169.476L54.754 161.736C54.9724 161.474 55.1812 161.207 55.3864 160.938H63.3706L59.5895 171.02C58.6376 173.557 58.652 176.356 59.6299 178.883C60.6079 181.41 62.4811 183.489 64.8929 184.725C67.3048 185.96 70.0867 186.265 72.7091 185.583C75.3314 184.9 77.611 183.276 79.1139 181.021L85.0892 172.058C86.0866 170.558 87.4396 169.329 89.0276 168.479C90.6156 167.629 92.3892 167.186 94.1903 167.188H105.81C107.611 167.186 109.385 167.629 110.973 168.479C112.561 169.329 113.914 170.558 114.911 172.058L120.886 181.021C122.389 183.276 124.669 184.9 127.291 185.582C129.913 186.265 132.695 185.96 135.107 184.725C137.519 183.489 139.392 181.41 140.37 178.883C141.348 176.355 141.363 173.557 140.411 171.02L136.63 160.938H144.614C144.819 161.207 145.028 161.474 145.246 161.736L151.696 169.476L157.859 194.129L160.891 193.371L154.641 168.371C154.584 168.143 154.476 167.93 154.325 167.75L147.647 159.736C145.182 156.778 143.633 153.165 143.189 149.34C142.745 145.515 143.426 141.643 145.148 138.199C145.244 138.007 145.299 137.797 145.311 137.582C145.322 137.367 145.289 137.153 145.213 136.951L139.789 122.488C138.835 119.958 138.854 117.164 139.842 114.647C140.831 112.13 142.718 110.07 145.139 108.865L146.407 108.231L164.375 132.188C164.571 132.45 164.846 132.644 165.159 132.742C165.472 132.84 165.808 132.837 166.119 132.733C166.43 132.629 166.701 132.43 166.893 132.164C167.085 131.898 167.188 131.578 167.188 131.25V100.369L177.415 120.824C178.086 122.17 178.473 123.64 178.551 125.142C178.63 126.644 178.4 128.146 177.873 129.556L172.406 144.135C171.702 146.014 171.407 148.021 171.543 150.022C171.678 152.024 172.24 153.973 173.191 155.74L192.375 191.366L195.126 189.884L175.943 154.259C175.203 152.885 174.766 151.369 174.66 149.812C174.555 148.255 174.783 146.694 175.331 145.232L180.799 130.653C181.476 128.841 181.772 126.909 181.671 124.978C181.57 123.047 181.072 121.157 180.209 119.426L167.023 93.0512C166.896 92.8 166.704 92.588 166.466 92.4378C165.531 89.6378 163.741 87.2021 161.347 85.475C158.953 83.7479 156.077 82.8165 153.125 82.8125H129.351L127.009 76.2879C125.076 70.9016 118.153 68.0884 108.878 68.1168ZM26.3856 69.1544L23.6146 70.5979C25.4884 74.1968 29.1177 77.8096 34.1104 81.0463L35.8102 78.4241C31.2699 75.4807 28.0105 72.2754 26.3856 69.1544ZM108.954 71.2395C117.091 71.2395 122.727 73.6086 124.068 77.3438C125.241 80.6132 123.287 85.0426 118.706 89.4959C113.748 94.315 106.372 98.6365 97.9356 101.665C89.4994 104.693 81.058 106.048 74.1677 105.483C67.8 104.959 63.4753 102.784 62.3017 99.5148C61.1283 96.2454 63.0824 91.816 67.6637 87.3627C72.621 82.5436 79.9972 78.2221 88.4339 75.1938C96.1124 72.4377 103.166 71.2395 108.954 71.2395ZM91.1027 80.9845C90.8865 80.9805 90.6719 81.0214 90.4723 81.1045C90.2727 81.1876 90.0925 81.3112 89.943 81.4675L80.2896 91.5726C80.0892 91.7825 79.9512 92.044 79.8911 92.3278C79.8309 92.6117 79.851 92.9066 79.9491 93.1797C80.0471 93.4528 80.2193 93.6932 80.4462 93.874C80.6732 94.0547 80.946 94.1687 81.2341 94.2032L95.1104 95.8634C95.3514 95.8923 95.5958 95.8646 95.8242 95.7826C96.0526 95.7007 96.2589 95.5666 96.4265 95.3911L106.08 85.2852C106.28 85.0754 106.418 84.8139 106.478 84.53C106.539 84.2462 106.518 83.9512 106.42 83.6781C106.322 83.405 106.15 83.1646 105.923 82.9839C105.696 82.8031 105.424 82.6891 105.135 82.6546L91.2591 80.9952C91.2072 80.989 91.155 80.9855 91.1027 80.9845ZM126.485 84.0767L129.347 92.0502C130.52 95.3196 128.566 99.7488 123.985 104.202C123.152 105.012 122.245 105.806 121.282 106.583L117.116 94.9761C118.433 93.969 119.691 92.8874 120.884 91.7366C123.533 89.1614 125.413 86.5722 126.485 84.0767ZM91.6635 84.1904L101.661 85.3867L94.7061 92.6674L84.7085 91.4719L91.6635 84.1904ZM46.8751 85.9375H64.6745C59.7002 91.0926 57.8123 96.2593 59.3598 100.571L64.6394 115.276C66.5631 120.636 73.4244 123.447 82.631 123.447C89.0071 123.447 96.5093 122.098 104.27 119.312C113.118 116.137 120.892 111.566 126.163 106.443C131.742 101.02 133.917 95.5332 132.288 90.9943L130.473 85.9375H153.125C156.025 85.9408 158.805 87.0942 160.855 89.1446C162.906 91.1951 164.059 93.9752 164.063 96.875V126.563L148.126 105.312C147.906 105.019 147.591 104.813 147.234 104.729C146.878 104.645 146.504 104.688 146.176 104.852L143.742 106.07C140.629 107.619 138.202 110.268 136.932 113.504C135.661 116.74 135.637 120.333 136.864 123.586L142.053 137.424C140.567 140.635 139.844 144.147 139.941 147.684C140.038 151.221 140.952 154.688 142.613 157.813H135.458L130.265 143.965C129.027 140.695 126.826 137.879 123.952 135.887C121.078 133.896 117.668 132.824 114.172 132.813H85.8285C82.3323 132.824 78.9218 133.896 76.0481 135.887C73.1745 137.879 70.9731 140.695 69.735 143.965L64.5425 157.813H57.3876C59.0477 154.688 59.9621 151.221 60.0592 147.684C60.1564 144.147 59.4337 140.635 57.9476 137.424L63.1364 123.586C64.3635 120.333 64.3393 116.74 63.0686 113.504C61.7978 110.268 59.3711 107.619 56.2585 106.07L53.8239 104.852C53.4967 104.689 53.1224 104.645 52.7662 104.729C52.4101 104.813 52.0948 105.02 51.8754 105.312L35.9376 126.563V96.875C35.9408 93.9752 37.0942 91.1951 39.1447 89.1446C41.1952 87.0942 43.9753 85.9408 46.8751 85.9375ZM114.479 96.8788L118.668 108.551C114.316 111.533 109.619 113.976 104.679 115.827L100.456 104.062C105.388 102.209 110.093 99.7988 114.479 96.8788ZM97.5152 105.119L101.737 116.882C96.7507 118.603 91.5724 119.708 86.3175 120.173L82.1259 108.495C87.3674 107.958 92.5305 106.825 97.5152 105.119ZM64.7141 106.237C67.1295 107.485 70.2237 108.294 73.9114 108.598C75.0144 108.688 76.1513 108.733 77.3217 108.733C77.835 108.733 78.3559 108.721 78.8804 108.704L83.0514 120.322C74.7209 120.392 68.9409 118.01 67.5805 114.22L64.7141 106.237ZM85.8285 135.938H114.172C117.032 135.947 119.823 136.824 122.174 138.453C124.525 140.082 126.326 142.387 127.339 145.062L137.485 172.117C137.943 173.313 138.099 174.603 137.942 175.874C137.784 177.145 137.316 178.358 136.579 179.405C135.857 180.463 134.886 181.327 133.751 181.921C132.617 182.515 131.354 182.821 130.073 182.813C128.769 182.814 127.486 182.493 126.337 181.878C125.187 181.263 124.208 180.373 123.486 179.288L117.511 170.325C116.229 168.397 114.489 166.816 112.448 165.723C110.406 164.63 108.126 164.06 105.81 164.063H94.1903C91.8746 164.06 89.5943 164.63 87.5527 165.723C85.511 166.816 83.7714 168.397 82.4891 170.325L76.5138 179.288C75.7919 180.373 74.8127 181.263 73.6635 181.878C72.5143 182.493 71.2307 182.814 69.9273 182.813C68.6482 182.813 67.3881 182.503 66.255 181.909C65.1218 181.316 64.1493 180.457 63.4208 179.405C62.6922 178.354 62.2293 177.142 62.0716 175.873C61.9139 174.603 62.0662 173.315 62.5154 172.117L72.6609 145.062C73.6739 142.387 75.4752 140.082 77.8264 138.453C80.1776 136.824 82.9679 135.947 85.8285 135.938ZM85.9376 140.625V148.438H78.1251V151.563H85.9376V159.375H89.0626V151.563H96.8751V148.438H89.0626V140.625H85.9376ZM109.375 142.188V145.313H115.625V142.188H109.375ZM103.125 148.438V151.563H109.375V148.438H103.125ZM115.625 148.438V151.563H121.875V148.438H115.625ZM109.375 154.688V157.813H115.625V154.688H109.375Z" fill="url(#paint0_linear_335_1747)"/>
<defs>
<linearGradient id="paint0_linear_335_1747" x1="4.87445" y1="99.9481" x2="195.126" y2="99.9481" gradientUnits="userSpaceOnUse">
<stop stop-color="#FF8BF3"/>
<stop offset="1" stop-color="#806BFF"/>
</linearGradient>
</defs>
</svg>
