<svg width="20" height="20" viewBox="0 0 20 20" fill="none" xmlns="http://www.w3.org/2000/svg">
<path d="M14.7795 7.8346L9.39639 13.2177C9.14735 13.4668 8.7642 13.5051 8.47685 13.3327C8.42896 13.3039 8.37148 13.2561 8.32359 13.2177L5.22014 10.1143C4.92321 9.81736 4.92321 9.33843 5.22014 9.04149C5.51708 8.74456 5.99601 8.74456 6.28336 9.04149L8.85041 11.6085L13.7067 6.75222C14.0037 6.45529 14.4826 6.45529 14.77 6.75222C15.0669 7.06831 15.0669 7.54724 14.7795 7.8346ZM9.99984 1.66602C5.40214 1.66602 1.6665 5.40165 1.6665 9.99935C1.6665 14.597 5.40214 18.3327 9.99984 18.3327C14.5975 18.3327 18.3332 14.597 18.3332 9.99935C18.3332 5.40165 14.5975 1.66602 9.99984 1.66602Z" fill="#25EC7A"/>
</svg>
