<svg width="24" height="24" viewBox="0 0 24 24" fill="none" xmlns="http://www.w3.org/2000/svg">
<path d="M12 2C6.43778 2 2 6.43778 2 12C2 17.5622 6.43778 22 12 22C17.5622 22 22 17.5622 22 12C22 6.43778 17.5622 2 12 2ZM11.0378 5.91222C11.3 5.65 11.5244 5.47556 11.95 5.47556C12.4256 5.43778 12.8622 5.66222 13.0378 6C13.2378 6.23778 13.35 6.76222 13.3 7.07556C13.3 7.16222 13.2378 7.75 13.2122 7.91222L12.8622 12.35C12.8622 12.7878 12.7744 13.2244 12.6 13.5622C12.5122 13.8244 12.25 14 11.9 14C11.7654 13.9984 11.6346 13.9556 11.5251 13.8773C11.4156 13.799 11.3328 13.6891 11.2878 13.5622C11.1122 13.1244 11.0256 12.7744 11.0256 12.35L10.7878 8C10.7 7.21222 10.7 7.47444 10.7 7.03778C10.7 6.61222 10.7878 6.26222 11.0378 5.91222ZM12.9622 18.1756C12.7272 18.4011 12.4135 18.5262 12.0878 18.5244C11.7378 18.5244 11.3878 18.4378 11.1244 18.1756C10.9857 18.0407 10.8756 17.8794 10.8006 17.7011C10.7255 17.5228 10.6872 17.3312 10.6878 17.1378C10.6878 16.7878 10.7756 16.4378 11.0378 16.1756C11.3 15.9122 11.65 15.7378 12 15.7378C12.35 15.7378 12.7 15.9122 12.9622 16.1744C13.2244 16.4378 13.3122 16.7878 13.3122 17.1378C13.3 17.5622 13.2122 17.9122 12.9622 18.1756Z" fill="#FF4545"/>
</svg>
