<svg width="24" height="24" viewBox="0 0 24 24" fill="none" xmlns="http://www.w3.org/2000/svg">
<path fill-rule="evenodd" clip-rule="evenodd" d="M12.8813 13.4928C12.8813 13.9742 12.4923 14.3648 12.013 14.3648C11.5337 14.3648 11.1447 13.9742 11.1447 13.4928V9.9909C11.1447 9.50961 11.5337 9.11896 12.013 9.11896C12.4923 9.11896 12.8813 9.50961 12.8813 9.9909V13.4928ZM12.0107 17.8772C11.5314 17.8772 11.1424 17.5145 11.1424 17.0331V16.9762C11.1424 16.4948 11.5314 16.1042 12.0107 16.1042C12.49 16.1042 12.879 16.4948 12.879 16.9762C12.879 17.4575 12.49 17.8772 12.0107 17.8772ZM22.6169 17.6668L14.5589 3.46379C14.0391 2.54994 13.1036 2.00233 12.0559 2H12.0501C11.0069 2 10.0726 2.54296 9.55161 3.451L1.39176 17.6528C0.869608 18.5597 0.869608 19.6445 1.3906 20.5513C1.91159 21.4594 2.84705 22 3.89019 22H20.108C21.1489 22 22.0809 21.4617 22.6042 20.5571C23.1275 19.6549 23.1321 18.5736 22.6169 17.6668Z" fill="#EB8E38"/>
</svg>
