<svg width="24" height="24" viewBox="0 0 24 24" fill="none" xmlns="http://www.w3.org/2000/svg">
<path d="M21.9225 7.5958L20.6103 4.57989L20.6088 4.57622C20.6011 4.55896 20.5929 4.54274 20.5832 4.526C20.4926 4.36801 20.3474 4.25397 20.175 4.20427L16.0912 3.02616C16.0303 3.00889 15.9674 3 15.9039 3H7.8612C7.79163 3 7.72206 3.01099 7.65555 3.03191L3.95441 4.20898C3.7989 4.25815 3.66487 4.36278 3.57739 4.50246C3.56716 4.5192 3.55744 4.53647 3.54875 4.55373L2.08978 7.57435C2.02123 7.69781 1.99105 7.83749 2.0023 7.97874C2.01407 8.12417 2.06829 8.26071 2.15935 8.37266L11.416 19.7505L11.4304 19.7672C11.4953 19.8404 11.5731 19.898 11.6621 19.9388C11.7506 19.9791 11.8447 19.9995 11.9435 20C12.0401 20 12.1343 19.9796 12.2223 19.9398C12.3102 19.9001 12.3885 19.8431 12.4535 19.7703L21.8355 8.37632C21.926 8.26751 21.9813 8.13516 21.9961 7.99338C22.0104 7.8558 21.9849 7.71873 21.923 7.5958H21.9225ZM15.8564 4.06041L18.3349 4.77554L15.4072 5.77003H8.36304L5.67275 4.77293L7.91287 4.06041H15.8564ZM15.2655 9.81235H8.74569L8.78047 6.82992H15.0179L15.2655 9.81235ZM7.74559 6.66879L7.71182 9.56647L3.16866 7.73495L4.30074 5.3918L7.74559 6.66879ZM4.28028 9.32269L7.82539 10.7519L10.085 16.4573L4.28028 9.32269ZM16.2211 10.7519L19.6859 9.34152L13.8899 16.3809L16.2211 10.7519ZM16.2871 9.58373L16.0457 6.67036L19.8261 5.38657L20.8451 7.72867L16.2871 9.58426V9.58373ZM15.0456 10.8728L11.9511 18.3443L8.99226 10.8728H15.0456Z" fill="url(#paint0_linear_1044_5173)"/>
<defs>
<linearGradient id="paint0_linear_1044_5173" x1="2.00001" y1="20" x2="-0.514519" y2="7.54568" gradientUnits="userSpaceOnUse">
<stop stop-color="#806BFF"/>
<stop offset="1" stop-color="#FF8BF3"/>
</linearGradient>
</defs>
</svg>
