<svg width="100" height="100" viewBox="0 0 100 100" fill="none" xmlns="http://www.w3.org/2000/svg">
<path d="M50.0002 91.6668C73.012 91.6668 91.6668 73.012 91.6668 50.0002C91.6668 26.9883 73.012 8.3335 50.0002 8.3335C26.9883 8.3335 8.3335 26.9883 8.3335 50.0002C8.3335 73.012 26.9883 91.6668 50.0002 91.6668Z" fill="url(#paint0_linear_347_4699)"/>
<path d="M74.9773 49.1844C75.3338 52.4026 72.1927 56.2084 72.1927 56.2084C72.1927 56.2084 73.2815 52.576 70.9498 49.5891C68.6181 46.6022 62.7984 47.6524 57.7977 48.0185C52.7971 48.3847 40.3388 53.7418 40.3388 53.7418C40.3388 53.7418 37.9107 54.108 36.504 51.4005C35.0973 48.693 40.5604 42.1025 40.5604 42.1025C40.5604 42.1025 39.5872 44.4535 41.3794 44.916C43.1715 45.3785 43.8363 43.5189 56.709 42.9312C69.5816 42.3434 74.6208 45.9662 74.9773 49.1844Z" fill="url(#paint1_linear_347_4699)"/>
<path d="M27.9286 56.228C30.665 58.9355 40.3773 53.7229 40.3773 53.7229C40.3773 53.7229 36.4973 52.8653 36.3498 50.4276C36.2023 47.9899 39.4619 43.2494 41.8996 40.407C44.3374 37.5647 48.1239 34.7257 51.0723 32.6025C54.8373 29.8914 57.7688 28.3823 57.7688 28.3823C57.7688 28.3823 57.7013 30.2419 57.9711 32.063C58.2409 33.884 58.8768 35.4449 58.8768 35.4449C58.8768 35.4449 59.3297 30.637 61.0448 26.3011C62.7598 21.9653 66.3152 19.1133 66.3152 19.1133C66.3152 19.1133 56.6415 20.3163 43.5376 31.745C30.4338 43.1737 25.1922 53.5205 27.9286 56.228Z" fill="url(#paint2_linear_347_4699)"/>
<path d="M41.9865 73.0221C36.9351 77.4809 34.4903 80.4573 33.4883 82.4646C33.4883 82.4646 37.0231 80.5902 41.3024 78.1095C47.3104 74.6267 50.0608 73.7833 58.4916 68.0311C66.9224 62.2789 72.3663 55.9967 72.3663 55.9967C72.3663 55.9967 73.8019 52.0752 70.8343 49.098C67.8666 46.1207 59.5611 47.8743 59.5611 47.8743C60.2709 48.0285 61.7984 48.8051 62.23 50.6782C62.7696 53.0195 61.2569 55.2356 58.1062 58.7717C54.9555 62.3078 49.0491 66.7882 41.9865 73.0221Z" fill="url(#paint3_linear_347_4699)"/>
<path d="M37.2845 29.8855C42.3334 24.4994 48.1145 21.2716 48.1145 21.2716C48.1145 20.7128 47.758 20.0094 46.1489 19.6144C44.5398 19.2193 42.3334 19.6144 42.3334 19.6144C42.3334 19.6144 46.6981 17.5524 51.5928 17.4272C56.4875 17.3019 60.8137 18.9592 60.8137 18.9592C60.8137 18.9592 52.7683 21.8786 44.1544 27.7754C35.5406 33.6721 30.5303 41.7753 30.5303 41.7753C30.5303 41.7753 32.2357 35.2715 37.2845 29.8855Z" fill="url(#paint4_linear_347_4699)" stroke="url(#paint5_linear_347_4699)" stroke-width="0.0192704"/>
<defs>
<linearGradient id="paint0_linear_347_4699" x1="50" y1="92.0002" x2="12.4862" y2="68.8871" gradientUnits="userSpaceOnUse">
<stop stop-color="#FF8E6B"/>
<stop offset="1" stop-color="#FFAA6D"/>
</linearGradient>
<linearGradient id="paint1_linear_347_4699" x1="55.639" y1="42.1025" x2="55.639" y2="56.2085" gradientUnits="userSpaceOnUse">
<stop stop-color="#D34531"/>
<stop offset="1" stop-color="#FF815A"/>
</linearGradient>
<linearGradient id="paint2_linear_347_4699" x1="46.7697" y1="19.1133" x2="46.7697" y2="57.0078" gradientUnits="userSpaceOnUse">
<stop stop-color="#D34531"/>
<stop offset="1" stop-color="#FF815A"/>
</linearGradient>
<linearGradient id="paint3_linear_347_4699" x1="53.1008" y1="47.3613" x2="53.1008" y2="82.4646" gradientUnits="userSpaceOnUse">
<stop stop-color="#D34531"/>
<stop offset="1" stop-color="#FF815A"/>
</linearGradient>
<linearGradient id="paint4_linear_347_4699" x1="45.672" y1="17.4204" x2="45.672" y2="41.7753" gradientUnits="userSpaceOnUse">
<stop stop-color="#D34531"/>
<stop offset="1" stop-color="#FF815A"/>
</linearGradient>
<linearGradient id="paint5_linear_347_4699" x1="56.131" y1="17.8318" x2="31.3878" y2="39.4628" gradientUnits="userSpaceOnUse">
<stop stop-color="#E678C3"/>
<stop offset="0.323009" stop-color="#DDEFF1"/>
<stop offset="1" stop-color="#4653A2"/>
</linearGradient>
</defs>
</svg>
