<svg width="16" height="16" viewBox="0 0 16 16" fill="none" xmlns="http://www.w3.org/2000/svg">
<path d="M9.33333 2C9.51013 2.00003 9.67967 2.07028 9.80467 2.1953C9.92967 2.32032 9.9999 2.48987 9.9999 2.66667C9.9999 2.84346 9.92967 3.01301 9.80467 3.13804C9.67967 3.26306 9.51013 3.33331 9.33333 3.33333H4C3.83671 3.33335 3.67911 3.3933 3.55709 3.50181C3.43506 3.61032 3.3571 3.75983 3.338 3.922L3.33333 4V12C3.33335 12.1633 3.3933 12.3209 3.50181 12.4429C3.61032 12.5649 3.75983 12.6429 3.922 12.662L4 12.6667H9.33333C9.51013 12.6667 9.67967 12.7369 9.80467 12.862C9.92967 12.987 9.9999 13.1565 9.9999 13.3333C9.9999 13.5101 9.92967 13.6797 9.80467 13.8047C9.67967 13.9297 9.51013 14 9.33333 14H4C3.46957 14 2.96086 13.7893 2.58579 13.4142C2.21071 13.0391 2 12.5304 2 12V4C2 3.46957 2.21071 2.96086 2.58579 2.58579C2.96086 2.21071 3.46957 2 4 2H9.33333ZM10.8633 5.80333C10.9778 5.68888 11.13 5.6201 11.2915 5.60992C11.4531 5.59973 11.6128 5.64883 11.7407 5.748L11.8033 5.80333L13.5287 7.52867C13.6435 7.64346 13.7124 7.79619 13.7226 7.95821C13.7328 8.12023 13.6835 8.2804 13.584 8.40867L13.5287 8.47133L11.8033 10.1967C11.7414 10.2582 11.6679 10.3069 11.5872 10.34C11.5064 10.3731 11.4199 10.39 11.3326 10.3897C11.2454 10.3894 11.159 10.3719 11.0785 10.3382C10.9979 10.3045 10.9248 10.2553 10.8633 10.1933C10.7488 10.0779 10.6803 9.9247 10.6704 9.76238C10.6606 9.60007 10.7102 9.43974 10.81 9.31133L10.8653 9.248L11.4467 8.66667H6.66667C6.49675 8.66648 6.33331 8.60141 6.20975 8.48477C6.0862 8.36812 6.01184 8.2087 6.00189 8.03907C5.99193 7.86944 6.04712 7.70241 6.15618 7.57211C6.26524 7.44181 6.41994 7.35807 6.58867 7.338L6.66667 7.33333H11.4467L10.862 6.74467C10.7376 6.61953 10.6679 6.45017 10.6681 6.27372C10.6684 6.09727 10.7386 5.92812 10.8633 5.80333Z" fill="white"/>
</svg>
