<svg width="24" height="24" viewBox="0 0 24 24" fill="none" xmlns="http://www.w3.org/2000/svg">
<path fill-rule="evenodd" clip-rule="evenodd" d="M11.4047 4.0361C11.1387 3.96522 10.8554 4.00271 10.617 4.14036C10.3785 4.27802 10.2044 4.5046 10.1328 4.77043C10.1327 4.77057 10.1328 4.77029 10.1328 4.77043L8.03518 12.5949C8.03512 12.5951 8.03524 12.5947 8.03518 12.5949C7.96438 12.8609 8.00171 13.1447 8.13933 13.3831C8.27698 13.6215 8.50354 13.7956 8.76934 13.8672C8.7695 13.8673 8.76919 13.8672 8.76934 13.8672L15.25 15.6035C15.2563 15.6052 15.2626 15.6069 15.2689 15.6086L16.5949 15.9639C16.595 15.9639 16.5948 15.9638 16.5949 15.9639C16.8609 16.0348 17.1446 15.9974 17.383 15.8597C17.6214 15.7221 17.7954 15.4957 17.8671 15.23C17.8672 15.2297 17.8671 15.2302 17.8671 15.23L19.9638 7.40516C20.0349 7.13902 19.9974 6.85556 19.8597 6.617C19.722 6.37848 19.4953 6.20433 19.2293 6.13273C19.2293 6.13272 19.2294 6.13275 19.2293 6.13273L11.4047 4.0361C11.4046 4.03606 11.4048 4.03614 11.4047 4.0361ZM16 17.875L16.0782 17.896C16.8562 18.1036 17.6857 17.9944 18.383 17.5918C19.0803 17.1892 19.5895 16.5264 19.7987 15.7488L19.7989 15.7479L21.8959 7.92185C22.1036 7.14388 21.9943 6.31436 21.5917 5.61703C21.1892 4.9197 20.5264 4.41057 19.7488 4.20137L11.9218 2.10411C11.1439 1.89647 10.3143 2.00571 9.617 2.40829C8.91967 2.81088 8.41054 3.47367 8.20134 4.25122L7.19636 8.00003H5.009C4.21096 8.00043 3.44524 8.31773 2.88108 8.88217C2.31692 9.44661 2 10.212 2 11.01V18.991C2.0004 19.7891 2.3177 20.5548 2.88214 21.119C3.44658 21.6831 4.21196 22 5.01 22H12.991C13.7885 21.9996 14.5538 21.6827 15.1179 21.119C15.6819 20.5552 15.9992 19.7906 16 18.993L16 17.875ZM14 17.3392L8.25019 15.7987C7.47264 15.5895 6.80985 15.0804 6.40726 14.383C6.00467 13.6857 5.89518 12.8571 6.10282 12.0792L6.66019 10H5.0095C4.74172 10.0002 4.48495 10.1066 4.29564 10.296C4.10634 10.4854 4 10.7423 4 11.01V18.9907C4.00019 19.2584 4.10665 19.5151 4.296 19.7044C4.4854 19.8937 4.74222 20 5.01 20H12.9905C13.2581 19.9999 13.5147 19.8936 13.704 19.7044C13.8931 19.5154 13.9995 19.2591 14 18.9917C14 18.9915 14 18.992 14 18.9917V17.3392Z" fill="url(#paint0_linear_2409_27405)"/>
<defs>
<linearGradient id="paint0_linear_2409_27405" x1="2" y1="12.0006" x2="21.9988" y2="12.0006" gradientUnits="userSpaceOnUse">
<stop stop-color="#F4DFB2"/>
<stop offset="1" stop-color="#DCB37B"/>
</linearGradient>
</defs>
</svg>
