<svg width="25" height="24" viewBox="0 0 25 24" fill="none" xmlns="http://www.w3.org/2000/svg">
<path d="M15.5 16.572V18.992C15.4995 19.5246 15.2876 20.0352 14.9109 20.4116C14.5343 20.7881 14.0236 20.9997 13.491 21H5.51C4.97709 21 4.46599 20.7884 4.08907 20.4116C3.71215 20.0349 3.50027 19.5239 3.5 18.991V11.01C3.5 10.4771 3.71163 9.96599 4.08836 9.58907C4.46509 9.21215 4.97609 9.00027 5.509 9H8.463" stroke="#242425" stroke-width="2" stroke-linecap="round" stroke-linejoin="round"/>
<path d="M9.667 4.51097C9.80738 3.9892 10.149 3.54443 10.617 3.27427C11.0849 3.00411 11.6409 2.93064 12.163 3.06997L19.989 5.16697C20.5108 5.30736 20.9555 5.64901 21.2257 6.11696C21.4959 6.5849 21.5693 7.14092 21.43 7.66297L19.333 15.489C19.1926 16.0108 18.851 16.4555 18.383 16.7257C17.9151 16.9958 17.3591 17.0693 16.837 16.93L9.01 14.833C8.48822 14.6926 8.04345 14.3509 7.77329 13.883C7.50314 13.415 7.42966 12.859 7.569 12.337L9.667 4.51097Z" stroke="#242425" stroke-width="2" stroke-linecap="round" stroke-linejoin="round"/>
</svg>
