<svg width="18" height="18" viewBox="0 0 18 18" fill="none" xmlns="http://www.w3.org/2000/svg">
<path d="M9 1.5C4.86452 1.5 1.5 4.86453 1.5 9C1.5 13.1355 4.86452 16.5 9 16.5C13.1355 16.5 16.5 13.1355 16.5 9C16.5 4.86453 13.1355 1.5 9 1.5ZM9 2.625C12.5275 2.625 15.375 5.47252 15.375 9C15.375 12.5275 12.5275 15.375 9 15.375C5.47252 15.375 2.625 12.5275 2.625 9C2.625 5.47252 5.47252 2.625 9 2.625ZM9 4.5C7.66681 4.5 6.52937 5.37563 6.14209 6.5874C6.11635 6.65853 6.10522 6.73413 6.10937 6.80966C6.11351 6.88519 6.13285 6.95911 6.16622 7.027C6.1996 7.09489 6.24632 7.15535 6.30359 7.20476C6.36087 7.25418 6.42752 7.29154 6.49957 7.3146C6.57162 7.33766 6.64757 7.34596 6.7229 7.33899C6.79822 7.33202 6.87137 7.30993 6.93796 7.27404C7.00455 7.23815 7.06322 7.18921 7.11046 7.13012C7.1577 7.07104 7.19254 7.00303 7.21289 6.93017C7.4541 6.17544 8.15819 5.625 9 5.625C10.0423 5.625 10.875 6.45772 10.875 7.5C10.875 8.54228 10.0423 9.375 9 9.375C8.85082 9.37501 8.70775 9.43428 8.60227 9.53977C8.49678 9.64525 8.43751 9.78832 8.4375 9.9375V10.6875C8.43644 10.762 8.45022 10.836 8.47801 10.9052C8.50581 10.9744 8.54707 11.0373 8.59941 11.0904C8.65175 11.1435 8.71411 11.1857 8.78288 11.2144C8.85165 11.2432 8.92545 11.258 9 11.258C9.07454 11.258 9.14835 11.2432 9.21712 11.2144C9.28589 11.1857 9.34825 11.1435 9.40059 11.0904C9.45293 11.0373 9.49419 10.9744 9.52199 10.9052C9.54978 10.836 9.56355 10.762 9.5625 10.6875V10.3857C10.9362 10.1126 12 8.95097 12 7.5C12 5.84978 10.6502 4.5 9 4.5ZM9 12.375C8.85081 12.375 8.70774 12.4343 8.60225 12.5398C8.49676 12.6452 8.4375 12.7883 8.4375 12.9375C8.4375 13.0867 8.49676 13.2298 8.60225 13.3352C8.70774 13.4407 8.85081 13.5 9 13.5C9.14918 13.5 9.29226 13.4407 9.39775 13.3352C9.50323 13.2298 9.5625 13.0867 9.5625 12.9375C9.5625 12.7883 9.50323 12.6452 9.39775 12.5398C9.29226 12.4343 9.14918 12.375 9 12.375Z" fill="white" fill-opacity="0.4"/>
</svg>
