<svg width="25" height="24" viewBox="0 0 25 24" fill="none" xmlns="http://www.w3.org/2000/svg">
<path d="M21.875 10.1625C22.2984 10.0761 22.6789 9.8461 22.9522 9.51145C23.2255 9.1768 23.3749 8.75802 23.375 8.32594V6C23.375 5.50272 23.1775 5.02581 22.8258 4.67417C22.4742 4.32254 21.9973 4.125 21.5 4.125H3.5C3.00272 4.125 2.52581 4.32254 2.17417 4.67417C1.82254 5.02581 1.625 5.50272 1.625 6V8.32594C1.62513 8.75802 1.77448 9.1768 2.04781 9.51145C2.32113 9.8461 2.70165 10.0761 3.125 10.1625C3.54886 10.2486 3.92993 10.4785 4.20364 10.8134C4.47736 11.1483 4.62688 11.5675 4.62688 12C4.62688 12.4325 4.47736 12.8517 4.20364 13.1866C3.92993 13.5215 3.54886 13.7514 3.125 13.8375C2.70165 13.9239 2.32113 14.1539 2.04781 14.4885C1.77448 14.8232 1.62513 15.242 1.625 15.6741V18C1.625 18.4973 1.82254 18.9742 2.17417 19.3258C2.52581 19.6775 3.00272 19.875 3.5 19.875H21.5C21.9973 19.875 22.4742 19.6775 22.8258 19.3258C23.1775 18.9742 23.375 18.4973 23.375 18V15.6741C23.3749 15.242 23.2255 14.8232 22.9522 14.4885C22.6789 14.1539 22.2984 13.9239 21.875 13.8375C21.4511 13.7514 21.0701 13.5215 20.7964 13.1866C20.5226 12.8517 20.3731 12.4325 20.3731 12C20.3731 11.5675 20.5226 11.1483 20.7964 10.8134C21.0701 10.4785 21.4511 10.2486 21.875 10.1625ZM3.875 15.9694C4.73945 15.7249 5.50047 15.205 6.04243 14.4886C6.58438 13.7721 6.87764 12.8983 6.87764 12C6.87764 11.1017 6.58438 10.2279 6.04243 9.51144C5.50047 8.79499 4.73945 8.27505 3.875 8.03063V6.375H8.375V17.625H3.875V15.9694ZM21.125 15.9694V17.625H10.625V6.375H21.125V8.03063C20.2606 8.27505 19.4995 8.79499 18.9576 9.51144C18.4156 10.2279 18.1224 11.1017 18.1224 12C18.1224 12.8983 18.4156 13.7721 18.9576 14.4886C19.4995 15.205 20.2606 15.7249 21.125 15.9694Z" fill="url(#paint0_linear_1612_15461)"/>
<defs>
<linearGradient id="paint0_linear_1612_15461" x1="1.625" y1="12" x2="23.375" y2="12" gradientUnits="userSpaceOnUse">
<stop stop-color="#F4DFB2"/>
<stop offset="1" stop-color="#DCB37B"/>
</linearGradient>
</defs>
</svg>
