<svg width="32" height="32" viewBox="0 0 32 32" fill="none" xmlns="http://www.w3.org/2000/svg">
<path d="M16.0003 2.6665C8.64837 2.6665 2.66699 8.64789 2.66699 15.9998C2.66699 23.3518 8.64837 29.3332 16.0003 29.3332C23.3523 29.3332 29.3337 23.3518 29.3337 15.9998C29.3337 8.64789 23.3523 2.6665 16.0003 2.6665ZM16.0003 4.6665C22.2714 4.6665 27.3337 9.72876 27.3337 15.9998C27.3337 22.2709 22.2714 27.3332 16.0003 27.3332C9.72925 27.3332 4.66699 22.2709 4.66699 15.9998C4.66699 9.72876 9.72925 4.6665 16.0003 4.6665ZM14.6462 10.6561C14.3865 10.6637 14.1399 10.772 13.9587 10.9582L9.62533 15.2915C9.53211 15.3844 9.45815 15.4948 9.40769 15.6164C9.35722 15.7379 9.33124 15.8682 9.33124 15.9998C9.33124 16.1314 9.35722 16.2618 9.40769 16.3833C9.45815 16.5049 9.53211 16.6153 9.62533 16.7082L13.9587 21.0415C14.0517 21.1345 14.1621 21.2083 14.2836 21.2587C14.4052 21.3091 14.5355 21.335 14.667 21.335C14.7986 21.335 14.9288 21.3091 15.0504 21.2587C15.1719 21.2084 15.2824 21.1346 15.3754 21.0416C15.4684 20.9486 15.5422 20.8381 15.5926 20.7166C15.6429 20.595 15.6688 20.4648 15.6688 20.3332C15.6688 20.2016 15.6429 20.0714 15.5925 19.9498C15.5422 19.8283 15.4684 19.7179 15.3753 19.6248L12.7503 16.9998H21.667C21.7995 17.0017 21.9311 16.9772 22.054 16.9278C22.177 16.8784 22.2889 16.805 22.3833 16.712C22.4777 16.619 22.5526 16.5081 22.6037 16.3858C22.6549 16.2636 22.6812 16.1324 22.6812 15.9998C22.6812 15.8673 22.6549 15.7361 22.6037 15.6139C22.5526 15.4916 22.4777 15.3807 22.3833 15.2877C22.2889 15.1946 22.177 15.1213 22.054 15.0719C21.9311 15.0224 21.7995 14.998 21.667 14.9998H12.7503L15.3753 12.3748C15.5207 12.2343 15.6201 12.0531 15.6604 11.855C15.7007 11.6568 15.6801 11.4511 15.6011 11.265C15.5221 11.0789 15.3886 10.9211 15.2181 10.8124C15.0476 10.7036 14.8482 10.6492 14.6462 10.6561Z" fill="white"/>
</svg>
