<svg width="65" height="64" viewBox="0 0 65 64" fill="none" xmlns="http://www.w3.org/2000/svg">
<g clip-path="url(#clip0_2160_37967)">
<path fill-rule="evenodd" clip-rule="evenodd" d="M26.9206 5.73641L26.919 5.7364C26.7216 5.73456 26.525 5.76902 26.34 5.83764L5.06057 13.6774C4.83505 13.7608 4.63092 13.8934 4.463 14.0655C4.29508 14.2376 4.16756 14.4449 4.08971 14.6724C4.01186 14.8999 3.98562 15.1419 4.0129 15.3807C4.04018 15.6196 4.12071 15.8501 4.24784 16.0542L9.31248 24.1564L4.24743 32.2592C4.12029 32.4633 4.04018 32.6931 4.0129 32.932C3.98562 33.1709 4.01186 33.4129 4.08971 33.6404C4.16756 33.8679 4.29507 34.0752 4.463 34.2473C4.63093 34.4194 4.83559 34.5521 5.06111 34.6355L9.6012 36.3087L9.6012 48.7968C9.6015 49.128 9.70326 49.451 9.89276 49.7226C10.0823 49.9941 10.3505 50.2011 10.6612 50.3155L31.9412 58.1555C32.3026 58.2887 32.6997 58.2887 33.0612 58.1556L54.3413 50.3155C54.652 50.201 54.9201 49.9941 55.1096 49.7226C55.2991 49.451 55.4009 49.1275 55.4012 48.7964V24.6192L60.755 16.0536C60.8821 15.8495 60.9622 15.6196 60.9895 15.3807C61.0168 15.1418 60.9905 14.8999 60.9127 14.6724C60.8348 14.4449 60.7073 14.2376 60.5394 14.0655C60.3715 13.8934 60.1668 13.7606 59.9412 13.6772L38.6612 5.8372C38.4579 5.76231 38.2415 5.72896 38.0251 5.73912C37.7636 5.75147 37.509 5.827 37.2831 5.95925C37.0572 6.09149 36.8666 6.27663 36.7278 6.49859L32.5012 13.262L28.2748 6.49893C28.1311 6.26852 27.9317 6.07794 27.6951 5.9447C27.4585 5.81146 27.1922 5.73984 26.9206 5.73641ZM36.7278 22.1786L31.8267 30.0217L15.9052 24.1564L32.5012 18.0436L39.7366 20.7088L37.541 21.5173C37.2042 21.6415 36.9181 21.8742 36.7278 22.1786ZM28.2746 41.8142L30.8812 37.6442V54.3116L12.8412 47.6668V37.5019L26.3413 42.4756C26.6905 42.6041 27.0732 42.6085 27.4253 42.4881C27.7773 42.3677 28.0772 42.1297 28.2746 41.8142ZM8.04896 16.0261L26.2246 9.33103L30.0733 15.4867L11.8957 22.1817L8.04896 16.0261ZM34.9312 15.4846L38.7779 9.33105L54.6993 15.1963L44.4209 18.9817L34.9312 15.4846ZM39.1804 24.3652L55.5002 18.352L52.702 22.8276L36.3822 28.8408L39.1804 24.3652ZM8.04911 32.2867L11.8978 26.1311L30.0713 32.8282L26.2266 38.9817L8.04911 32.2867ZM34.1212 33.1259L52.1612 26.4791V47.6668L34.1212 54.3116V33.1259Z" fill="white" fill-opacity="0.2"/>
</g>
<defs>
<clipPath id="clip0_2160_37967">
<rect width="56" height="56" fill="white" transform="translate(4.5 4)"/>
</clipPath>
</defs>
</svg>
