<svg width="25" height="24" viewBox="0 0 25 24" fill="none" xmlns="http://www.w3.org/2000/svg">
<path d="M6.09993 3.19993C5.89523 3.19993 5.69031 3.27791 5.53431 3.43431L3.93431 5.03431C3.62151 5.34711 3.62151 5.85356 3.93431 6.16556L9.76868 11.9999L3.93431 17.8343C3.62151 18.1471 3.62151 18.6536 3.93431 18.9656L5.53431 20.5656C5.84711 20.8784 6.35356 20.8784 6.66556 20.5656L12.4999 14.7312L18.3343 20.5656C18.6463 20.8784 19.1536 20.8784 19.4656 20.5656L21.0656 18.9656C21.3784 18.6528 21.3784 18.1463 21.0656 17.8343L15.2312 11.9999L21.0656 6.16556C21.3784 5.85356 21.3784 5.34631 21.0656 5.03431L19.4656 3.43431C19.1528 3.12151 18.6463 3.12151 18.3343 3.43431L12.4999 9.26868L6.66556 3.43431C6.50916 3.27791 6.30463 3.19993 6.09993 3.19993Z" fill="#F3DDAF" fill-opacity="0.4"/>
</svg>
