<svg width="128" height="128" viewBox="0 0 128 128" fill="none" xmlns="http://www.w3.org/2000/svg">
<g clip-path="url(#clip0_2274_28153)">
<path d="M128 0H0V128H128V0Z" fill="white"/>
<path d="M11.6381 7.75586H7.75928V11.6346H11.6381V7.75586Z" fill="black"/>
<path d="M15.5175 7.75586H11.6387V11.6346H15.5175V7.75586Z" fill="black"/>
<path d="M19.3954 7.75586H15.5166V11.6346H19.3954V7.75586Z" fill="black"/>
<path d="M23.2743 7.75586H19.3955V11.6346H23.2743V7.75586Z" fill="black"/>
<path d="M27.1537 7.75586H23.2749V11.6346H27.1537V7.75586Z" fill="black"/>
<path d="M31.0316 7.75586H27.1528V11.6346H31.0316V7.75586Z" fill="black"/>
<path d="M34.911 7.75586H31.0322V11.6346H34.911V7.75586Z" fill="black"/>
<path d="M42.6683 7.75586H38.7896V11.6346H42.6683V7.75586Z" fill="black"/>
<path d="M62.0629 7.75586H58.1841V11.6346H62.0629V7.75586Z" fill="black"/>
<path d="M69.8202 7.75586H65.9414V11.6346H69.8202V7.75586Z" fill="black"/>
<path d="M77.577 7.75586H73.6982V11.6346H77.577V7.75586Z" fill="black"/>
<path d="M81.4559 7.75586H77.5771V11.6346H81.4559V7.75586Z" fill="black"/>
<path d="M96.972 7.75586H93.0933V11.6346H96.972V7.75586Z" fill="black"/>
<path d="M100.849 7.75586H96.9707V11.6346H100.849V7.75586Z" fill="black"/>
<path d="M104.729 7.75586H100.85V11.6346H104.729V7.75586Z" fill="black"/>
<path d="M108.608 7.75586H104.729V11.6346H108.608V7.75586Z" fill="black"/>
<path d="M112.486 7.75586H108.607V11.6346H112.486V7.75586Z" fill="black"/>
<path d="M116.365 7.75586H112.486V11.6346H116.365V7.75586Z" fill="black"/>
<path d="M120.245 7.75586H116.366V11.6346H120.245V7.75586Z" fill="black"/>
<path d="M11.6381 11.6348H7.75928V15.5136H11.6381V11.6348Z" fill="black"/>
<path d="M34.911 11.6348H31.0322V15.5136H34.911V11.6348Z" fill="black"/>
<path d="M54.3041 11.6348H50.4253V15.5136H54.3041V11.6348Z" fill="black"/>
<path d="M58.184 11.6348H54.3052V15.5136H58.184V11.6348Z" fill="black"/>
<path d="M62.0629 11.6348H58.1841V15.5136H62.0629V11.6348Z" fill="black"/>
<path d="M65.9403 11.6348H62.0615V15.5136H65.9403V11.6348Z" fill="black"/>
<path d="M69.8202 11.6348H65.9414V15.5136H69.8202V11.6348Z" fill="black"/>
<path d="M77.577 11.6348H73.6982V15.5136H77.577V11.6348Z" fill="black"/>
<path d="M96.972 11.6348H93.0933V15.5136H96.972V11.6348Z" fill="black"/>
<path d="M120.245 11.6348H116.366V15.5136H120.245V11.6348Z" fill="black"/>
<path d="M11.6381 15.5137H7.75928V19.3925H11.6381V15.5137Z" fill="black"/>
<path d="M19.3954 15.5137H15.5166V19.3925H19.3954V15.5137Z" fill="black"/>
<path d="M23.2743 15.5137H19.3955V19.3925H23.2743V15.5137Z" fill="black"/>
<path d="M27.1537 15.5137H23.2749V19.3925H27.1537V15.5137Z" fill="black"/>
<path d="M34.911 15.5137H31.0322V19.3925H34.911V15.5137Z" fill="black"/>
<path d="M54.3041 15.5137H50.4253V19.3925H54.3041V15.5137Z" fill="black"/>
<path d="M62.0629 15.5137H58.1841V19.3925H62.0629V15.5137Z" fill="black"/>
<path d="M69.8202 15.5137H65.9414V19.3925H69.8202V15.5137Z" fill="black"/>
<path d="M73.6991 15.5137H69.8203V19.3925H73.6991V15.5137Z" fill="black"/>
<path d="M85.3358 15.5137H81.457V19.3925H85.3358V15.5137Z" fill="black"/>
<path d="M96.972 15.5137H93.0933V19.3925H96.972V15.5137Z" fill="black"/>
<path d="M104.729 15.5137H100.85V19.3925H104.729V15.5137Z" fill="black"/>
<path d="M108.608 15.5137H104.729V19.3925H108.608V15.5137Z" fill="black"/>
<path d="M112.486 15.5137H108.607V19.3925H112.486V15.5137Z" fill="black"/>
<path d="M120.245 15.5137H116.366V19.3925H120.245V15.5137Z" fill="black"/>
<path d="M11.6381 19.3926H7.75928V23.2714H11.6381V19.3926Z" fill="black"/>
<path d="M19.3954 19.3926H15.5166V23.2714H19.3954V19.3926Z" fill="black"/>
<path d="M23.2743 19.3926H19.3955V23.2714H23.2743V19.3926Z" fill="black"/>
<path d="M27.1537 19.3926H23.2749V23.2714H27.1537V19.3926Z" fill="black"/>
<path d="M34.911 19.3926H31.0322V23.2714H34.911V19.3926Z" fill="black"/>
<path d="M42.6683 19.3926H38.7896V23.2714H42.6683V19.3926Z" fill="black"/>
<path d="M54.3041 19.3926H50.4253V23.2714H54.3041V19.3926Z" fill="black"/>
<path d="M58.184 19.3926H54.3052V23.2714H58.184V19.3926Z" fill="black"/>
<path d="M62.0629 19.3926H58.1841V23.2714H62.0629V19.3926Z" fill="black"/>
<path d="M65.9403 19.3926H62.0615V23.2714H65.9403V19.3926Z" fill="black"/>
<path d="M73.6991 19.3926H69.8203V23.2714H73.6991V19.3926Z" fill="black"/>
<path d="M81.4559 19.3926H77.5771V23.2714H81.4559V19.3926Z" fill="black"/>
<path d="M96.972 19.3926H93.0933V23.2714H96.972V19.3926Z" fill="black"/>
<path d="M104.729 19.3926H100.85V23.2714H104.729V19.3926Z" fill="black"/>
<path d="M108.608 19.3926H104.729V23.2714H108.608V19.3926Z" fill="black"/>
<path d="M112.486 19.3926H108.607V23.2714H112.486V19.3926Z" fill="black"/>
<path d="M120.245 19.3926H116.366V23.2714H120.245V19.3926Z" fill="black"/>
<path d="M11.6381 23.2715H7.75928V27.1503H11.6381V23.2715Z" fill="black"/>
<path d="M19.3954 23.2715H15.5166V27.1503H19.3954V23.2715Z" fill="black"/>
<path d="M23.2743 23.2715H19.3955V27.1503H23.2743V23.2715Z" fill="black"/>
<path d="M27.1537 23.2715H23.2749V27.1503H27.1537V23.2715Z" fill="black"/>
<path d="M34.911 23.2715H31.0322V27.1503H34.911V23.2715Z" fill="black"/>
<path d="M46.5472 23.2715H42.6685V27.1503H46.5472V23.2715Z" fill="black"/>
<path d="M50.4266 23.2715H46.5479V27.1503H50.4266V23.2715Z" fill="black"/>
<path d="M58.184 23.2715H54.3052V27.1503H58.184V23.2715Z" fill="black"/>
<path d="M62.0629 23.2715H58.1841V27.1503H62.0629V23.2715Z" fill="black"/>
<path d="M65.9403 23.2715H62.0615V27.1503H65.9403V23.2715Z" fill="black"/>
<path d="M73.6991 23.2715H69.8203V27.1503H73.6991V23.2715Z" fill="black"/>
<path d="M85.3358 23.2715H81.457V27.1503H85.3358V23.2715Z" fill="black"/>
<path d="M96.972 23.2715H93.0933V27.1503H96.972V23.2715Z" fill="black"/>
<path d="M104.729 23.2715H100.85V27.1503H104.729V23.2715Z" fill="black"/>
<path d="M108.608 23.2715H104.729V27.1503H108.608V23.2715Z" fill="black"/>
<path d="M112.486 23.2715H108.607V27.1503H112.486V23.2715Z" fill="black"/>
<path d="M120.245 23.2715H116.366V27.1503H120.245V23.2715Z" fill="black"/>
<path d="M11.6381 27.1504H7.75928V31.0292H11.6381V27.1504Z" fill="black"/>
<path d="M34.911 27.1504H31.0322V31.0292H34.911V27.1504Z" fill="black"/>
<path d="M54.3041 27.1504H50.4253V31.0292H54.3041V27.1504Z" fill="black"/>
<path d="M58.184 27.1504H54.3052V31.0292H58.184V27.1504Z" fill="black"/>
<path d="M62.0629 27.1504H58.1841V31.0292H62.0629V27.1504Z" fill="black"/>
<path d="M65.9403 27.1504H62.0615V31.0292H65.9403V27.1504Z" fill="black"/>
<path d="M69.8202 27.1504H65.9414V31.0292H69.8202V27.1504Z" fill="black"/>
<path d="M77.577 27.1504H73.6982V31.0292H77.577V27.1504Z" fill="black"/>
<path d="M85.3358 27.1504H81.457V31.0292H85.3358V27.1504Z" fill="black"/>
<path d="M89.2133 27.1504H85.3345V31.0292H89.2133V27.1504Z" fill="black"/>
<path d="M96.972 27.1504H93.0933V31.0292H96.972V27.1504Z" fill="black"/>
<path d="M120.245 27.1504H116.366V31.0292H120.245V27.1504Z" fill="black"/>
<path d="M11.6381 31.0273H7.75928V34.9061H11.6381V31.0273Z" fill="black"/>
<path d="M15.5175 31.0273H11.6387V34.9061H15.5175V31.0273Z" fill="black"/>
<path d="M19.3954 31.0273H15.5166V34.9061H19.3954V31.0273Z" fill="black"/>
<path d="M23.2743 31.0273H19.3955V34.9061H23.2743V31.0273Z" fill="black"/>
<path d="M27.1537 31.0273H23.2749V34.9061H27.1537V31.0273Z" fill="black"/>
<path d="M31.0316 31.0273H27.1528V34.9061H31.0316V31.0273Z" fill="black"/>
<path d="M34.911 31.0273H31.0322V34.9061H34.911V31.0273Z" fill="black"/>
<path d="M42.6683 31.0273H38.7896V34.9061H42.6683V31.0273Z" fill="black"/>
<path d="M50.4266 31.0273H46.5479V34.9061H50.4266V31.0273Z" fill="black"/>
<path d="M58.184 31.0273H54.3052V34.9061H58.184V31.0273Z" fill="black"/>
<path d="M65.9403 31.0273H62.0615V34.9061H65.9403V31.0273Z" fill="black"/>
<path d="M73.6991 31.0273H69.8203V34.9061H73.6991V31.0273Z" fill="black"/>
<path d="M81.4559 31.0273H77.5771V34.9061H81.4559V31.0273Z" fill="black"/>
<path d="M89.2133 31.0273H85.3345V34.9061H89.2133V31.0273Z" fill="black"/>
<path d="M96.972 31.0273H93.0933V34.9061H96.972V31.0273Z" fill="black"/>
<path d="M100.849 31.0273H96.9707V34.9061H100.849V31.0273Z" fill="black"/>
<path d="M104.729 31.0273H100.85V34.9061H104.729V31.0273Z" fill="black"/>
<path d="M108.608 31.0273H104.729V34.9061H108.608V31.0273Z" fill="black"/>
<path d="M112.486 31.0273H108.607V34.9061H112.486V31.0273Z" fill="black"/>
<path d="M116.365 31.0273H112.486V34.9061H116.365V31.0273Z" fill="black"/>
<path d="M120.245 31.0273H116.366V34.9061H120.245V31.0273Z" fill="black"/>
<path d="M50.4266 34.9082H46.5479V38.787H50.4266V34.9082Z" fill="black"/>
<path d="M54.3041 34.9082H50.4253V38.787H54.3041V34.9082Z" fill="black"/>
<path d="M62.0629 34.9082H58.1841V38.787H62.0629V34.9082Z" fill="black"/>
<path d="M65.9403 34.9082H62.0615V38.787H65.9403V34.9082Z" fill="black"/>
<path d="M69.8202 34.9082H65.9414V38.787H69.8202V34.9082Z" fill="black"/>
<path d="M77.577 34.9082H73.6982V38.787H77.577V34.9082Z" fill="black"/>
<path d="M81.4559 34.9082H77.5771V38.787H81.4559V34.9082Z" fill="black"/>
<path d="M89.2133 34.9082H85.3345V38.787H89.2133V34.9082Z" fill="black"/>
<path d="M19.3954 38.7852H15.5166V42.6639H19.3954V38.7852Z" fill="black"/>
<path d="M27.1537 38.7852H23.2749V42.6639H27.1537V38.7852Z" fill="black"/>
<path d="M31.0316 38.7852H27.1528V42.6639H31.0316V38.7852Z" fill="black"/>
<path d="M34.911 38.7852H31.0322V42.6639H34.911V38.7852Z" fill="black"/>
<path d="M42.6683 38.7852H38.7896V42.6639H42.6683V38.7852Z" fill="black"/>
<path d="M50.4266 38.7852H46.5479V42.6639H50.4266V38.7852Z" fill="black"/>
<path d="M58.184 38.7852H54.3052V42.6639H58.184V38.7852Z" fill="black"/>
<path d="M69.8202 38.7852H65.9414V42.6639H69.8202V38.7852Z" fill="black"/>
<path d="M81.4559 38.7852H77.5771V42.6639H81.4559V38.7852Z" fill="black"/>
<path d="M93.0922 38.7852H89.2134V42.6639H93.0922V38.7852Z" fill="black"/>
<path d="M108.608 38.7852H104.729V42.6639H108.608V38.7852Z" fill="black"/>
<path d="M120.245 38.7852H116.366V42.6639H120.245V38.7852Z" fill="black"/>
<path d="M11.6381 42.666H7.75928V46.5448H11.6381V42.666Z" fill="black"/>
<path d="M15.517 42.666H11.6382V46.5448H15.517V42.666Z" fill="black"/>
<path d="M19.3954 42.666H15.5166V46.5448H19.3954V42.666Z" fill="black"/>
<path d="M31.0316 42.666H27.1528V46.5448H31.0316V42.666Z" fill="black"/>
<path d="M42.6683 42.666H38.7896V46.5448H42.6683V42.666Z" fill="black"/>
<path d="M50.4266 42.666H46.5479V46.5448H50.4266V42.666Z" fill="black"/>
<path d="M65.9403 42.666H62.0615V46.5448H65.9403V42.666Z" fill="black"/>
<path d="M81.4559 42.666H77.5771V46.5448H81.4559V42.666Z" fill="black"/>
<path d="M85.3358 42.666H81.457V46.5448H85.3358V42.666Z" fill="black"/>
<path d="M93.0922 42.666H89.2134V46.5448H93.0922V42.666Z" fill="black"/>
<path d="M96.972 42.666H93.0933V46.5448H96.972V42.666Z" fill="black"/>
<path d="M112.486 42.666H108.607V46.5448H112.486V42.666Z" fill="black"/>
<path d="M120.245 42.666H116.366V46.5448H120.245V42.666Z" fill="black"/>
<path d="M19.3954 46.543H15.5166V50.4218H19.3954V46.543Z" fill="black"/>
<path d="M23.2743 46.543H19.3955V50.4218H23.2743V46.543Z" fill="black"/>
<path d="M34.911 46.543H31.0322V50.4218H34.911V46.543Z" fill="black"/>
<path d="M38.7899 46.543H34.9111V50.4218H38.7899V46.543Z" fill="black"/>
<path d="M42.6683 46.543H38.7896V50.4218H42.6683V46.543Z" fill="black"/>
<path d="M62.0629 46.543H58.1841V50.4218H62.0629V46.543Z" fill="black"/>
<path d="M73.6991 46.543H69.8203V50.4218H73.6991V46.543Z" fill="black"/>
<path d="M100.849 46.543H96.9707V50.4218H100.849V46.543Z" fill="black"/>
<path d="M104.729 46.543H100.85V50.4218H104.729V46.543Z" fill="black"/>
<path d="M108.608 46.543H104.729V50.4218H108.608V46.543Z" fill="black"/>
<path d="M116.365 46.543H112.486V50.4218H116.365V46.543Z" fill="black"/>
<path d="M120.245 46.543H116.366V50.4218H120.245V46.543Z" fill="black"/>
<path d="M23.2743 50.4219H19.3955V54.3007H23.2743V50.4219Z" fill="black"/>
<path d="M27.1537 50.4219H23.2749V54.3007H27.1537V50.4219Z" fill="black"/>
<path d="M31.0316 50.4219H27.1528V54.3007H31.0316V50.4219Z" fill="black"/>
<path d="M38.7899 50.4219H34.9111V54.3007H38.7899V50.4219Z" fill="black"/>
<path d="M42.6683 50.4219H38.7896V54.3007H42.6683V50.4219Z" fill="black"/>
<path d="M54.3041 50.4219H50.4253V54.3007H54.3041V50.4219Z" fill="black"/>
<path d="M58.184 50.4219H54.3052V54.3007H58.184V50.4219Z" fill="black"/>
<path d="M65.9403 50.4219H62.0615V54.3007H65.9403V50.4219Z" fill="black"/>
<path d="M73.6991 50.4219H69.8203V54.3007H73.6991V50.4219Z" fill="black"/>
<path d="M77.577 50.4219H73.6982V54.3007H77.577V50.4219Z" fill="black"/>
<path d="M85.3358 50.4219H81.457V54.3007H85.3358V50.4219Z" fill="black"/>
<path d="M93.0922 50.4219H89.2134V54.3007H93.0922V50.4219Z" fill="black"/>
<path d="M96.972 50.4219H93.0933V54.3007H96.972V50.4219Z" fill="black"/>
<path d="M100.849 50.4219H96.9707V54.3007H100.849V50.4219Z" fill="black"/>
<path d="M104.729 50.4219H100.85V54.3007H104.729V50.4219Z" fill="black"/>
<path d="M116.365 50.4219H112.486V54.3007H116.365V50.4219Z" fill="black"/>
<path d="M11.6381 54.3008H7.75928V58.1796H11.6381V54.3008Z" fill="black"/>
<path d="M15.517 54.3008H11.6382V58.1796H15.517V54.3008Z" fill="black"/>
<path d="M19.3954 54.3008H15.5166V58.1796H19.3954V54.3008Z" fill="black"/>
<path d="M34.911 54.3008H31.0322V58.1796H34.911V54.3008Z" fill="black"/>
<path d="M38.7899 54.3008H34.9111V58.1796H38.7899V54.3008Z" fill="black"/>
<path d="M42.6683 54.3008H38.7896V58.1796H42.6683V54.3008Z" fill="black"/>
<path d="M50.4266 54.3008H46.5479V58.1796H50.4266V54.3008Z" fill="black"/>
<path d="M54.3041 54.3008H50.4253V58.1796H54.3041V54.3008Z" fill="black"/>
<path d="M69.8202 54.3008H65.9414V58.1796H69.8202V54.3008Z" fill="black"/>
<path d="M81.4559 54.3008H77.5771V58.1796H81.4559V54.3008Z" fill="black"/>
<path d="M96.972 54.3008H93.0933V58.1796H96.972V54.3008Z" fill="black"/>
<path d="M100.849 54.3008H96.9707V58.1796H100.849V54.3008Z" fill="black"/>
<path d="M11.6381 58.1797H7.75928V62.0585H11.6381V58.1797Z" fill="black"/>
<path d="M38.7899 58.1797H34.9111V62.0585H38.7899V58.1797Z" fill="black"/>
<path d="M54.3041 58.1816H50.4253V62.0604H54.3041V58.1816Z" fill="black"/>
<path d="M58.184 58.1816H54.3052V62.0604H58.184V58.1816Z" fill="black"/>
<path d="M77.577 58.1797H73.6982V62.0585H77.577V58.1797Z" fill="black"/>
<path d="M81.4559 58.1816H77.5771V62.0604H81.4559V58.1816Z" fill="black"/>
<path d="M89.2133 58.1797H85.3345V62.0585H89.2133V58.1797Z" fill="black"/>
<path d="M93.0922 58.1816H89.2134V62.0604H93.0922V58.1816Z" fill="black"/>
<path d="M96.972 58.1816H93.0933V62.0604H96.972V58.1816Z" fill="black"/>
<path d="M100.849 58.1797H96.9707V62.0585H100.849V58.1797Z" fill="black"/>
<path d="M116.365 58.1797H112.486V62.0585H116.365V58.1797Z" fill="black"/>
<path d="M120.245 58.1816H116.366V62.0604H120.245V58.1816Z" fill="black"/>
<path d="M11.6381 62.0586H7.75928V65.9374H11.6381V62.0586Z" fill="black"/>
<path d="M23.2743 62.0586H19.3955V65.9374H23.2743V62.0586Z" fill="black"/>
<path d="M27.1537 62.0586H23.2749V65.9374H27.1537V62.0586Z" fill="black"/>
<path d="M34.911 62.0586H31.0322V65.9374H34.911V62.0586Z" fill="black"/>
<path d="M42.6683 62.0586H38.7896V65.9374H42.6683V62.0586Z" fill="black"/>
<path d="M46.5472 62.0586H42.6685V65.9374H46.5472V62.0586Z" fill="black"/>
<path d="M50.4266 62.0586H46.5479V65.9374H50.4266V62.0586Z" fill="black"/>
<path d="M54.3041 62.0586H50.4253V65.9374H54.3041V62.0586Z" fill="black"/>
<path d="M58.184 62.0586H54.3052V65.9374H58.184V62.0586Z" fill="black"/>
<path d="M62.0629 62.0586H58.1841V65.9374H62.0629V62.0586Z" fill="black"/>
<path d="M69.8202 62.0586H65.9414V65.9374H69.8202V62.0586Z" fill="black"/>
<path d="M73.6991 62.0586H69.8203V65.9374H73.6991V62.0586Z" fill="black"/>
<path d="M93.0922 62.0586H89.2134V65.9374H93.0922V62.0586Z" fill="black"/>
<path d="M100.849 62.0586H96.9707V65.9374H100.849V62.0586Z" fill="black"/>
<path d="M112.486 62.0586H108.607V65.9374H112.486V62.0586Z" fill="black"/>
<path d="M116.365 62.0586H112.486V65.9374H116.365V62.0586Z" fill="black"/>
<path d="M120.245 62.0586H116.366V65.9374H120.245V62.0586Z" fill="black"/>
<path d="M11.6381 65.9375H7.75928V69.8163H11.6381V65.9375Z" fill="black"/>
<path d="M15.517 65.9375H11.6382V69.8163H15.517V65.9375Z" fill="black"/>
<path d="M19.3954 65.9375H15.5166V69.8163H19.3954V65.9375Z" fill="black"/>
<path d="M42.6683 65.9375H38.7896V69.8163H42.6683V65.9375Z" fill="black"/>
<path d="M46.5472 65.9375H42.6685V69.8163H46.5472V65.9375Z" fill="black"/>
<path d="M58.184 65.9375H54.3052V69.8163H58.184V65.9375Z" fill="black"/>
<path d="M69.8202 65.9375H65.9414V69.8163H69.8202V65.9375Z" fill="black"/>
<path d="M96.972 65.9375H93.0933V69.8163H96.972V65.9375Z" fill="black"/>
<path d="M100.849 65.9375H96.9707V69.8163H100.849V65.9375Z" fill="black"/>
<path d="M120.245 65.9375H116.366V69.8163H120.245V65.9375Z" fill="black"/>
<path d="M11.6381 69.8164H7.75928V73.6952H11.6381V69.8164Z" fill="black"/>
<path d="M15.5175 69.8164H11.6387V73.6952H15.5175V69.8164Z" fill="black"/>
<path d="M19.3954 69.8164H15.5166V73.6952H19.3954V69.8164Z" fill="black"/>
<path d="M23.2743 69.8164H19.3955V73.6952H23.2743V69.8164Z" fill="black"/>
<path d="M31.0316 69.8164H27.1528V73.6952H31.0316V69.8164Z" fill="black"/>
<path d="M34.911 69.8164H31.0322V73.6952H34.911V69.8164Z" fill="black"/>
<path d="M42.6683 69.8164H38.7896V73.6952H42.6683V69.8164Z" fill="black"/>
<path d="M58.184 69.8164H54.3052V73.6952H58.184V69.8164Z" fill="black"/>
<path d="M62.0629 69.8164H58.1841V73.6952H62.0629V69.8164Z" fill="black"/>
<path d="M69.8202 69.8164H65.9414V73.6952H69.8202V69.8164Z" fill="black"/>
<path d="M73.6991 69.8164H69.8203V73.6952H73.6991V69.8164Z" fill="black"/>
<path d="M77.577 69.8164H73.6982V73.6952H77.577V69.8164Z" fill="black"/>
<path d="M89.2133 69.8164H85.3345V73.6952H89.2133V69.8164Z" fill="black"/>
<path d="M96.972 69.8164H93.0933V73.6952H96.972V69.8164Z" fill="black"/>
<path d="M108.608 69.8164H104.729V73.6952H108.608V69.8164Z" fill="black"/>
<path d="M116.365 69.8164H112.486V73.6952H116.365V69.8164Z" fill="black"/>
<path d="M15.5175 73.6953H11.6387V77.5741H15.5175V73.6953Z" fill="black"/>
<path d="M19.3954 73.6953H15.5166V77.5741H19.3954V73.6953Z" fill="black"/>
<path d="M23.2743 73.6953H19.3955V77.5741H23.2743V73.6953Z" fill="black"/>
<path d="M42.6683 73.6953H38.7896V77.5741H42.6683V73.6953Z" fill="black"/>
<path d="M46.5472 73.6953H42.6685V77.5741H46.5472V73.6953Z" fill="black"/>
<path d="M54.3041 73.6953H50.4253V77.5741H54.3041V73.6953Z" fill="black"/>
<path d="M62.0629 73.6953H58.1841V77.5741H62.0629V73.6953Z" fill="black"/>
<path d="M65.9403 73.6953H62.0615V77.5741H65.9403V73.6953Z" fill="black"/>
<path d="M69.8202 73.6953H65.9414V77.5741H69.8202V73.6953Z" fill="black"/>
<path d="M73.6991 73.6953H69.8203V77.5741H73.6991V73.6953Z" fill="black"/>
<path d="M81.4559 73.6953H77.5771V77.5741H81.4559V73.6953Z" fill="black"/>
<path d="M85.3358 73.6953H81.457V77.5741H85.3358V73.6953Z" fill="black"/>
<path d="M89.2133 73.6953H85.3345V77.5741H89.2133V73.6953Z" fill="black"/>
<path d="M93.0922 73.6953H89.2134V77.5741H93.0922V73.6953Z" fill="black"/>
<path d="M96.972 73.6953H93.0933V77.5741H96.972V73.6953Z" fill="black"/>
<path d="M112.486 73.6953H108.607V77.5741H112.486V73.6953Z" fill="black"/>
<path d="M116.365 73.6953H112.486V77.5741H116.365V73.6953Z" fill="black"/>
<path d="M120.245 73.6953H116.366V77.5741H120.245V73.6953Z" fill="black"/>
<path d="M11.6381 77.5742H7.75928V81.453H11.6381V77.5742Z" fill="black"/>
<path d="M23.2743 77.5742H19.3955V81.453H23.2743V77.5742Z" fill="black"/>
<path d="M27.1537 77.5742H23.2749V81.453H27.1537V77.5742Z" fill="black"/>
<path d="M31.0316 77.5742H27.1528V81.453H31.0316V77.5742Z" fill="black"/>
<path d="M34.911 77.5742H31.0322V81.453H34.911V77.5742Z" fill="black"/>
<path d="M42.6683 77.5742H38.7896V81.453H42.6683V77.5742Z" fill="black"/>
<path d="M46.5472 77.5742H42.6685V81.453H46.5472V77.5742Z" fill="black"/>
<path d="M50.4266 77.5742H46.5479V81.453H50.4266V77.5742Z" fill="black"/>
<path d="M54.3041 77.5742H50.4253V81.453H54.3041V77.5742Z" fill="black"/>
<path d="M62.0629 77.5742H58.1841V81.453H62.0629V77.5742Z" fill="black"/>
<path d="M65.9403 77.5742H62.0615V81.453H65.9403V77.5742Z" fill="black"/>
<path d="M73.6991 77.5742H69.8203V81.453H73.6991V77.5742Z" fill="black"/>
<path d="M77.577 77.5742H73.6982V81.453H77.577V77.5742Z" fill="black"/>
<path d="M85.3358 77.5742H81.457V81.453H85.3358V77.5742Z" fill="black"/>
<path d="M89.2133 77.5742H85.3345V81.453H89.2133V77.5742Z" fill="black"/>
<path d="M93.0922 77.5742H89.2134V81.453H93.0922V77.5742Z" fill="black"/>
<path d="M108.608 77.5742H104.729V81.453H108.608V77.5742Z" fill="black"/>
<path d="M116.365 77.5742H112.486V81.453H116.365V77.5742Z" fill="black"/>
<path d="M120.245 77.5742H116.366V81.453H120.245V77.5742Z" fill="black"/>
<path d="M15.517 81.4531H11.6382V85.3319H15.517V81.4531Z" fill="black"/>
<path d="M19.3954 81.4531H15.5166V85.3319H19.3954V81.4531Z" fill="black"/>
<path d="M31.0316 81.4531H27.1528V85.3319H31.0316V81.4531Z" fill="black"/>
<path d="M38.7899 81.4531H34.9111V85.3319H38.7899V81.4531Z" fill="black"/>
<path d="M46.5472 81.4531H42.6685V85.3319H46.5472V81.4531Z" fill="black"/>
<path d="M50.4266 81.4531H46.5479V85.3319H50.4266V81.4531Z" fill="black"/>
<path d="M69.8202 81.4531H65.9414V85.3319H69.8202V81.4531Z" fill="black"/>
<path d="M81.4559 81.4531H77.5771V85.3319H81.4559V81.4531Z" fill="black"/>
<path d="M89.2133 81.4531H85.3345V85.3319H89.2133V81.4531Z" fill="black"/>
<path d="M96.972 81.4531H93.0933V85.3319H96.972V81.4531Z" fill="black"/>
<path d="M104.729 81.4531H100.85V85.3319H104.729V81.4531Z" fill="black"/>
<path d="M116.365 81.4531H112.486V85.3319H116.365V81.4531Z" fill="black"/>
<path d="M11.6381 85.332H7.75928V89.2108H11.6381V85.332Z" fill="black"/>
<path d="M27.1537 85.332H23.2749V89.2108H27.1537V85.332Z" fill="black"/>
<path d="M31.0316 85.3301H27.1528V89.2089H31.0316V85.3301Z" fill="black"/>
<path d="M34.911 85.332H31.0322V89.2108H34.911V85.332Z" fill="black"/>
<path d="M58.184 85.3301H54.3052V89.2089H58.184V85.3301Z" fill="black"/>
<path d="M65.9403 85.3301H62.0615V89.2089H65.9403V85.3301Z" fill="black"/>
<path d="M85.3358 85.3301H81.457V89.2089H85.3358V85.3301Z" fill="black"/>
<path d="M89.2133 85.332H85.3345V89.2108H89.2133V85.332Z" fill="black"/>
<path d="M93.0922 85.3301H89.2134V89.2089H93.0922V85.3301Z" fill="black"/>
<path d="M96.972 85.3301H93.0933V89.2089H96.972V85.3301Z" fill="black"/>
<path d="M100.849 85.332H96.9707V89.2108H100.849V85.332Z" fill="black"/>
<path d="M104.729 85.3301H100.85V89.2089H104.729V85.3301Z" fill="black"/>
<path d="M108.608 85.3301H104.729V89.2089H108.608V85.3301Z" fill="black"/>
<path d="M116.365 85.332H112.486V89.2108H116.365V85.332Z" fill="black"/>
<path d="M120.245 85.3301H116.366V89.2089H120.245V85.3301Z" fill="black"/>
<path d="M42.6683 89.2109H38.7896V93.0897H42.6683V89.2109Z" fill="black"/>
<path d="M46.5472 89.2109H42.6685V93.0897H46.5472V89.2109Z" fill="black"/>
<path d="M54.3041 89.2109H50.4253V93.0897H54.3041V89.2109Z" fill="black"/>
<path d="M69.8202 89.2109H65.9414V93.0897H69.8202V89.2109Z" fill="black"/>
<path d="M73.6991 89.2109H69.8203V93.0897H73.6991V89.2109Z" fill="black"/>
<path d="M89.2133 89.2109H85.3345V93.0897H89.2133V89.2109Z" fill="black"/>
<path d="M104.729 89.2109H100.85V93.0897H104.729V89.2109Z" fill="black"/>
<path d="M116.365 89.2109H112.486V93.0897H116.365V89.2109Z" fill="black"/>
<path d="M120.245 89.2109H116.366V93.0897H120.245V89.2109Z" fill="black"/>
<path d="M11.6381 93.0898H7.75928V96.9686H11.6381V93.0898Z" fill="black"/>
<path d="M15.517 93.0898H11.6382V96.9686H15.517V93.0898Z" fill="black"/>
<path d="M19.3954 93.0898H15.5166V96.9686H19.3954V93.0898Z" fill="black"/>
<path d="M23.2743 93.0898H19.3955V96.9686H23.2743V93.0898Z" fill="black"/>
<path d="M27.1537 93.0898H23.2749V96.9686H27.1537V93.0898Z" fill="black"/>
<path d="M31.0316 93.0898H27.1528V96.9686H31.0316V93.0898Z" fill="black"/>
<path d="M34.911 93.0898H31.0322V96.9686H34.911V93.0898Z" fill="black"/>
<path d="M50.4266 93.0898H46.5479V96.9686H50.4266V93.0898Z" fill="black"/>
<path d="M54.3041 93.0898H50.4253V96.9686H54.3041V93.0898Z" fill="black"/>
<path d="M62.0629 93.0898H58.1841V96.9686H62.0629V93.0898Z" fill="black"/>
<path d="M77.577 93.0898H73.6982V96.9686H77.577V93.0898Z" fill="black"/>
<path d="M81.4559 93.0898H77.5771V96.9686H81.4559V93.0898Z" fill="black"/>
<path d="M85.3358 93.0898H81.457V96.9686H85.3358V93.0898Z" fill="black"/>
<path d="M89.2133 93.0898H85.3345V96.9686H89.2133V93.0898Z" fill="black"/>
<path d="M96.972 93.0898H93.0933V96.9686H96.972V93.0898Z" fill="black"/>
<path d="M104.729 93.0898H100.85V96.9686H104.729V93.0898Z" fill="black"/>
<path d="M112.486 93.0898H108.607V96.9686H112.486V93.0898Z" fill="black"/>
<path d="M116.365 93.0898H112.486V96.9686H116.365V93.0898Z" fill="black"/>
<path d="M120.245 93.0898H116.366V96.9686H120.245V93.0898Z" fill="black"/>
<path d="M11.6381 96.9688H7.75928V100.848H11.6381V96.9688Z" fill="black"/>
<path d="M34.911 96.9688H31.0322V100.848H34.911V96.9688Z" fill="black"/>
<path d="M42.6683 96.9688H38.7896V100.848H42.6683V96.9688Z" fill="black"/>
<path d="M62.0629 96.9688H58.1841V100.848H62.0629V96.9688Z" fill="black"/>
<path d="M69.8202 96.9688H65.9414V100.848H69.8202V96.9688Z" fill="black"/>
<path d="M73.6991 96.9688H69.8203V100.848H73.6991V96.9688Z" fill="black"/>
<path d="M77.577 96.9688H73.6982V100.848H77.577V96.9688Z" fill="black"/>
<path d="M89.2133 96.9688H85.3345V100.848H89.2133V96.9688Z" fill="black"/>
<path d="M104.729 96.9688H100.85V100.848H104.729V96.9688Z" fill="black"/>
<path d="M116.365 96.9688H112.486V100.848H116.365V96.9688Z" fill="black"/>
<path d="M11.6381 100.846H7.75928V104.724H11.6381V100.846Z" fill="black"/>
<path d="M19.3954 100.846H15.5166V104.724H19.3954V100.846Z" fill="black"/>
<path d="M23.2743 100.846H19.3955V104.724H23.2743V100.846Z" fill="black"/>
<path d="M27.1537 100.846H23.2749V104.724H27.1537V100.846Z" fill="black"/>
<path d="M34.911 100.846H31.0322V104.724H34.911V100.846Z" fill="black"/>
<path d="M42.6683 100.846H38.7896V104.724H42.6683V100.846Z" fill="black"/>
<path d="M46.5472 100.846H42.6685V104.724H46.5472V100.846Z" fill="black"/>
<path d="M50.4266 100.846H46.5479V104.724H50.4266V100.846Z" fill="black"/>
<path d="M65.9403 100.846H62.0615V104.724H65.9403V100.846Z" fill="black"/>
<path d="M73.6991 100.846H69.8203V104.724H73.6991V100.846Z" fill="black"/>
<path d="M77.577 100.846H73.6982V104.724H77.577V100.846Z" fill="black"/>
<path d="M89.2133 100.846H85.3345V104.724H89.2133V100.846Z" fill="black"/>
<path d="M93.0922 100.846H89.2134V104.724H93.0922V100.846Z" fill="black"/>
<path d="M96.972 100.846H93.0933V104.724H96.972V100.846Z" fill="black"/>
<path d="M100.849 100.846H96.9707V104.724H100.849V100.846Z" fill="black"/>
<path d="M104.729 100.846H100.85V104.724H104.729V100.846Z" fill="black"/>
<path d="M108.608 100.846H104.729V104.724H108.608V100.846Z" fill="black"/>
<path d="M120.245 100.846H116.366V104.724H120.245V100.846Z" fill="black"/>
<path d="M11.6381 104.727H7.75928V108.605H11.6381V104.727Z" fill="black"/>
<path d="M19.3954 104.727H15.5166V108.605H19.3954V104.727Z" fill="black"/>
<path d="M23.2743 104.727H19.3955V108.605H23.2743V104.727Z" fill="black"/>
<path d="M27.1537 104.727H23.2749V108.605H27.1537V104.727Z" fill="black"/>
<path d="M34.911 104.727H31.0322V108.605H34.911V104.727Z" fill="black"/>
<path d="M46.5472 104.727H42.6685V108.605H46.5472V104.727Z" fill="black"/>
<path d="M50.4266 104.727H46.5479V108.605H50.4266V104.727Z" fill="black"/>
<path d="M54.3041 104.727H50.4253V108.605H54.3041V104.727Z" fill="black"/>
<path d="M58.184 104.727H54.3052V108.605H58.184V104.727Z" fill="black"/>
<path d="M65.9403 104.727H62.0615V108.605H65.9403V104.727Z" fill="black"/>
<path d="M69.8202 104.727H65.9414V108.605H69.8202V104.727Z" fill="black"/>
<path d="M77.577 104.727H73.6982V108.605H77.577V104.727Z" fill="black"/>
<path d="M81.4559 104.727H77.5771V108.605H81.4559V104.727Z" fill="black"/>
<path d="M89.2133 104.727H85.3345V108.605H89.2133V104.727Z" fill="black"/>
<path d="M93.0922 104.727H89.2134V108.605H93.0922V104.727Z" fill="black"/>
<path d="M104.729 104.727H100.85V108.605H104.729V104.727Z" fill="black"/>
<path d="M108.608 104.727H104.729V108.605H108.608V104.727Z" fill="black"/>
<path d="M11.6381 108.604H7.75928V112.482H11.6381V108.604Z" fill="black"/>
<path d="M19.3954 108.604H15.5166V112.482H19.3954V108.604Z" fill="black"/>
<path d="M23.2743 108.604H19.3955V112.482H23.2743V108.604Z" fill="black"/>
<path d="M27.1537 108.604H23.2749V112.482H27.1537V108.604Z" fill="black"/>
<path d="M34.911 108.604H31.0322V112.482H34.911V108.604Z" fill="black"/>
<path d="M42.6683 108.604H38.7896V112.482H42.6683V108.604Z" fill="black"/>
<path d="M46.5472 108.604H42.6685V112.482H46.5472V108.604Z" fill="black"/>
<path d="M54.3041 108.604H50.4253V112.482H54.3041V108.604Z" fill="black"/>
<path d="M58.184 108.604H54.3052V112.482H58.184V108.604Z" fill="black"/>
<path d="M65.9403 108.604H62.0615V112.482H65.9403V108.604Z" fill="black"/>
<path d="M69.8202 108.604H65.9414V112.482H69.8202V108.604Z" fill="black"/>
<path d="M73.6991 108.604H69.8203V112.482H73.6991V108.604Z" fill="black"/>
<path d="M81.4559 108.604H77.5771V112.482H81.4559V108.604Z" fill="black"/>
<path d="M85.3358 108.604H81.457V112.482H85.3358V108.604Z" fill="black"/>
<path d="M100.849 108.604H96.9707V112.482H100.849V108.604Z" fill="black"/>
<path d="M104.729 108.604H100.85V112.482H104.729V108.604Z" fill="black"/>
<path d="M120.245 108.604H116.366V112.482H120.245V108.604Z" fill="black"/>
<path d="M11.6381 112.484H7.75928V116.363H11.6381V112.484Z" fill="black"/>
<path d="M34.911 112.484H31.0322V116.363H34.911V112.484Z" fill="black"/>
<path d="M46.5472 112.484H42.6685V116.363H46.5472V112.484Z" fill="black"/>
<path d="M58.184 112.484H54.3052V116.363H58.184V112.484Z" fill="black"/>
<path d="M65.9403 112.484H62.0615V116.363H65.9403V112.484Z" fill="black"/>
<path d="M69.8202 112.484H65.9414V116.363H69.8202V112.484Z" fill="black"/>
<path d="M81.4559 112.484H77.5771V116.363H81.4559V112.484Z" fill="black"/>
<path d="M85.3358 112.484H81.457V116.363H85.3358V112.484Z" fill="black"/>
<path d="M96.972 112.484H93.0933V116.363H96.972V112.484Z" fill="black"/>
<path d="M100.849 112.484H96.9707V116.363H100.849V112.484Z" fill="black"/>
<path d="M108.608 112.484H104.729V116.363H108.608V112.484Z" fill="black"/>
<path d="M116.365 112.484H112.486V116.363H116.365V112.484Z" fill="black"/>
<path d="M11.6381 116.361H7.75928V120.24H11.6381V116.361Z" fill="black"/>
<path d="M15.517 116.361H11.6382V120.24H15.517V116.361Z" fill="black"/>
<path d="M19.3954 116.361H15.5166V120.24H19.3954V116.361Z" fill="black"/>
<path d="M23.2743 116.361H19.3955V120.24H23.2743V116.361Z" fill="black"/>
<path d="M27.1537 116.361H23.2749V120.24H27.1537V116.361Z" fill="black"/>
<path d="M31.0316 116.361H27.1528V120.24H31.0316V116.361Z" fill="black"/>
<path d="M34.911 116.361H31.0322V120.24H34.911V116.361Z" fill="black"/>
<path d="M46.5472 116.361H42.6685V120.24H46.5472V116.361Z" fill="black"/>
<path d="M69.8202 116.361H65.9414V120.24H69.8202V116.361Z" fill="black"/>
<path d="M81.4559 116.361H77.5771V120.24H81.4559V116.361Z" fill="black"/>
<path d="M89.2133 116.361H85.3345V120.24H89.2133V116.361Z" fill="black"/>
<path d="M93.0922 116.361H89.2134V120.24H93.0922V116.361Z" fill="black"/>
<path d="M104.729 116.361H100.85V120.24H104.729V116.361Z" fill="black"/>
<path d="M116.365 116.361H112.486V120.24H116.365V116.361Z" fill="black"/>
<path d="M120.245 116.361H116.366V120.24H120.245V116.361Z" fill="black"/>
</g>
<defs>
<clipPath id="clip0_2274_28153">
<rect width="128" height="128" rx="12" fill="white"/>
</clipPath>
</defs>
</svg>
