<svg width="40" height="41" viewBox="0 0 40 41" fill="none" xmlns="http://www.w3.org/2000/svg">
<g filter="url(#filter0_b_2274_23005)">
<circle cx="20" cy="20.5" r="20" fill="white" fill-opacity="0.2"/>
<circle cx="20" cy="20.5" r="19.5312" stroke="url(#paint0_linear_2274_23005)" stroke-width="0.9375"/>
</g>
<path d="M30.9254 26.4011L27.3491 30.2357C27.2718 30.319 27.1781 30.3855 27.0739 30.4309C26.9697 30.4764 26.8573 30.5 26.7436 30.5001H9.79052C9.70966 30.5 9.63057 30.4764 9.56294 30.4321C9.4953 30.3878 9.44205 30.3247 9.40971 30.2506C9.37736 30.1765 9.36733 30.0946 9.38084 30.0149C9.39435 29.9351 9.43082 29.8611 9.48577 29.8018L13.058 25.9671C13.1354 25.8838 13.2291 25.8174 13.3332 25.7719C13.4374 25.7264 13.5498 25.7029 13.6635 25.7027H30.6166C30.6982 25.7011 30.7785 25.7235 30.8473 25.7674C30.9162 25.8112 30.9705 25.8744 31.0035 25.9491C31.0366 26.0237 31.0467 26.1065 31.0328 26.1869C31.0189 26.2673 30.9816 26.3418 30.9254 26.4011ZM27.3491 18.6773C27.2714 18.5944 27.1777 18.5282 27.0736 18.4827C26.9695 18.4373 26.8572 18.4135 26.7436 18.4129H9.79052C9.70966 18.413 9.63057 18.4366 9.56294 18.4809C9.4953 18.5252 9.44205 18.5883 9.40971 18.6624C9.37736 18.7365 9.36733 18.8184 9.38084 18.8981C9.39435 18.9778 9.43082 19.0519 9.48577 19.1112L13.058 22.9479C13.1357 23.0308 13.2294 23.097 13.3335 23.1424C13.4376 23.1879 13.5499 23.2117 13.6635 23.2123H30.6166C30.6973 23.2118 30.7761 23.1879 30.8434 23.1435C30.9108 23.099 30.9637 23.0359 30.9958 22.9619C31.0279 22.8878 31.0378 22.8061 31.0242 22.7265C31.0106 22.647 30.9742 22.5731 30.9193 22.5139L27.3491 18.6773ZM9.79052 15.9224H26.7436C26.8573 15.9223 26.9697 15.8988 27.0739 15.8533C27.1781 15.8078 27.2718 15.7413 27.3491 15.658L30.9254 11.8234C30.9673 11.7791 30.9989 11.726 31.018 11.6681C31.037 11.6101 31.043 11.5487 31.0356 11.4881C31.0281 11.4276 31.0074 11.3694 30.9748 11.3179C30.9423 11.2663 30.8987 11.2225 30.8473 11.1897C30.7784 11.1459 30.6982 11.1234 30.6166 11.1251H13.6635C13.5498 11.1252 13.4374 11.1487 13.3332 11.1942C13.2291 11.2397 13.1354 11.3062 13.058 11.3895L9.48577 15.2241C9.43082 15.2834 9.39435 15.3575 9.38084 15.4372C9.36733 15.5169 9.37736 15.5988 9.40971 15.673C9.44205 15.7471 9.4953 15.8101 9.56294 15.8544C9.63057 15.8987 9.70966 15.9224 9.79052 15.9224Z" fill="url(#paint1_linear_2274_23005)"/>
<defs>
<filter id="filter0_b_2274_23005" x="-12.8" y="-12.3" width="65.6" height="65.6" filterUnits="userSpaceOnUse" color-interpolation-filters="sRGB">
<feFlood flood-opacity="0" result="BackgroundImageFix"/>
<feGaussianBlur in="BackgroundImageFix" stdDeviation="6.4"/>
<feComposite in2="SourceAlpha" operator="in" result="effect1_backgroundBlur_2274_23005"/>
<feBlend mode="normal" in="SourceGraphic" in2="effect1_backgroundBlur_2274_23005" result="shape"/>
</filter>
<linearGradient id="paint0_linear_2274_23005" x1="0" y1="20.5" x2="40" y2="20.5" gradientUnits="userSpaceOnUse">
<stop stop-color="#F4DFB2"/>
<stop offset="1" stop-color="#DCB37B"/>
</linearGradient>
<linearGradient id="paint1_linear_2274_23005" x1="9.375" y1="20.8125" x2="31.0389" y2="20.8125" gradientUnits="userSpaceOnUse">
<stop stop-color="#F4DFB2"/>
<stop offset="1" stop-color="#DCB37B"/>
</linearGradient>
</defs>
</svg>
