<svg width="16" height="16" viewBox="0 0 16 16" fill="none" xmlns="http://www.w3.org/2000/svg">
<path fill-rule="evenodd" clip-rule="evenodd" d="M5.33331 3.33331C5.33331 2.22874 6.22874 1.33331 7.33331 1.33331H12.6666C13.7712 1.33331 14.6666 2.22874 14.6666 3.33331V8.66665C14.6666 9.77122 13.7712 10.6666 12.6666 10.6666C12.2985 10.6666 12 10.3682 12 9.99998C12 9.63179 12.2985 9.33331 12.6666 9.33331C13.0348 9.33331 13.3333 9.03484 13.3333 8.66665V3.33331C13.3333 2.96512 13.0348 2.66665 12.6666 2.66665H7.33331C6.96512 2.66665 6.66665 2.96512 6.66665 3.33331C6.66665 3.7015 6.36817 3.99998 5.99998 3.99998C5.63179 3.99998 5.33331 3.7015 5.33331 3.33331ZM1.33331 7.33331C1.33331 6.22874 2.22874 5.33331 3.33331 5.33331H8.66665C9.77122 5.33331 10.6666 6.22874 10.6666 7.33331V12.6666C10.6666 13.7712 9.77122 14.6666 8.66665 14.6666H3.33331C2.22874 14.6666 1.33331 13.7712 1.33331 12.6666V7.33331ZM3.33331 6.66665C2.96512 6.66665 2.66665 6.96512 2.66665 7.33331V12.6666C2.66665 13.0348 2.96512 13.3333 3.33331 13.3333H8.66665C9.03484 13.3333 9.33331 13.0348 9.33331 12.6666V7.33331C9.33331 6.96512 9.03484 6.66665 8.66665 6.66665H3.33331Z" fill="url(#paint0_linear_2434_33435)"/>
<defs>
<linearGradient id="paint0_linear_2434_33435" x1="2.57362" y1="14.2015" x2="16.0555" y2="2.7222" gradientUnits="userSpaceOnUse">
<stop stop-color="#9E8BFF"/>
<stop offset="1" stop-color="#CB8FFF"/>
</linearGradient>
</defs>
</svg>
