<svg width="25" height="24" viewBox="0 0 25 24" fill="none" xmlns="http://www.w3.org/2000/svg">
<path d="M7.61739 14.9516L8.02479 14.957C11.1716 15.0221 13.1778 15.9033 13.8307 17.0361C14.0366 17.392 14.1522 17.8326 14.194 18.3708L14.2084 18.6084L14.2128 18.8504V20.2567C14.2128 20.6672 13.8751 21 13.4585 21C13.042 21 12.7043 20.6672 12.7043 20.2567V18.8645L12.6999 18.6518C12.6845 18.2525 12.6206 17.9726 12.5292 17.8141C12.1989 17.239 10.7863 16.6031 8.31217 16.5033L7.99726 16.4946L7.61739 16.4881L7.21991 16.4946C5.77531 16.5239 4.64562 16.7334 3.81102 17.0697C3.29572 17.2781 2.94338 17.5146 2.77712 17.6915L2.72317 17.7555L2.68353 17.8141C2.58994 17.9769 2.52607 18.2623 2.51176 18.6692L2.50956 18.8504V20.2562C2.50956 20.667 2.17163 21 1.75478 21C1.33793 21 1 20.667 1 20.2562V18.8515C1 18.1928 1.08809 17.6492 1.30499 17.1891L1.40629 16.997L1.49328 16.8668C2.24751 15.8414 4.05875 15.0818 6.84114 14.9679L7.19348 14.957L7.61739 14.9516ZM7.60638 6.89362C9.39341 6.89362 10.8413 8.36828 10.8413 10.1869V11.285C10.8413 13.1048 9.39341 14.5794 7.60638 14.5794C5.82046 14.5794 4.37256 13.1037 4.37256 11.285V10.1869C4.37256 8.36936 5.82046 6.89362 7.60638 6.89362ZM7.60638 8.43121C6.65396 8.43121 5.88212 9.21683 5.88212 10.1869V11.285C5.88212 12.2551 6.65396 13.0429 7.60638 13.0429C8.5599 13.0429 9.33175 12.2551 9.33175 11.285V10.1869C9.33175 9.21683 8.5599 8.43121 7.60638 8.43121Z" fill="url(#paint0_linear_2434_33430)"/>
<path d="M17.4046 12.058L17.812 12.0634C20.9589 12.1285 22.965 13.0096 23.6179 14.1425C23.8238 14.4984 23.9394 14.939 23.9813 15.4772L23.9956 15.7148L24 15.9568V17.3631C24 17.7736 23.6623 18.1064 23.2458 18.1064C22.8292 18.1064 22.4915 17.7736 22.4915 17.3631V15.9709L22.4871 15.7582C22.4717 15.3589 22.4079 15.0789 22.3165 14.9205C21.9862 14.3454 20.5735 13.7095 18.0994 13.6097L17.7845 13.601L17.4046 13.5945L17.0071 13.601C15.5625 13.6303 14.4329 13.8397 13.5982 14.1761C13.083 14.3845 12.7306 14.621 12.5644 14.7979L12.5104 14.8619L12.4708 14.9205C12.3772 15.0833 12.3133 15.3687 12.299 15.7756L12.2968 15.9568C12.2968 16.2783 12.0323 16.539 11.706 16.539H11.3769C11.0512 16.539 10.7872 16.2788 10.7872 15.9579C10.7872 15.2992 10.8753 14.7556 11.0922 14.2955L11.1935 14.1034L11.2805 13.9732C12.0347 12.9478 13.846 12.1882 16.6284 12.0743L16.9807 12.0634L17.4046 12.058ZM17.3936 4C19.1806 4 20.6285 5.47466 20.6285 7.2933V8.39143C20.6285 10.2111 19.1806 11.6858 17.3936 11.6858C15.6077 11.6858 14.1598 10.2101 14.1598 8.39143V7.2933C14.1598 5.47574 15.6077 4 17.3936 4ZM17.3936 5.5376C16.4412 5.5376 15.6694 6.32321 15.6694 7.2933V8.39143C15.6694 9.36151 16.4412 10.1493 17.3936 10.1493C18.3471 10.1493 19.119 9.36151 19.119 8.39143V7.2933C19.119 6.32321 18.3471 5.5376 17.3936 5.5376Z" fill="url(#paint1_linear_2434_33430)"/>
<defs>
<linearGradient id="paint0_linear_2434_33430" x1="3.13953" y1="20.407" x2="20.3789" y2="0.547658" gradientUnits="userSpaceOnUse">
<stop stop-color="#9E8BFF"/>
<stop offset="1" stop-color="#CB8FFF"/>
</linearGradient>
<linearGradient id="paint1_linear_2434_33430" x1="3.13953" y1="20.407" x2="20.3789" y2="0.547658" gradientUnits="userSpaceOnUse">
<stop stop-color="#9E8BFF"/>
<stop offset="1" stop-color="#CB8FFF"/>
</linearGradient>
</defs>
</svg>
