<svg width="17" height="16" viewBox="0 0 17 16" fill="none" xmlns="http://www.w3.org/2000/svg">
<path d="M8.5 0C7.76118 0 7.02242 0.161234 6.33789 0.483398C6.27843 0.511346 6.22506 0.550732 6.18083 0.599307C6.1366 0.647883 6.10237 0.704697 6.08009 0.766504C6.05782 0.828311 6.04794 0.8939 6.05102 0.959525C6.0541 1.02515 6.07007 1.08953 6.09803 1.14898C6.126 1.20843 6.1654 1.26179 6.21398 1.30601C6.26257 1.35023 6.31939 1.38445 6.3812 1.40671C6.44301 1.42896 6.50861 1.43883 6.57423 1.43573C6.63986 1.43264 6.70423 1.41665 6.76367 1.38867C7.86361 0.871001 9.13639 0.871001 10.2363 1.38867C10.2958 1.41665 10.3601 1.43264 10.4258 1.43573C10.4914 1.43883 10.557 1.42896 10.6188 1.40671C10.6806 1.38445 10.7374 1.35023 10.786 1.30601C10.8346 1.26179 10.874 1.20843 10.902 1.14898C10.9299 1.08953 10.9459 1.02515 10.949 0.959525C10.9521 0.8939 10.9422 0.828311 10.9199 0.766504C10.8976 0.704697 10.8634 0.647883 10.8192 0.599307C10.7749 0.550732 10.7216 0.511346 10.6621 0.483398C9.97758 0.161234 9.23882 0 8.5 0ZM8.5 1.93652C5.4683 1.93652 3 4.40482 3 7.43652C3 10.4682 5.4683 12.9365 8.5 12.9365C11.5317 12.9365 14 10.4682 14 7.43652C14 6.10023 13.5196 4.87417 12.7236 3.91992L13.1357 3.50781C13.208 3.43758 13.2573 3.34716 13.2773 3.2484C13.2973 3.14964 13.287 3.04715 13.2477 2.95436C13.2084 2.86156 13.1421 2.7828 13.0572 2.72838C12.9724 2.67397 12.8732 2.64644 12.7725 2.64941C12.6426 2.65328 12.5193 2.70757 12.4287 2.80078L12.0166 3.21289C11.0624 2.41693 9.83629 1.93652 8.5 1.93652ZM8.5 2.93652C10.9913 2.93652 13 4.94523 13 7.43652C13 9.92782 10.9913 11.9365 8.5 11.9365C6.0087 11.9365 4 9.92782 4 7.43652C4 4.94523 6.0087 2.93652 8.5 2.93652ZM8.49219 4.45117C8.35975 4.45324 8.23354 4.50777 8.14127 4.60279C8.04899 4.69782 7.99819 4.82557 8 4.95801V6.5752C7.70218 6.74833 7.5 7.06705 7.5 7.43652C7.5 7.98902 7.9475 8.43652 8.5 8.43652C9.0525 8.43652 9.5 7.98902 9.5 7.43652C9.5 7.06705 9.29782 6.74833 9 6.5752V4.95801C9.00092 4.89111 8.9884 4.82471 8.96319 4.76274C8.93798 4.70077 8.9006 4.64449 8.85324 4.59723C8.80589 4.54997 8.74954 4.51269 8.68752 4.4876C8.6255 4.46252 8.55908 4.45013 8.49219 4.45117Z" fill="white" fill-opacity="0.4"/>
</svg>
