<svg width="49" height="48" viewBox="0 0 49 48" fill="none" xmlns="http://www.w3.org/2000/svg">
<path d="M34.353 23.736V25.9387L27.9371 19.5228L27.9363 19.522C27.6412 19.2287 27.242 19.064 26.826 19.064C26.4099 19.064 26.0107 19.2287 25.7156 19.522L25.7148 19.5228L21.768 23.4697L15.4451 17.1468C15.1488 16.8505 14.747 16.6841 14.328 16.6841C13.9089 16.6841 13.5071 16.8505 13.2108 17.1468C12.9145 17.4431 12.748 17.845 12.748 18.264C12.748 18.683 12.9145 19.0849 13.2108 19.3812L20.6508 26.8212L20.6516 26.8219C20.9467 27.1153 21.3459 27.2799 21.762 27.2799C22.1781 27.2799 22.5772 27.1153 22.8723 26.8219L22.8731 26.8212L26.82 22.8743L32.1186 28.173H29.928C29.5102 28.173 29.1096 28.3389 28.8143 28.6343C28.5189 28.9297 28.353 29.3303 28.353 29.748C28.353 30.1657 28.5189 30.5663 28.8143 30.8617C29.1096 31.1571 29.5102 31.323 29.928 31.323H35.928C36.3457 31.323 36.7463 31.1571 37.0417 30.8617C37.337 30.5663 37.503 30.1657 37.503 29.748V23.7497C37.5048 23.5422 37.4656 23.3365 37.3876 23.1442C37.3094 22.9513 37.1937 22.7758 37.0472 22.6279L36.7808 22.8917L37.0472 22.6279C36.9008 22.4799 36.7264 22.3625 36.5343 22.2824C36.3422 22.2022 36.1361 22.161 35.928 22.161C35.5102 22.161 35.1096 22.3269 34.8143 22.6223C34.5189 22.9177 34.353 23.3183 34.353 23.736Z" fill="#FF4D7F" stroke="#FF4D7F" stroke-width="0.75"/>
</svg>
