<svg width="48" height="48" viewBox="0 0 48 48" fill="none" xmlns="http://www.w3.org/2000/svg">
<path fill-rule="evenodd" clip-rule="evenodd" d="M22.2886 15.2375L24.166 13.4224C24.3522 13.2435 24.6041 13.143 24.8667 13.143C25.1293 13.143 25.3812 13.2435 25.5674 13.4224L25.5682 13.4232L27.0402 14.8463L28.5121 16.2693V15.63C28.5121 15.3752 28.6168 15.1308 28.8032 14.9506C28.9896 14.7704 29.2424 14.6691 29.506 14.6691M22.2886 15.2375L19.201 12.2524C19.0141 12.0717 18.7607 11.9702 18.4964 11.9702C18.2322 11.9702 17.9787 12.0717 17.7918 12.2524C17.605 12.433 17.5 12.6781 17.5 12.9336C17.5 13.189 17.605 13.4341 17.7918 13.6147L21.584 17.281L21.5849 17.2818C21.7711 17.4608 22.023 17.5612 22.2856 17.5612C22.5482 17.5612 22.8001 17.4608 22.9863 17.2818L24.8637 15.4668L27.103 17.6317H26.4478C26.1842 17.6317 25.9314 17.7329 25.745 17.9132C25.5586 18.0934 25.4539 18.3378 25.4539 18.5926C25.4539 18.8475 25.5586 19.0919 25.745 19.2721C25.9314 19.4523 26.1842 19.5535 26.4478 19.5535H29.506C29.7697 19.5535 30.0225 19.4523 30.2089 19.2721C30.3953 19.0919 30.5 18.8475 30.5 18.5926V15.6375C30.501 15.5113 30.4763 15.386 30.4272 15.269C30.3778 15.1513 30.3048 15.0442 30.2124 14.954C30.1199 14.8637 30.0099 14.7921 29.8887 14.7432C29.7675 14.6943 29.6374 14.6691 29.506 14.6691" fill="#E32D4F"/>
<path d="M21.4851 36.2617L19.9031 33.8677L19.1751 32.8597L16.2351 28.8277H18.9371L20.4771 31.1237L21.2471 32.2017L24.1591 36.2617H21.4851ZM16.1651 36.2617L19.1611 32.1037L20.3651 33.5457L18.8251 36.2617H16.1651ZM21.1071 33.0277L19.9031 31.5857L21.3731 28.8277H24.0191L21.1071 33.0277ZM25.271 36.2617L24.795 35.0857L27.609 31.9777C27.777 31.8004 27.9543 31.5997 28.141 31.3757C28.3277 31.1517 28.505 30.9231 28.673 30.6897C28.8503 30.4471 28.9903 30.2137 29.093 29.9897C29.205 29.7657 29.261 29.5651 29.261 29.3877C29.261 29.2011 29.219 29.0377 29.135 28.8977C29.0603 28.7577 28.9437 28.6504 28.785 28.5757C28.6357 28.4917 28.4397 28.4497 28.197 28.4497C27.9917 28.4497 27.791 28.5057 27.595 28.6177C27.399 28.7297 27.2123 28.8977 27.035 29.1217C26.867 29.3364 26.7083 29.6117 26.559 29.9477L24.795 28.9677C24.991 28.4264 25.2663 27.9504 25.621 27.5397C25.985 27.1291 26.4097 26.8071 26.895 26.5737C27.3803 26.3404 27.8983 26.2284 28.449 26.2377C29.0277 26.2377 29.5457 26.3591 30.003 26.6017C30.4697 26.8444 30.8383 27.1804 31.109 27.6097C31.389 28.0297 31.529 28.5244 31.529 29.0937C31.529 29.3457 31.4917 29.6071 31.417 29.8777C31.3517 30.1484 31.2397 30.4377 31.081 30.7457C30.9317 31.0444 30.731 31.3664 30.479 31.7117C30.227 32.0571 29.919 32.4304 29.555 32.8317L27.385 35.1977L27.091 34.1477H31.963V36.2617H25.271Z" fill="#E32D4F"/>
</svg>
