<svg width="48" height="48" viewBox="0 0 48 48" fill="none" xmlns="http://www.w3.org/2000/svg">
<path fill-rule="evenodd" clip-rule="evenodd" d="M22.2886 16.286L24.166 18.101C24.3522 18.28 24.6041 18.3804 24.8667 18.3804C25.1293 18.3804 25.3812 18.28 25.5674 18.101L25.5682 18.1002L27.0402 16.6772L28.5121 15.2541V15.8934C28.5121 16.1482 28.6168 16.3927 28.8032 16.5729C28.9896 16.7531 29.2424 16.8543 29.506 16.8543M22.2886 16.286L19.201 19.2711C19.0141 19.4517 18.7607 19.5532 18.4964 19.5532C18.2322 19.5532 17.9787 19.4517 17.7918 19.2711C17.605 19.0904 17.5 18.8454 17.5 18.5899C17.5 18.3344 17.605 18.0894 17.7918 17.9087L21.584 14.2424L21.5849 14.2416C21.7711 14.0627 22.023 13.9622 22.2856 13.9622C22.5482 13.9622 22.8001 14.0627 22.9863 14.2416L24.8637 16.0567L27.103 13.8917H26.4478C26.1842 13.8917 25.9314 13.7905 25.745 13.6103C25.5586 13.4301 25.4539 13.1857 25.4539 12.9308C25.4539 12.676 25.5586 12.4315 25.745 12.2513C25.9314 12.0711 26.1842 11.9699 26.4478 11.9699H29.506C29.7697 11.9699 30.0225 12.0711 30.2089 12.2513C30.3953 12.4315 30.5 12.676 30.5 12.9308V15.8859C30.501 16.0122 30.4763 16.1374 30.4272 16.2545C30.3778 16.3722 30.3048 16.4792 30.2124 16.5695C30.1199 16.6597 30.0099 16.7314 29.8887 16.7803C29.7675 16.8292 29.6374 16.8543 29.506 16.8543" fill="#FF9E44"/>
<path d="M21.4851 36.2617L19.9031 33.8677L19.1751 32.8597L16.2351 28.8277H18.9371L20.4771 31.1237L21.2471 32.2017L24.1591 36.2617H21.4851ZM16.1651 36.2617L19.1611 32.1037L20.3651 33.5457L18.8251 36.2617H16.1651ZM21.1071 33.0277L19.9031 31.5857L21.3731 28.8277H24.0191L21.1071 33.0277ZM25.271 36.2617L24.795 35.0857L27.609 31.9777C27.777 31.8004 27.9543 31.5997 28.141 31.3757C28.3277 31.1517 28.505 30.9231 28.673 30.6897C28.8503 30.4471 28.9903 30.2137 29.093 29.9897C29.205 29.7657 29.261 29.5651 29.261 29.3877C29.261 29.2011 29.219 29.0377 29.135 28.8977C29.0603 28.7577 28.9437 28.6504 28.785 28.5757C28.6357 28.4917 28.4397 28.4497 28.197 28.4497C27.9917 28.4497 27.791 28.5057 27.595 28.6177C27.399 28.7297 27.2123 28.8977 27.035 29.1217C26.867 29.3364 26.7083 29.6117 26.559 29.9477L24.795 28.9677C24.991 28.4264 25.2663 27.9504 25.621 27.5397C25.985 27.1291 26.4097 26.8071 26.895 26.5737C27.3803 26.3404 27.8983 26.2284 28.449 26.2377C29.0277 26.2377 29.5457 26.3591 30.003 26.6017C30.4697 26.8444 30.8383 27.1804 31.109 27.6097C31.389 28.0297 31.529 28.5244 31.529 29.0937C31.529 29.3457 31.4917 29.6071 31.417 29.8777C31.3517 30.1484 31.2397 30.4377 31.081 30.7457C30.9317 31.0444 30.731 31.3664 30.479 31.7117C30.227 32.0571 29.919 32.4304 29.555 32.8317L27.385 35.1977L27.091 34.1477H31.963V36.2617H25.271Z" fill="#FF9E44"/>
</svg>
