<svg width="49" height="48" viewBox="0 0 49 48" fill="none" xmlns="http://www.w3.org/2000/svg">
<path d="M31.6181 19.8268L26.3195 25.1254L22.3726 21.1786L22.3718 21.1778C22.0767 20.8845 21.6776 20.7198 21.2615 20.7198C20.8454 20.7198 20.4462 20.8845 20.1511 21.1778L20.1503 21.1786L12.7103 28.6186C12.414 28.9149 12.2476 29.3167 12.2476 29.7358C12.2476 30.1548 12.414 30.5566 12.7103 30.8529C13.0066 31.1492 13.4085 31.3157 13.8275 31.3157C14.2465 31.3157 14.6483 31.1492 14.9446 30.8529L21.2675 24.5301L25.2143 28.4769L25.2151 28.4777C25.5102 28.7711 25.9094 28.9357 26.3255 28.9357C26.7416 28.9357 27.1407 28.7711 27.4358 28.4777L27.4366 28.4769L33.8525 22.0611V24.2638C33.8525 24.6815 34.0184 25.0821 34.3138 25.3774C34.6091 25.6728 35.0098 25.8388 35.4275 25.8388C35.6356 25.8388 35.8417 25.7975 36.0338 25.7174C36.226 25.6372 36.4003 25.5198 36.5467 25.3719L36.296 25.1236L36.5467 25.3719C36.6932 25.224 36.8089 25.0485 36.8871 24.8556C36.9651 24.6633 37.0043 24.4575 37.0025 24.25V18.2518C37.0025 17.834 36.8365 17.4334 36.5412 17.1381C36.2458 16.8427 35.8452 16.6768 35.4275 16.6768H29.4275C29.0098 16.6768 28.6091 16.8427 28.3138 17.1381L28.5789 17.4032L28.3138 17.1381C28.0184 17.4334 27.8525 17.834 27.8525 18.2518C27.8525 18.6695 28.0184 19.0701 28.3138 19.3655L28.5789 19.1003L28.3138 19.3655C28.6091 19.6608 29.0098 19.8268 29.4275 19.8268H31.6181Z" fill="#25EC7A" stroke="#25EC7A" stroke-width="0.75"/>
</svg>
