<svg width="16" height="17" viewBox="0 0 16 17" fill="none" xmlns="http://www.w3.org/2000/svg">
<path d="M8 1.56348C7.26118 1.56348 6.52242 1.72471 5.83789 2.04688C5.77843 2.07482 5.72506 2.11421 5.68083 2.16278C5.6366 2.21136 5.60237 2.26817 5.58009 2.32998C5.55782 2.39179 5.54794 2.45738 5.55102 2.523C5.5541 2.58863 5.57007 2.653 5.59803 2.71245C5.626 2.7719 5.6654 2.82526 5.71398 2.86949C5.76257 2.91371 5.81939 2.94792 5.8812 2.97018C5.94301 2.99244 6.00861 3.00231 6.07423 2.99921C6.13986 2.99612 6.20423 2.98012 6.26367 2.95215C7.36361 2.43448 8.63639 2.43448 9.73633 2.95215C9.79577 2.98012 9.86014 2.99612 9.92577 2.99921C9.99139 3.00231 10.057 2.99244 10.1188 2.97018C10.1806 2.94792 10.2374 2.91371 10.286 2.86949C10.3346 2.82526 10.374 2.7719 10.402 2.71245C10.4299 2.653 10.4459 2.58863 10.449 2.523C10.4521 2.45738 10.4422 2.39179 10.4199 2.32998C10.3976 2.26817 10.3634 2.21136 10.3192 2.16278C10.2749 2.11421 10.2216 2.07482 10.1621 2.04688C9.47758 1.72471 8.73882 1.56348 8 1.56348ZM8 3.5C4.9683 3.5 2.5 5.9683 2.5 9C2.5 12.0317 4.9683 14.5 8 14.5C11.0317 14.5 13.5 12.0317 13.5 9C13.5 7.66371 13.0196 6.43765 12.2236 5.4834L12.6357 5.07129C12.708 5.00106 12.7573 4.91064 12.7773 4.81188C12.7973 4.71312 12.787 4.61063 12.7477 4.51783C12.7084 4.42504 12.6421 4.34628 12.5572 4.29186C12.4724 4.23745 12.3732 4.20992 12.2725 4.21289C12.1426 4.21676 12.0193 4.27105 11.9287 4.36426L11.5166 4.77637C10.5624 3.98041 9.33629 3.5 8 3.5ZM8 4.5C10.4913 4.5 12.5 6.5087 12.5 9C12.5 11.4913 10.4913 13.5 8 13.5C5.5087 13.5 3.5 11.4913 3.5 9C3.5 6.5087 5.5087 4.5 8 4.5ZM7.99219 6.01465C7.85975 6.01672 7.73354 6.07125 7.64127 6.16627C7.54899 6.26129 7.49819 6.38904 7.5 6.52148V8.13867C7.20218 8.31181 7 8.63053 7 9C7 9.5525 7.4475 10 8 10C8.5525 10 9 9.5525 9 9C9 8.63053 8.79782 8.31181 8.5 8.13867V6.52148C8.50092 6.45459 8.4884 6.38819 8.46319 6.32622C8.43798 6.26425 8.4006 6.20797 8.35324 6.16071C8.30589 6.11345 8.24954 6.07617 8.18752 6.05108C8.1255 6.02599 8.05908 6.0136 7.99219 6.01465Z" fill="#72638E"/>
</svg>
