<svg width="24" height="24" viewBox="0 0 24 24" fill="none" xmlns="http://www.w3.org/2000/svg">
<path d="M5.59993 3.19993C5.39523 3.19993 5.19031 3.27791 5.03431 3.43431L3.43431 5.03431C3.12151 5.34711 3.12151 5.85356 3.43431 6.16556L9.26868 11.9999L3.43431 17.8343C3.12151 18.1471 3.12151 18.6536 3.43431 18.9656L5.03431 20.5656C5.34711 20.8784 5.85356 20.8784 6.16556 20.5656L11.9999 14.7312L17.8343 20.5656C18.1463 20.8784 18.6536 20.8784 18.9656 20.5656L20.5656 18.9656C20.8784 18.6528 20.8784 18.1463 20.5656 17.8343L14.7312 11.9999L20.5656 6.16556C20.8784 5.85356 20.8784 5.34631 20.5656 5.03431L18.9656 3.43431C18.6528 3.12151 18.1463 3.12151 17.8343 3.43431L11.9999 9.26868L6.16556 3.43431C6.00916 3.27791 5.80463 3.19993 5.59993 3.19993Z" fill="#4C4382"/>
</svg>
