<svg width="24" height="14" viewBox="0 0 24 14" fill="none" xmlns="http://www.w3.org/2000/svg">
<path fill-rule="evenodd" clip-rule="evenodd" d="M8.84054 6.03184L12.3065 2.68102C12.6503 2.35061 13.1153 2.16516 13.6001 2.16516C14.0849 2.16516 14.5499 2.35061 14.8937 2.68103L14.8952 2.68246L17.6126 5.30965L20.3301 7.93685V6.7566C20.3301 6.28611 20.5234 5.83488 20.8675 5.50219C21.2116 5.16951 21.6783 4.98261 22.165 4.9826M8.84054 6.03184L3.14032 0.520902C2.79534 0.187374 2.32744 0 1.83956 0C1.35168 0 0.883777 0.187374 0.538794 0.520902C0.19381 0.85443 0 1.30679 0 1.77847C0 2.25015 0.19381 2.70251 0.538794 3.03604L7.53978 9.80455L7.54127 9.80598C7.88507 10.1364 8.35014 10.3219 8.8349 10.3219C9.31966 10.3219 9.78473 10.1364 10.1285 9.80599L13.5944 6.45517L17.7285 10.452H16.519C16.0324 10.452 15.5657 10.6389 15.2216 10.9716C14.8774 11.3043 14.6841 11.7555 14.6841 12.226C14.6841 12.6965 14.8774 13.1477 15.2216 13.4804C15.5657 13.8131 16.0324 14 16.519 14H22.165C22.6517 14 23.1184 13.8131 23.4625 13.4804C23.8066 13.1477 23.9999 12.6965 23.9999 12.226V6.77044C24.0018 6.53731 23.9562 6.30609 23.8655 6.09001C23.7744 5.87272 23.6396 5.67506 23.469 5.50845C23.2984 5.34183 23.0953 5.20957 22.8714 5.11931C22.6476 5.02906 22.4075 4.98259 22.165 4.9826" fill="#FF4D7F"/>
</svg>
