<svg width="65" height="65" viewBox="0 0 65 65" fill="none" xmlns="http://www.w3.org/2000/svg">
<path d="M49.5 19.5C44.9 15.1 39.3 12.7 32.5 12.5C25.7 12.7 20.1 15.1 15.5 19.5C10.9 23.9 8.7 29.7 8.5 36.5C8.7 43.3 11.1 48.9 15.5 53.5C19.9 58.1 25.7 60.3 32.5 60.5C39.3 60.3 44.9 57.9 49.5 53.5C54.1 49.1 56.3 43.3 56.5 36.5C56.3 29.7 53.9 24.1 49.5 19.5ZM46.7 50.7C42.9 54.5 38.1 56.3 32.5 56.5C26.9 56.3 22.1 54.5 18.3 50.7C14.5 46.9 12.7 42.1 12.5 36.5C12.7 30.9 14.5 26.1 18.3 22.3C22.1 18.5 26.9 16.7 32.5 16.5C38.1 16.7 42.9 18.5 46.7 22.3C50.5 26.1 52.5 30.7 52.5 36.5C52.3 42.1 50.5 46.9 46.7 50.7Z" fill="url(#paint0_linear_435_19774)"/>
<path d="M32.5 20.5C33.1 20.5 33.5 20.7 33.9 21.1C34.3 21.5 34.5 21.9 34.5 22.5V36.5C34.5 37.1 34.3 37.5 33.9 37.9C33.5 38.3 33.1 38.5 32.5 38.5C31.9 38.5 31.5 38.3 31.1 37.9C30.7 37.5 30.5 37.1 30.5 36.5V22.5C30.5 21.9 30.7 21.5 31.1 21.1C31.5 20.7 31.9 20.5 32.5 20.5Z" fill="url(#paint1_linear_435_19774)"/>
<path d="M28.5 36.5C28.5 37.7 28.9 38.5 29.7 39.3C30.5 40.1 31.3 40.5 32.5 40.5C33.7 40.5 34.5 40.1 35.3 39.3C36.1 38.5 36.5 37.7 36.5 36.5C36.5 35.3 36.1 34.5 35.3 33.7C34.5 32.9 33.7 32.5 32.5 32.5C31.3 32.5 30.5 32.9 29.7 33.7C28.9 34.5 28.5 35.3 28.5 36.5ZM34.5 8.5V16.5H30.5V8.5H24.5C23.9 8.5 23.5 8.3 23.1 7.9C22.7 7.5 22.5 7.1 22.5 6.5C22.5 5.9 22.7 5.5 23.1 5.1C23.5 4.7 23.9 4.5 24.5 4.5H40.5C41.1 4.5 41.5 4.7 41.9 5.1C42.3 5.5 42.5 5.9 42.5 6.5C42.5 7.1 42.3 7.5 41.9 7.9C41.5 8.3 41.1 8.5 40.5 8.5H34.5Z" fill="url(#paint2_linear_435_19774)"/>
<defs>
<linearGradient id="paint0_linear_435_19774" x1="8.50001" y1="60.5" x2="0.271059" y2="25.856" gradientUnits="userSpaceOnUse">
<stop stop-color="#806BFF"/>
<stop offset="1" stop-color="#FF8BF3"/>
</linearGradient>
<linearGradient id="paint1_linear_435_19774" x1="30.5" y1="38.5" x2="23.653" y2="32.0942" gradientUnits="userSpaceOnUse">
<stop stop-color="#806BFF"/>
<stop offset="1" stop-color="#FF8BF3"/>
</linearGradient>
<linearGradient id="paint2_linear_435_19774" x1="22.5" y1="40.5" x2="12.5779" y2="17.2933" gradientUnits="userSpaceOnUse">
<stop stop-color="#806BFF"/>
<stop offset="1" stop-color="#FF8BF3"/>
</linearGradient>
</defs>
</svg>
