<svg width="49" height="48" viewBox="0 0 49 48" fill="none" xmlns="http://www.w3.org/2000/svg">
<path fill-rule="evenodd" clip-rule="evenodd" d="M17.6189 15C16.9508 15 16.2781 15.2558 15.7671 15.7672C14.7448 16.79 14.7445 18.4483 15.7671 19.4709L20.7962 24.5L15.7671 29.5291C14.7443 30.5519 14.7443 32.21 15.7671 33.2328C16.2776 33.7433 16.9501 34 17.6189 34C18.287 34 18.9601 33.7438 19.4712 33.2323L24.4998 28.2036L29.529 33.2328C30.5511 34.2557 32.2105 34.2553 33.2326 33.2328C34.2558 32.2096 34.2558 30.5523 33.2326 29.5291L28.2035 24.5L33.2326 19.4709C34.2554 18.4481 34.2554 16.79 33.2326 15.7672C32.211 14.7452 30.5508 14.7446 29.5285 15.7677L24.4998 20.7964L19.4707 15.7672C18.9602 15.2567 18.2877 15 17.6189 15Z" fill="#423577"/>
</svg>
