<svg width="24" height="24" viewBox="0 0 24 24" fill="none" xmlns="http://www.w3.org/2000/svg">
<path d="M12 1.59998C10.5464 1.59998 9.16383 1.90293 7.90623 2.44373L8.66248 3.19998C8.81928 3.35678 8.95578 3.52931 9.07498 3.71091C9.99178 3.38611 10.9736 3.19998 12 3.19998C16.852 3.19998 20.8 7.14798 20.8 12C20.8 16.852 16.852 20.8 12 20.8C7.14798 20.8 3.19998 16.852 3.19998 12C3.19998 10.9736 3.38611 9.99254 3.71091 9.07654C3.52931 8.95734 3.35678 8.82008 3.19998 8.66248L2.44373 7.90623C1.90293 9.16383 1.59998 10.5464 1.59998 12C1.59998 17.7344 6.26557 22.4 12 22.4C17.7344 22.4 22.4 17.7344 22.4 12C22.4 6.26557 17.7344 1.59998 12 1.59998ZM3.19216 2.39216C3.03302 2.3922 2.8775 2.43971 2.74549 2.5286C2.61348 2.61749 2.51098 2.74373 2.4511 2.89118C2.39121 3.03863 2.37666 3.20059 2.4093 3.35635C2.44195 3.51211 2.5203 3.6546 2.63435 3.7656L3.66873 4.79998H2.97185C2.46545 4.79998 2.21189 5.41189 2.57029 5.77029L4.33123 7.53123C4.63123 7.83123 5.03848 7.99998 5.46248 7.99998H6.86873L11.4344 12.5656C11.5081 12.6424 11.5964 12.7037 11.6941 12.7459C11.7918 12.7881 11.8969 12.8104 12.0033 12.8115C12.1098 12.8126 12.2154 12.7924 12.3139 12.7522C12.4124 12.712 12.502 12.6525 12.5772 12.5772C12.6525 12.502 12.712 12.4124 12.7522 12.3139C12.7924 12.2154 12.8126 12.1098 12.8115 12.0033C12.8104 11.8969 12.7881 11.7918 12.7459 11.6941C12.7037 11.5964 12.6424 11.5081 12.5656 11.4344L7.99998 6.86873V5.46248C7.99998 5.03848 7.83123 4.63123 7.53123 4.33123L5.77029 2.57029C5.41189 2.21189 4.79998 2.46545 4.79998 2.97185V3.66873L3.7656 2.63435C3.69105 2.55771 3.60189 2.4968 3.5034 2.4552C3.40491 2.4136 3.29908 2.39217 3.19216 2.39216ZM12 4.79998C11.1488 4.79998 10.3349 4.9553 9.57654 5.2281C9.58294 5.3065 9.59998 5.38328 9.59998 5.46248V6.20623L10.1234 6.72966C10.7114 6.52006 11.3416 6.39998 12 6.39998C15.0872 6.39998 17.6 8.91198 17.6 12C17.6 15.088 15.0872 17.6 12 17.6C8.91278 17.6 6.39998 15.088 6.39998 12C6.39998 11.3416 6.51926 10.7114 6.72966 10.1234L6.20623 9.59998H5.46248C5.38328 9.59998 5.3065 9.58294 5.2281 9.57654C4.9561 10.3349 4.79998 11.1488 4.79998 12C4.79998 15.9696 8.02958 19.2 12 19.2C15.9704 19.2 19.2 15.9696 19.2 12C19.2 8.03038 15.9704 4.79998 12 4.79998ZM12 7.99998C11.8112 7.99998 11.6316 8.03062 11.45 8.05622L13.6968 10.3031L13.6953 10.3047C14.1305 10.7391 14.4 11.3384 14.4 12C14.4 13.3232 13.3232 14.4 12 14.4C11.3384 14.4 10.7391 14.1305 10.3047 13.6953L10.3031 13.6968L8.05622 11.45C8.03062 11.6316 7.99998 11.8112 7.99998 12C7.99998 14.2056 9.79438 16 12 16C14.2056 16 16 14.2056 16 12C16 9.79438 14.2056 7.99998 12 7.99998Z" fill="#816BFE"/>
</svg>
