<svg width="24" height="14" viewBox="0 0 24 14" fill="none" xmlns="http://www.w3.org/2000/svg">
<path fill-rule="evenodd" clip-rule="evenodd" d="M8.84054 7.96816L12.3065 11.319C12.6503 11.6494 13.1153 11.8348 13.6001 11.8348C14.0849 11.8348 14.5499 11.6494 14.8937 11.319L14.8952 11.3175L17.6126 8.69035L20.3301 6.06315V7.2434C20.3301 7.71389 20.5234 8.16512 20.8675 8.49781C21.2116 8.83049 21.6783 9.01739 22.165 9.0174M8.84054 7.96816L3.14032 13.4791C2.79534 13.8126 2.32744 14 1.83956 14C1.35168 14 0.883777 13.8126 0.538794 13.4791C0.19381 13.1456 0 12.6932 0 12.2215C0 11.7498 0.19381 11.2975 0.538794 10.964L7.53978 4.19545L7.54127 4.19402C7.88507 3.8636 8.35014 3.67815 8.8349 3.67815C9.31966 3.67815 9.78473 3.8636 10.1285 4.19401L13.5944 7.54483L17.7285 3.54801H16.519C16.0324 3.54801 15.5657 3.36111 15.2216 3.02842C14.8774 2.69573 14.6841 2.2445 14.6841 1.77401C14.6841 1.30351 14.8774 0.852286 15.2216 0.519596C15.5657 0.186906 16.0324 0 16.519 0H22.165C22.6517 0 23.1184 0.186907 23.4625 0.519596C23.8066 0.852286 23.9999 1.30351 23.9999 1.77401V7.22956C24.0018 7.46269 23.9562 7.69391 23.8655 7.90999C23.7744 8.12728 23.6396 8.32494 23.469 8.49155C23.2984 8.65817 23.0953 8.79043 22.8714 8.88069C22.6476 8.97094 22.4075 9.01741 22.165 9.0174" fill="#25EC7A"/>
</svg>
