<svg width="18" height="18" viewBox="0 0 18 18" fill="none" xmlns="http://www.w3.org/2000/svg">
<path d="M14.9062 7.58301C15.84 7.58301 16.5937 8.33676 16.5937 9.27051C16.5937 10.2043 15.84 10.958 14.9062 10.958C13.9725 10.958 13.2187 10.2043 13.2187 9.27051C13.2187 8.33676 13.9725 7.58301 14.9062 7.58301ZM8.71875 7.58301C9.6525 7.58301 10.4062 8.33676 10.4062 9.27051C10.4062 10.2043 9.6525 10.958 8.71875 10.958C7.785 10.958 7.03125 10.2043 7.03125 9.27051C7.03125 8.33676 7.785 7.58301 8.71875 7.58301ZM2.53125 7.58301C3.465 7.58301 4.21875 8.33676 4.21875 9.27051C4.21875 10.2043 3.465 10.958 2.53125 10.958C1.5975 10.958 0.84375 10.2043 0.84375 9.27051C0.84375 8.33676 1.5975 7.58301 2.53125 7.58301Z" fill="white"/>
</svg>
