<svg width="65" height="64" viewBox="0 0 65 64" fill="none" xmlns="http://www.w3.org/2000/svg">
<path d="M63.6483 12.46C63.4683 11.84 63.1683 11.27 62.7683 10.77C62.3583 10.27 61.8683 9.86 61.2983 9.56C60.7283 9.25 60.1183 9.06 59.4783 9L38.7583 6.98L38.1983 4.69C37.9483 3.65 37.3383 2.71 36.4883 2.04C35.6483 1.37 34.5883 1 33.5083 1C33.1183 1 32.7283 1.05 32.3483 1.14L5.70827 7.7C5.08827 7.85 4.50827 8.12 3.99827 8.5C3.47827 8.87 3.04827 9.34 2.70827 9.89C2.37827 10.43 2.15827 11.03 2.05827 11.66C1.95827 12.3 1.98827 12.93 2.13827 13.56L12.7483 56.58C12.8983 57.2 13.1683 57.78 13.5483 58.29C13.9183 58.81 14.3883 59.24 14.9383 59.58C15.4783 59.91 16.0783 60.13 16.7083 60.23C16.9583 60.27 17.2083 60.29 17.4583 60.29C17.8383 60.29 18.2283 60.24 18.6083 60.15L23.9783 58.83C24.2683 59.1 24.6083 59.34 24.9683 59.54C25.5283 59.84 26.1383 60.03 26.7883 60.09L54.1283 62.8H54.5683C55.7683 62.8 56.9183 62.36 57.8083 61.55C58.7083 60.75 59.2583 59.64 59.3783 58.45L63.8083 14.36C63.8883 13.71 63.8283 13.08 63.6483 12.46ZM23.5383 56.21L23.0583 56.33L22.5683 56.45L17.9483 57.59C17.3683 57.73 16.7683 57.64 16.2583 57.33C15.7483 57.03 15.3883 56.54 15.2383 55.96L4.67827 12.95C4.53827 12.37 4.62827 11.76 4.93827 11.25C5.24827 10.74 5.73827 10.37 6.31827 10.23L33.0383 3.67C33.1883 3.63 33.3483 3.61 33.5083 3.6C33.9983 3.61 34.4783 3.78 34.8583 4.09C35.2383 4.39 35.5183 4.82 35.6283 5.3L35.9783 6.71L36.0983 7.22L36.2283 7.75L36.3783 8.34L36.4983 8.85L36.6283 9.36L46.2183 48.32C46.3683 48.9 46.2783 49.5 45.9683 50.02C45.6583 50.52 45.1583 50.89 44.5883 51.03L25.1183 55.83L24.6183 55.95L24.1283 56.07L23.5383 56.21ZM61.2183 14.09L56.7983 58.19C56.7483 58.74 56.4883 59.25 56.0783 59.62C55.6683 59.99 55.1383 60.2 54.5783 60.2H54.3583L28.7883 57.64L45.2383 53.59C45.8683 53.44 46.4383 53.17 46.9583 52.79C47.4783 52.42 47.9083 51.95 48.2383 51.4C48.5783 50.85 48.7983 50.26 48.8883 49.62C48.9883 48.99 48.9583 48.36 48.8083 47.73L39.4183 9.64L59.1983 11.6C59.4983 11.63 59.7883 11.71 60.0483 11.85C60.3083 12 60.5383 12.19 60.7283 12.42C60.9183 12.65 61.0583 12.92 61.1383 13.2C61.2283 13.49 61.2483 13.79 61.2183 14.09Z" fill="url(#paint0_linear_1504_13902)"/>
<defs>
<linearGradient id="paint0_linear_1504_13902" x1="2" y1="31.9" x2="63.843" y2="31.9" gradientUnits="userSpaceOnUse">
<stop stop-color="#F4DFB2"/>
<stop offset="1" stop-color="#DCB37B"/>
</linearGradient>
</defs>
</svg>
