<svg width="20" height="20" viewBox="0 0 20 20" fill="none" xmlns="http://www.w3.org/2000/svg">
<path d="M5.1421 14.9993C5.48529 14.0283 6.41132 13.3327 7.49984 13.3327C8.58834 13.3327 9.51442 14.0283 9.85759 14.9993H18.3332V16.666H9.85759C9.51442 17.637 8.58834 18.3327 7.49984 18.3327C6.41132 18.3327 5.48529 17.637 5.1421 16.666H1.6665V14.9993H5.1421ZM10.1421 9.16602C10.4853 8.19502 11.4113 7.49935 12.4998 7.49935C13.5883 7.49935 14.5144 8.19502 14.8576 9.16602H18.3332V10.8327H14.8576C14.5144 11.8037 13.5883 12.4993 12.4998 12.4993C11.4113 12.4993 10.4853 11.8037 10.1421 10.8327H1.6665V9.16602H10.1421ZM5.1421 3.33268C5.48529 2.36169 6.41132 1.66602 7.49984 1.66602C8.58834 1.66602 9.51442 2.36169 9.85759 3.33268H18.3332V4.99935H9.85759C9.51442 5.97034 8.58834 6.66602 7.49984 6.66602C6.41132 6.66602 5.48529 5.97034 5.1421 4.99935H1.6665V3.33268H5.1421ZM7.49984 4.99935C7.96007 4.99935 8.33317 4.62625 8.33317 4.16602C8.33317 3.70578 7.96007 3.33268 7.49984 3.33268C7.0396 3.33268 6.6665 3.70578 6.6665 4.16602C6.6665 4.62625 7.0396 4.99935 7.49984 4.99935ZM12.4998 10.8327C12.9601 10.8327 13.3332 10.4596 13.3332 9.99935C13.3332 9.5391 12.9601 9.16602 12.4998 9.16602C12.0396 9.16602 11.6665 9.5391 11.6665 9.99935C11.6665 10.4596 12.0396 10.8327 12.4998 10.8327ZM7.49984 16.666C7.96007 16.666 8.33317 16.2929 8.33317 15.8327C8.33317 15.3724 7.96007 14.9993 7.49984 14.9993C7.0396 14.9993 6.6665 15.3724 6.6665 15.8327C6.6665 16.2929 7.0396 16.666 7.49984 16.666Z" fill="white"/>
</svg>
