<svg width="24" height="24" viewBox="0 0 24 24" fill="none" xmlns="http://www.w3.org/2000/svg">
<path d="M11.5603 16.5595C11.2873 16.8405 10.9023 17 10.4983 17C10.0948 17 9.70979 16.8405 9.43679 16.5595L4.42937 11.5555C3.85688 10.951 3.85688 10.0365 4.42937 9.432C4.69186 9.171 5.05186 9.017 5.43285 9.004C5.85535 8.9845 6.26484 9.141 6.55434 9.432L10.4983 13.375L17.4472 6.4305C17.7237 6.1555 18.1077 6 18.5091 6C18.9101 6 19.2941 6.1555 19.5706 6.4305C20.1431 7.0345 20.1431 7.9485 19.5706 8.5525L11.5603 16.5595Z" fill="#25EC7A"/>
</svg>
