<svg width="17" height="17" viewBox="0 0 17 17" fill="none" xmlns="http://www.w3.org/2000/svg">
<path d="M14.9687 5.7937C14.6171 4.96245 14.114 4.21558 13.4718 3.57339C12.8312 2.93276 12.0843 2.42808 11.2515 2.07651C10.3905 1.71245 9.4749 1.52808 8.53271 1.52808C7.59053 1.52808 6.6749 1.71245 5.81396 2.07651C4.98271 2.42808 4.23584 2.9312 3.59365 3.57339C2.95303 4.21401 2.44834 4.96089 2.09678 5.7937C1.73428 6.6562 1.54834 7.57026 1.54834 8.51245C1.54834 9.45464 1.73271 10.3703 2.09678 11.2312C2.44834 12.0625 2.95146 12.8093 3.59365 13.4515C4.23428 14.0921 4.98115 14.5968 5.81396 14.9484C6.6749 15.3125 7.59053 15.4968 8.53271 15.4968C9.4749 15.4968 10.3905 15.3125 11.2515 14.9484C12.0827 14.5968 12.8296 14.0937 13.4718 13.4515C14.1124 12.8109 14.6171 12.064 14.9687 11.2312C15.3327 10.3703 15.5171 9.45464 15.5171 8.51245C15.5171 7.57026 15.3327 6.6562 14.9687 5.7937ZM2.61084 8.51245C2.61084 8.07026 2.65928 7.63433 2.75303 7.21245H5.79678C5.89678 7.64683 5.94678 8.0937 5.94678 8.54839C5.94678 8.97808 5.90146 9.39839 5.8124 9.81089H2.75303C2.65928 9.39058 2.61084 8.9562 2.61084 8.51245ZM6.88428 7.21401H10.2249C10.1437 7.64058 10.103 8.07651 10.103 8.5187C10.103 8.95776 10.1437 9.38901 10.2218 9.81245H6.89834C6.97334 9.39995 7.0124 8.97808 7.0124 8.54995C7.01084 8.09683 6.96865 7.64995 6.88428 7.21401ZM11.1671 8.5187C11.1671 8.07495 11.2155 7.63745 11.3108 7.21401H14.3124C14.4062 7.63589 14.4546 8.07026 14.4546 8.51401C14.4546 8.9562 14.4062 9.39214 14.3124 9.81401H11.3077C11.214 9.39058 11.1671 8.95933 11.1671 8.5187ZM13.9671 6.15151H11.6593C11.6733 6.1187 11.689 6.08433 11.7046 6.05151C11.9827 5.44526 12.3546 4.89995 12.814 4.42183C13.3046 4.93276 13.6921 5.5187 13.9671 6.15151ZM8.53271 2.59058C9.80146 2.59058 11.0077 2.98589 12.0124 3.72026C11.4858 4.27495 11.0593 4.90776 10.7374 5.60776C10.6546 5.78745 10.5812 5.9687 10.5155 6.15151H6.58896C6.52178 5.96714 6.44521 5.78433 6.3624 5.60464C6.03428 4.90151 5.5999 4.26714 5.06553 3.71089C6.06709 2.98433 7.27021 2.59058 8.53271 2.59058ZM4.2624 4.41089C4.72959 4.89058 5.11865 5.44995 5.39834 6.05308C5.41396 6.08589 5.42803 6.1187 5.44209 6.15151H3.09834C3.37646 5.51401 3.76709 4.92651 4.2624 4.41089ZM3.0999 10.875H5.4749C5.47021 10.8859 5.46553 10.8968 5.46084 10.9062C5.17959 11.5562 4.7874 12.1421 4.29678 12.6515C3.78584 12.1281 3.38271 11.5265 3.0999 10.875ZM8.53271 14.4343C7.2874 14.4343 6.0999 14.0515 5.10615 13.3437C5.66553 12.7531 6.11084 12.0765 6.43584 11.3296C6.50146 11.1796 6.56084 11.0281 6.61396 10.875H10.5108C10.578 11.0625 10.6546 11.2484 10.739 11.4328C11.0593 12.1296 11.4843 12.7593 12.0062 13.3109C11.003 14.0406 9.79834 14.4343 8.53271 14.4343ZM12.8077 12.6109C12.3515 12.1343 11.9812 11.5906 11.7046 10.9875C11.6874 10.95 11.6702 10.9125 11.6546 10.8734H13.9671C13.6905 11.5109 13.3015 12.0968 12.8077 12.6109Z" fill="white" fill-opacity="0.4"/>
</svg>
