<svg width="16" height="16" viewBox="0 0 16 16" fill="none" xmlns="http://www.w3.org/2000/svg">
<path d="M14 2L8.16863 7.83138M8.16863 7.83138L8.9313 8.59405C9.28584 8.94859 9.39833 9.47867 9.21834 9.94664L8.76671 11.1209M8.16863 7.83138L7.40595 7.0687C7.05141 6.71416 6.52133 6.60167 6.05336 6.78166L4.87913 7.23329M4.87913 7.23329L2.81371 8.02768C1.95677 8.35727 1.72281 9.45977 2.37202 10.109L3.23438 10.9713M4.87913 7.23329L8.76671 11.1209M8.76671 11.1209L7.97232 13.1863C7.64273 14.0432 6.54023 14.2772 5.89101 13.628L3.23438 10.9713M3.23438 10.9713L4.80437 9.84993" stroke="white" stroke-opacity="0.6" stroke-width="1.2" stroke-linecap="round" stroke-linejoin="round"/>
</svg>
