<svg width="24" height="24" viewBox="0 0 24 24" fill="none" xmlns="http://www.w3.org/2000/svg">
<path d="M7.11739 14.9516L7.52479 14.957C10.6716 15.0221 12.6778 15.9033 13.3307 17.0361C13.5366 17.392 13.6522 17.8326 13.694 18.3708L13.7084 18.6084L13.7128 18.8504V20.2567C13.7128 20.6672 13.3751 21 12.9585 21C12.542 21 12.2043 20.6672 12.2043 20.2567V18.8645L12.1999 18.6518C12.1845 18.2525 12.1206 17.9726 12.0292 17.8141C11.6989 17.239 10.2863 16.6031 7.81217 16.5033L7.49726 16.4946L7.11739 16.4881L6.71991 16.4946C5.27531 16.5239 4.14562 16.7334 3.31102 17.0697C2.79572 17.2781 2.44338 17.5146 2.27712 17.6915L2.22317 17.7555L2.18353 17.8141C2.08994 17.9769 2.02607 18.2623 2.01176 18.6692L2.00956 18.8504V20.2562C2.00956 20.667 1.67163 21 1.25478 21C0.837926 21 0.5 20.667 0.5 20.2562V18.8515C0.5 18.1928 0.588085 17.6492 0.804995 17.1891L0.906292 16.997L0.993277 16.8668C1.74751 15.8414 3.55875 15.0818 6.34114 14.9679L6.69348 14.957L7.11739 14.9516ZM7.10638 6.89362C8.89341 6.89362 10.3413 8.36828 10.3413 10.1869V11.285C10.3413 13.1048 8.89341 14.5794 7.10638 14.5794C5.32046 14.5794 3.87256 13.1037 3.87256 11.285V10.1869C3.87256 8.36936 5.32046 6.89362 7.10638 6.89362ZM7.10638 8.43121C6.15396 8.43121 5.38212 9.21683 5.38212 10.1869V11.285C5.38212 12.2551 6.15396 13.0429 7.10638 13.0429C8.0599 13.0429 8.83175 12.2551 8.83175 11.285V10.1869C8.83175 9.21683 8.0599 8.43121 7.10638 8.43121Z" fill="url(#paint0_linear_1616_15072)"/>
<path d="M16.9046 12.058L17.312 12.0634C20.4589 12.1285 22.465 13.0096 23.1179 14.1425C23.3238 14.4984 23.4394 14.939 23.4813 15.4772L23.4956 15.7148L23.5 15.9568V17.3631C23.5 17.7736 23.1623 18.1064 22.7458 18.1064C22.3292 18.1064 21.9915 17.7736 21.9915 17.3631V15.9709L21.9871 15.7582C21.9717 15.3589 21.9079 15.0789 21.8165 14.9205C21.4862 14.3454 20.0735 13.7095 17.5994 13.6097L17.2845 13.601L16.9046 13.5945L16.5071 13.601C15.0625 13.6303 13.9329 13.8397 13.0982 14.1761C12.583 14.3845 12.2306 14.621 12.0644 14.7979L12.0104 14.8619L11.9708 14.9205C11.8772 15.0833 11.8133 15.3687 11.799 15.7756L11.7968 15.9568C11.7968 16.2783 11.5323 16.539 11.206 16.539H10.8769C10.5512 16.539 10.2872 16.2788 10.2872 15.9579C10.2872 15.2992 10.3753 14.7556 10.5922 14.2955L10.6935 14.1034L10.7805 13.9732C11.5347 12.9478 13.346 12.1882 16.1284 12.0743L16.4807 12.0634L16.9046 12.058ZM16.8936 4C18.6806 4 20.1285 5.47466 20.1285 7.2933V8.39143C20.1285 10.2111 18.6806 11.6858 16.8936 11.6858C15.1077 11.6858 13.6598 10.2101 13.6598 8.39143V7.2933C13.6598 5.47574 15.1077 4 16.8936 4ZM16.8936 5.5376C15.9412 5.5376 15.1694 6.32321 15.1694 7.2933V8.39143C15.1694 9.36151 15.9412 10.1493 16.8936 10.1493C17.8471 10.1493 18.619 9.36151 18.619 8.39143V7.2933C18.619 6.32321 17.8471 5.5376 16.8936 5.5376Z" fill="url(#paint1_linear_1616_15072)"/>
<defs>
<linearGradient id="paint0_linear_1616_15072" x1="0.5" y1="12.5" x2="23.5" y2="12.5" gradientUnits="userSpaceOnUse">
<stop stop-color="#F4DFB2"/>
<stop offset="1" stop-color="#DCB37B"/>
</linearGradient>
<linearGradient id="paint1_linear_1616_15072" x1="0.5" y1="12.5" x2="23.5" y2="12.5" gradientUnits="userSpaceOnUse">
<stop stop-color="#F4DFB2"/>
<stop offset="1" stop-color="#DCB37B"/>
</linearGradient>
</defs>
</svg>
