<svg width="15" height="14" viewBox="0 0 15 14" fill="none" xmlns="http://www.w3.org/2000/svg">
<path d="M7.49984 1.16699C4.28336 1.16699 1.6665 3.78385 1.6665 7.00033C1.6665 10.2168 4.28336 12.8337 7.49984 12.8337C10.7163 12.8337 13.3332 10.2168 13.3332 7.00033C13.3332 3.78385 10.7163 1.16699 7.49984 1.16699ZM7.49984 2.04199C10.2434 2.04199 12.4582 4.25673 12.4582 7.00033C12.4582 9.74392 10.2434 11.9587 7.49984 11.9587C4.75624 11.9587 2.5415 9.74392 2.5415 7.00033C2.5415 4.25673 4.75624 2.04199 7.49984 2.04199ZM7.49984 4.08366C7.34513 4.08366 7.19675 4.14512 7.08736 4.25451C6.97796 4.36391 6.9165 4.51228 6.9165 4.66699C6.9165 4.8217 6.97796 4.97007 7.08736 5.07947C7.19675 5.18887 7.34513 5.25033 7.49984 5.25033C7.65455 5.25033 7.80292 5.18887 7.91232 5.07947C8.02171 4.97007 8.08317 4.8217 8.08317 4.66699C8.08317 4.51228 8.02171 4.36391 7.91232 4.25451C7.80292 4.14512 7.65455 4.08366 7.49984 4.08366ZM7.493 6.40788C7.43285 6.40876 7.37346 6.42149 7.31823 6.44533C7.263 6.46917 7.21301 6.50366 7.17111 6.54683C7.12922 6.59 7.09623 6.641 7.07405 6.69691C7.05187 6.75283 7.04092 6.81257 7.04183 6.87272V10.056C7.04183 10.1775 7.09008 10.294 7.17598 10.3798C7.26187 10.4657 7.37837 10.514 7.49984 10.514C7.62131 10.514 7.7378 10.4657 7.8237 10.3798C7.90959 10.294 7.95784 10.1775 7.95784 10.056V6.87272C7.95877 6.81142 7.94738 6.75056 7.92435 6.69374C7.90132 6.63692 7.86711 6.58531 7.82376 6.54196C7.78041 6.49861 7.7288 6.4644 7.67198 6.44137C7.61516 6.41834 7.5543 6.40695 7.493 6.40788Z" fill="white" fill-opacity="0.4"/>
</svg>
