<svg width="18" height="18" viewBox="0 0 18 18" fill="none" xmlns="http://www.w3.org/2000/svg">
<path d="M7.58301 3.09375C7.58301 2.16 8.33676 1.40625 9.27051 1.40625C10.2043 1.40625 10.958 2.16 10.958 3.09375C10.958 4.0275 10.2043 4.78125 9.27051 4.78125C8.33676 4.78125 7.58301 4.0275 7.58301 3.09375ZM7.58301 9.28125C7.58301 8.3475 8.33676 7.59375 9.27051 7.59375C10.2043 7.59375 10.958 8.3475 10.958 9.28125C10.958 10.215 10.2043 10.9688 9.27051 10.9688C8.33676 10.9688 7.58301 10.215 7.58301 9.28125ZM7.58301 15.4688C7.58301 14.535 8.33676 13.7812 9.27051 13.7812C10.2043 13.7812 10.958 14.535 10.958 15.4688C10.958 16.4025 10.2043 17.1562 9.27051 17.1562C8.33676 17.1562 7.58301 16.4025 7.58301 15.4688Z" fill="white" fill-opacity="0.4"/>
</svg>
