<svg width="25" height="24" viewBox="0 0 25 24" fill="none" xmlns="http://www.w3.org/2000/svg">
<g clip-path="url(#clip0_1616_15078)">
<path d="M18.9199 21.26H18.8199L10.7299 20.45C10.4499 20.42 10.1999 20.29 10.0199 20.07C9.83986 19.86 9.75986 19.58 9.77986 19.3L11.0799 6.24004C11.0999 5.98004 11.2299 5.74004 11.4199 5.56004C11.6099 5.38004 11.8599 5.29004 12.1199 5.29004H12.2199L20.3099 6.10004C20.4499 6.11004 20.5799 6.15004 20.6999 6.22004C20.8199 6.28004 20.9299 6.37004 21.0199 6.48004C21.1099 6.59004 21.1699 6.71004 21.2099 6.84004C21.2499 6.97004 21.2599 7.11004 21.2499 7.25004L19.9499 20.31C19.9199 20.57 19.7999 20.81 19.6099 20.98C19.4199 21.15 19.1699 21.25 18.9099 21.25L18.9199 21.26Z" fill="#1B131D"/>
<path d="M12.1303 5.54031H12.2103L20.3003 6.34031C20.4103 6.35031 20.5103 6.38031 20.6103 6.43031C20.7003 6.48031 20.7903 6.55031 20.8603 6.63031C20.9303 6.71031 20.9803 6.81031 21.0103 6.91031C21.0403 7.01031 21.0503 7.12031 21.0403 7.23031L19.7303 20.2903C19.7103 20.4903 19.6203 20.6803 19.4703 20.8103C19.3203 20.9403 19.1303 21.0203 18.9303 21.0203H18.8503L10.7603 20.2103C10.5503 20.1903 10.3503 20.0803 10.2103 19.9203C10.0703 19.7503 10.0103 19.5403 10.0303 19.3203L11.3303 6.27031C11.3503 6.07031 11.4403 5.88031 11.5903 5.75031C11.7403 5.62031 11.9303 5.54031 12.1303 5.54031ZM12.1303 5.07031C11.8103 5.07031 11.5003 5.19031 11.2703 5.40031C11.0303 5.61031 10.8903 5.91031 10.8503 6.22031L9.55033 19.2703C9.53033 19.4403 9.55033 19.6103 9.59033 19.7703C9.64033 19.9303 9.72033 20.0903 9.82033 20.2203C9.93033 20.3503 10.0603 20.4603 10.2103 20.5403C10.3603 20.6203 10.5203 20.6703 10.6903 20.6903L18.7703 21.4903H18.9003C19.2203 21.4903 19.5303 21.3703 19.7603 21.1603C20.0003 20.9503 20.1403 20.6503 20.1803 20.3403L21.4903 7.28031C21.5103 7.11031 21.4903 6.94031 21.4503 6.78031C21.4003 6.62031 21.3203 6.46031 21.2203 6.33031C21.1103 6.20031 20.9803 6.09031 20.8303 6.01031C20.6803 5.93031 20.5203 5.88031 20.3503 5.86031L12.2603 5.07031H12.1303Z" fill="url(#paint0_linear_1616_15078)"/>
<path d="M12.2101 5.54031L12.2601 5.04031H12.2401H12.2201V5.54031H12.2101ZM18.8401 21.0303L18.7901 21.5303H18.8101H18.8301V21.0303H18.8401ZM12.1301 5.07031L12.1501 4.57031V5.07031H12.1301ZM18.7901 21.5003L18.7401 22.0003H18.7601H18.7801V21.5003H18.7901ZM12.2601 5.08031L12.3101 4.58031H12.2901H12.2701L12.2501 5.08031H12.2601ZM12.1301 6.04031H12.2101V5.04031H12.1301V6.04031ZM12.1601 6.04031L20.2501 6.84031L20.3501 5.84031L12.2601 5.04031L12.1601 6.04031ZM20.2501 6.84031C20.2501 6.84031 20.3301 6.86031 20.3701 6.88031L20.8401 6.00031C20.6901 5.92031 20.5201 5.87031 20.3501 5.85031L20.2501 6.85031V6.84031ZM20.3701 6.88031C20.3701 6.88031 20.4401 6.93031 20.4701 6.96031L21.2501 6.33031C21.1401 6.19031 21.0101 6.08031 20.8501 6.00031L20.3801 6.88031H20.3701ZM20.4701 6.95031C20.4701 6.95031 20.5201 7.02031 20.5301 7.06031L21.4901 6.78031C21.4401 6.61031 21.3601 6.46031 21.2501 6.32031L20.4701 6.95031ZM20.5201 7.06031C20.5201 7.06031 20.5401 7.14031 20.5301 7.18031L21.5201 7.29031C21.5401 7.12031 21.5201 6.94031 21.4701 6.78031L20.5101 7.06031H20.5201ZM20.5301 7.19031L19.2201 20.2503L20.2101 20.3503L21.5201 7.29031L20.5301 7.19031ZM19.2301 20.2503C19.2301 20.3303 19.1901 20.4003 19.1301 20.4503L19.8001 21.1903C20.0401 20.9703 20.1901 20.6703 20.2201 20.3503L19.2301 20.2503ZM19.1301 20.4503C19.0701 20.5003 19.0001 20.5303 18.9201 20.5303V21.5303C19.2501 21.5303 19.5601 21.4103 19.8001 21.1903L19.1301 20.4503ZM18.9201 20.5303H18.8401V21.5303H18.9201V20.5303ZM18.8901 20.5303L10.8001 19.7203L10.7001 20.7203L18.7901 21.5303L18.8901 20.5303ZM10.8001 19.7203C10.7201 19.7203 10.6401 19.6703 10.5901 19.6103L9.82011 20.2403C10.0401 20.5103 10.3601 20.6803 10.7101 20.7203L10.8101 19.7203H10.8001ZM10.5901 19.6103C10.5401 19.5503 10.5101 19.4603 10.5201 19.3803L9.52011 19.2803C9.49011 19.6303 9.59011 19.9703 9.81011 20.2403L10.5801 19.6103H10.5901ZM10.5201 19.3803L11.8201 6.33031L10.8301 6.23031L9.53011 19.2803L10.5301 19.3803H10.5201ZM11.8201 6.33031C11.8201 6.25031 11.8601 6.18031 11.9201 6.13031L11.2501 5.39031C11.0101 5.61031 10.8601 5.91031 10.8301 6.23031L11.8201 6.33031ZM11.9201 6.13031C11.9801 6.08031 12.0501 6.05031 12.1301 6.05031V5.05031C11.8001 5.05031 11.4901 5.17031 11.2501 5.39031L11.9201 6.13031ZM12.1301 4.57031C11.6901 4.57031 11.2601 4.73031 10.9301 5.03031L11.6001 5.77031C11.7401 5.64031 11.9301 5.57031 12.1301 5.57031V4.57031ZM10.9301 5.03031C10.6001 5.33031 10.4001 5.74031 10.3501 6.18031L11.3501 6.28031C11.3701 6.09031 11.4601 5.91031 11.6001 5.78031L10.9301 5.04031V5.03031ZM10.3501 6.18031L9.05011 19.2303L10.0501 19.3303L11.3501 6.28031L10.3501 6.18031ZM9.06011 19.2203C9.03011 19.4603 9.06011 19.6903 9.12011 19.9203L10.0801 19.6403C10.0501 19.5403 10.0401 19.4403 10.0501 19.3303L9.06011 19.2203ZM9.12011 19.9203C9.19011 20.1503 9.30011 20.3603 9.45011 20.5403L10.2301 19.9103C10.1601 19.8303 10.1201 19.7403 10.0901 19.6403L9.13011 19.9203H9.12011ZM9.44011 20.5403C9.59011 20.7203 9.77011 20.8803 9.98011 20.9903L10.4501 20.1103C10.3601 20.0603 10.2801 19.9903 10.2101 19.9103L9.43011 20.5403H9.44011ZM9.98011 20.9903C10.1901 21.1003 10.4201 21.1703 10.6501 21.1903L10.7501 20.1903C10.6501 20.1803 10.5501 20.1503 10.4501 20.1003L9.98011 20.9803V20.9903ZM10.6501 21.2003L18.7301 22.0003L18.8301 21.0003L10.7501 20.2003L10.6501 21.2003ZM18.7901 22.0003H18.9201V21.0003H18.7901V22.0003ZM18.9101 22.0003C19.3501 22.0003 19.7801 21.8403 20.1101 21.5403L19.4401 20.8003C19.3001 20.9303 19.1101 21.0003 18.9101 21.0003V22.0003ZM20.1101 21.5403C20.4401 21.2403 20.6401 20.8303 20.6901 20.3903L19.7001 20.2903C19.6801 20.4803 19.5901 20.6603 19.4501 20.7903L20.1201 21.5303L20.1101 21.5403ZM20.6901 20.3903L22.0001 7.33031L21.0001 7.23031L19.6901 20.2903L20.6801 20.3903H20.6901ZM22.0001 7.35031C22.0301 7.12031 22.0001 6.88031 21.9401 6.65031L20.9801 6.93031C21.0101 7.03031 21.0201 7.13031 21.0101 7.24031L22.0001 7.35031ZM21.9401 6.65031C21.8701 6.42031 21.7601 6.21031 21.6101 6.03031L20.8301 6.66031C20.9001 6.74031 20.9401 6.83031 20.9701 6.93031L21.9301 6.65031H21.9401ZM21.6101 6.02031C21.4601 5.84031 21.2801 5.68031 21.0701 5.57031L20.6001 6.45031C20.6901 6.50031 20.7701 6.57031 20.8401 6.65031L21.6201 6.02031H21.6101ZM21.0701 5.57031C20.8601 5.46031 20.6301 5.39031 20.4001 5.37031L20.3001 6.37031C20.4001 6.38031 20.5001 6.41031 20.6001 6.46031L21.0701 5.58031V5.57031ZM20.4001 5.37031L12.3101 4.58031L12.2101 5.58031L20.3001 6.37031L20.4001 5.37031ZM12.2801 4.58031H12.1501L12.1101 5.57031H12.2401L12.2801 4.58031Z" fill="url(#paint1_linear_1616_15078)"/>
<path d="M7.93015 20.5202C7.70015 20.5202 7.47015 20.4402 7.28015 20.3002C7.10015 20.1502 6.96015 19.9502 6.91015 19.7202L3.77015 6.98023C3.74015 6.85023 3.73015 6.71023 3.75015 6.57023C3.77015 6.43023 3.82015 6.30023 3.89015 6.18023C3.96015 6.06023 4.06015 5.96023 4.17015 5.88023C4.28015 5.80023 4.41015 5.74023 4.54015 5.71023L12.4302 3.77023C12.5102 3.75023 12.6002 3.74023 12.6802 3.74023C12.9102 3.74023 13.1402 3.82023 13.3302 3.96023C13.5102 4.11023 13.6502 4.31023 13.7002 4.54023L16.8402 17.2802C16.9102 17.5502 16.8602 17.8402 16.7202 18.0702C16.5802 18.3102 16.3402 18.4802 16.0702 18.5502L8.18015 20.4902C8.10015 20.5102 8.01015 20.5202 7.93015 20.5102V20.5202Z" fill="#1C1520"/>
<path d="M3.29029 7.09L6.43029 19.83C6.48029 20.03 6.56029 20.21 6.68029 20.37C6.80029 20.53 6.95029 20.67 7.12029 20.78C7.29029 20.89 7.48029 20.96 7.68029 20.99C7.88029 21.02 8.08029 21.01 8.28029 20.96L16.1703 19.02C16.3703 18.97 16.5503 18.89 16.7103 18.77C16.8703 18.65 17.0103 18.5 17.1203 18.33C17.2303 18.16 17.3003 17.97 17.3303 17.77C17.3603 17.57 17.3503 17.37 17.3003 17.17L14.1703 4.42C14.0903 4.09 13.9003 3.79 13.6303 3.58C13.3603 3.37 13.0303 3.25 12.6803 3.25C12.5603 3.25 12.4303 3.27 12.3103 3.3L4.43029 5.24C4.23029 5.29 4.05029 5.37 3.89029 5.49C3.73029 5.61 3.59029 5.76 3.48029 5.93C3.37029 6.1 3.30029 6.29 3.27029 6.49C3.24029 6.69 3.25029 6.89 3.30029 7.09H3.29029ZM16.3403 17.39C16.3803 17.53 16.3503 17.69 16.2803 17.81C16.2003 17.94 16.0803 18.03 15.9303 18.06L8.04029 20C7.90029 20.04 7.74029 20.01 7.62029 19.94C7.49029 19.86 7.40029 19.74 7.37029 19.6L4.24029 6.87C4.20029 6.72 4.23029 6.57 4.30029 6.44C4.38029 6.31 4.50029 6.22 4.65029 6.18L12.5603 4.24C12.5603 4.24 12.6403 4.22 12.6803 4.22C12.8003 4.22 12.9203 4.27 13.0103 4.34C13.1103 4.42 13.1703 4.52 13.2003 4.64L16.3403 17.38V17.39Z" fill="url(#paint2_linear_1616_15078)"/>
<path d="M7.93009 21.26C7.84009 21.26 7.75009 21.26 7.66009 21.24C7.43009 21.2 7.21009 21.12 7.00009 21C6.80009 20.88 6.63009 20.72 6.49009 20.53C6.35009 20.34 6.25009 20.13 6.20009 19.9L3.05009 7.15C2.99009 6.92 2.98009 6.69 3.02009 6.45C3.06009 6.22 3.14009 6 3.26009 5.79C3.38009 5.59 3.54009 5.42 3.73009 5.28C3.92009 5.14 4.13009 5.04 4.36009 4.99L12.2501 3.05C12.3901 3.01 12.5401 3 12.6801 3C13.0801 3 13.4701 3.14 13.7801 3.38C14.0901 3.63 14.3201 3.97 14.4101 4.36L17.5501 17.1C17.6101 17.33 17.6201 17.56 17.5801 17.8C17.5401 18.03 17.4601 18.25 17.3401 18.46C17.2201 18.66 17.0601 18.83 16.8701 18.97C16.6801 19.11 16.4601 19.21 16.2401 19.26L8.36009 21.2C8.22009 21.23 8.08009 21.25 7.94009 21.25L7.93009 21.26ZM3.54009 7.03L6.68009 19.77C6.72009 19.94 6.79009 20.09 6.89009 20.23C6.99009 20.37 7.12009 20.48 7.26009 20.57C7.41009 20.66 7.56009 20.72 7.73009 20.74C7.90009 20.77 8.07009 20.76 8.23009 20.72L16.1201 18.78C16.2901 18.74 16.4401 18.67 16.5801 18.57C16.7101 18.47 16.8301 18.34 16.9201 18.2C17.0101 18.05 17.0701 17.9 17.0901 17.73C17.1201 17.56 17.1101 17.39 17.0701 17.23L13.9201 4.48C13.8501 4.2 13.6901 3.95 13.4701 3.77C13.1701 3.53 12.7601 3.44 12.3701 3.53L4.49009 5.48C4.32009 5.52 4.17009 5.59 4.03009 5.69C3.89009 5.79 3.78009 5.91 3.69009 6.06C3.60009 6.21 3.54009 6.36 3.52009 6.53C3.49009 6.7 3.50009 6.87 3.54009 7.03ZM7.91009 20.27C7.77009 20.27 7.62009 20.23 7.49009 20.15C7.30009 20.04 7.17009 19.86 7.12009 19.65L4.00009 6.92C3.95009 6.71 3.98009 6.49 4.09009 6.31C4.20009 6.12 4.38009 5.99 4.59009 5.94L12.5001 4C12.5501 3.99 12.6101 3.98 12.6701 3.98C12.7701 3.98 12.8601 4 12.9501 4.03L12.9801 4L13.1601 4.15C13.1601 4.15 13.1601 4.15 13.1701 4.15C13.1701 4.15 13.1701 4.15 13.1801 4.16L13.3601 4.31L13.3401 4.34C13.3901 4.42 13.4301 4.5 13.4501 4.59L16.5901 17.33C16.6401 17.54 16.6101 17.76 16.5001 17.94C16.3901 18.12 16.2101 18.26 16.0001 18.31L8.11009 20.25C8.05009 20.27 7.98009 20.27 7.91009 20.27ZM12.6701 4.47C12.6701 4.47 12.6401 4.47 12.6201 4.47L4.71009 6.42C4.63009 6.44 4.56009 6.49 4.52009 6.56C4.48009 6.63 4.46009 6.72 4.48009 6.8L7.61009 19.53C7.63009 19.61 7.68009 19.68 7.75009 19.72C7.82009 19.76 7.90009 19.77 7.98009 19.76L15.8701 17.82C15.9501 17.8 16.0201 17.75 16.0601 17.68C16.1001 17.61 16.1101 17.52 16.1001 17.44L12.9701 4.71C12.9501 4.64 12.9201 4.59 12.8601 4.54C12.8101 4.5 12.7401 4.47 12.6801 4.47H12.6701Z" fill="url(#paint3_linear_1616_15078)"/>
</g>
<defs>
<linearGradient id="paint0_linear_1616_15078" x1="9.54248" y1="13.2803" x2="21.4982" y2="13.2803" gradientUnits="userSpaceOnUse">
<stop stop-color="#F4DFB2"/>
<stop offset="1" stop-color="#DCB37B"/>
</linearGradient>
<linearGradient id="paint1_linear_1616_15078" x1="9.04834" y1="13.2853" x2="22.0119" y2="13.2853" gradientUnits="userSpaceOnUse">
<stop stop-color="#F4DFB2"/>
<stop offset="1" stop-color="#DCB37B"/>
</linearGradient>
<linearGradient id="paint2_linear_1616_15078" x1="3.25342" y1="12.1284" x2="17.3472" y2="12.1284" gradientUnits="userSpaceOnUse">
<stop stop-color="#F4DFB2"/>
<stop offset="1" stop-color="#DCB37B"/>
</linearGradient>
<linearGradient id="paint3_linear_1616_15078" x1="2.99609" y1="12.13" x2="17.6041" y2="12.13" gradientUnits="userSpaceOnUse">
<stop stop-color="#F4DFB2"/>
<stop offset="1" stop-color="#DCB37B"/>
</linearGradient>
<clipPath id="clip0_1616_15078">
<rect width="19.01" height="19" fill="white" transform="translate(3 3)"/>
</clipPath>
</defs>
</svg>
