<svg width="16" height="16" viewBox="0 0 16 16" fill="none" xmlns="http://www.w3.org/2000/svg">
<g clip-path="url(#clip0_688_18931)">
<path d="M15.6894 0.315674L15.3556 0.320049C15.3556 0.320049 12.9914 0.346514 10.7369 1.4738C10.0051 1.83968 9.27586 2.33739 8.61187 2.96817L8.60875 2.97067L8.60563 2.9738C7.79416 3.78527 6.64383 5.13164 5.595 6.40005H2.88C2.83314 6.40006 2.78685 6.41037 2.7444 6.43024C2.70196 6.45011 2.6644 6.47906 2.63437 6.51505L1.03437 8.43505C0.999631 8.4767 0.976043 8.5265 0.965828 8.57977C0.955613 8.63304 0.959104 8.68804 0.975976 8.73959C0.992847 8.79114 1.02254 8.83755 1.06228 8.87448C1.10201 8.9114 1.15048 8.93762 1.20312 8.95067L3.14875 9.43067C3.13552 9.44754 3.04437 9.56255 3.04437 9.56255L3.00625 9.61067L2.98875 9.67005C2.98875 9.67005 2.96427 9.77958 2.97187 9.88755C2.97487 9.93002 2.98478 9.98213 2.99563 10.035C2.99414 10.0371 2.99268 10.0392 2.99125 10.0413L2.28875 11.1907C2.28875 11.1907 2.25692 11.2497 2.24625 11.2888C2.23558 11.3279 2.23003 11.3721 2.23062 11.4194C2.23182 11.514 2.25664 11.6189 2.31187 11.7425C2.42234 11.9898 2.65381 12.3226 3.16562 12.8344C3.16686 12.8357 3.16811 12.8369 3.16937 12.8382C3.68037 13.3327 4.01227 13.5613 4.2525 13.6738C4.37262 13.73 4.47116 13.7577 4.56 13.7644C4.60442 13.7678 4.6465 13.7657 4.68437 13.7588C4.72225 13.7519 4.78312 13.7263 4.78312 13.7263C4.79122 13.7223 4.79915 13.7179 4.80687 13.7132L5.95875 13.0088C5.96106 13.0074 5.96335 13.0059 5.96562 13.0044C6.01828 13.0152 6.0702 13.0252 6.1125 13.0282C6.22047 13.0358 6.33 13.0113 6.33 13.0113L6.38937 12.9938L6.4375 12.9557C6.4375 12.9557 6.55259 12.8645 6.56938 12.8513L7.04938 14.7969C7.06243 14.8496 7.08865 14.898 7.12557 14.9378C7.16249 14.9775 7.20891 15.0072 7.26046 15.0241C7.31201 15.0409 7.367 15.0444 7.42028 15.0342C7.47355 15.024 7.52335 15.0004 7.565 14.9657L9.485 13.3657C9.52098 13.3356 9.54993 13.2981 9.56981 13.2556C9.58968 13.2132 9.59999 13.1669 9.6 13.12V10.3988C10.8676 9.34676 12.2074 8.19544 12.9944 7.39442L12.995 7.3938C13.6648 6.7238 14.1321 5.98775 14.4944 5.26317C15.6205 3.01086 15.68 0.648799 15.68 0.648799L15.6894 0.315674ZM14.9956 1.00005C14.9658 1.48157 14.832 3.15666 13.9219 4.97692C13.5803 5.66011 13.1517 6.33209 12.5419 6.94192L12.5406 6.94255L12.54 6.9438C11.7713 7.72649 10.406 8.8963 9.12937 9.95442C9.09048 9.97493 9.05622 10.0032 9.02875 10.0375C7.54651 11.2637 6.21164 12.3178 6.12937 12.3825C6.09073 12.3782 6.03406 12.3705 5.92812 12.3275C5.6867 12.2297 5.26176 11.9768 4.6425 11.3575C4.02324 10.7383 3.77038 10.3134 3.6725 10.0719C3.62957 9.96598 3.62184 9.90931 3.6175 9.87067C3.68169 9.78898 4.7244 8.46565 5.94562 6.9838C5.99444 6.95017 6.03295 6.90365 6.05687 6.84942C7.10458 5.58131 8.2621 4.22337 9.055 3.43005C9.6704 2.84588 10.3477 2.384 11.0231 2.0463C12.8411 1.13732 14.5141 1.0237 14.9956 1.00005ZM10.88 3.52005C10.0015 3.52005 9.28 4.2415 9.28 5.12005C9.28 5.99859 10.0015 6.72005 10.88 6.72005C11.7585 6.72005 12.48 5.99859 12.48 5.12005C12.48 4.2415 11.7585 3.52005 10.88 3.52005ZM10.88 4.16005C11.4095 4.16005 11.84 4.59059 11.84 5.12005C11.84 5.6495 11.4095 6.08005 10.88 6.08005C10.3505 6.08005 9.92 5.6495 9.92 5.12005C9.92 4.59059 10.3505 4.16005 10.88 4.16005ZM3.03 7.04005H5.06687C4.45352 7.79065 3.95188 8.41679 3.585 8.8788L1.85312 8.45192L3.03 7.04005ZM3.31125 10.7438C3.49398 11.0355 3.76293 11.383 4.19 11.81C4.61707 12.2371 4.96451 12.5061 5.25625 12.6888L4.56625 13.11C4.55224 13.106 4.55769 13.1103 4.52375 13.0944C4.38829 13.031 4.09531 12.8432 3.61625 12.38C3.13851 11.9018 2.95365 11.6098 2.89625 11.4813C2.88137 11.448 2.88582 11.4561 2.88312 11.445L3.31125 10.7438ZM8.96 10.9282V12.97L7.54812 14.1469L7.12125 12.4144C7.58368 12.0465 8.20924 11.5436 8.96 10.9282ZM2.04375 12.2275C1.52118 12.634 1.05077 12.6907 0.624375 13.1069C0.411176 13.315 0.247561 13.6086 0.1475 14.0144C0.047439 14.4202 0 14.9458 0 15.68V16H0.32C1.79319 16 2.51886 15.7668 2.95187 15.3288C3.38489 14.8908 3.45449 14.3998 3.78 13.9469L3.26 13.5732C2.84951 14.1443 2.75923 14.6128 2.49625 14.8788C2.26361 15.1141 1.7385 15.2856 0.67 15.3275C0.686697 14.8634 0.707441 14.4162 0.76875 14.1675C0.848689 13.8434 0.948449 13.6849 1.07125 13.565C1.31685 13.3253 1.80682 13.2221 2.43625 12.7325L2.04375 12.2275Z" fill="url(#paint0_linear_688_18931)"/>
</g>
<defs>
<linearGradient id="paint0_linear_688_18931" x1="7.84466" y1="16.0628" x2="0.492663" y2="11.5316" gradientUnits="userSpaceOnUse">
<stop stop-color="#FF8E6B"/>
<stop offset="1" stop-color="#FFAA6D"/>
</linearGradient>
<clipPath id="clip0_688_18931">
<rect width="16" height="16" fill="white"/>
</clipPath>
</defs>
</svg>
