<svg width="65" height="64" viewBox="0 0 65 64" fill="none" xmlns="http://www.w3.org/2000/svg">
<path d="M49.5 19C44.9 14.6 39.3 12.2 32.5 12C25.7 12.2 20.1 14.6 15.5 19C10.9 23.4 8.7 29.2 8.5 36C8.7 42.8 11.1 48.4 15.5 53C19.9 57.6 25.7 59.8 32.5 60C39.3 59.8 44.9 57.4 49.5 53C54.1 48.6 56.3 42.8 56.5 36C56.3 29.2 53.9 23.6 49.5 19ZM46.7 50.2C42.9 54 38.1 55.8 32.5 56C26.9 55.8 22.1 54 18.3 50.2C14.5 46.4 12.7 41.6 12.5 36C12.7 30.4 14.5 25.6 18.3 21.8C22.1 18 26.9 16.2 32.5 16C38.1 16.2 42.9 18 46.7 21.8C50.5 25.6 52.5 30.2 52.5 36C52.3 41.6 50.5 46.4 46.7 50.2Z" fill="url(#paint0_linear_1334_14859)"/>
<path d="M32.5 20C33.1 20 33.5 20.2 33.9 20.6C34.3 21 34.5 21.4 34.5 22V36C34.5 36.6 34.3 37 33.9 37.4C33.5 37.8 33.1 38 32.5 38C31.9 38 31.5 37.8 31.1 37.4C30.7 37 30.5 36.6 30.5 36V22C30.5 21.4 30.7 21 31.1 20.6C31.5 20.2 31.9 20 32.5 20Z" fill="url(#paint1_linear_1334_14859)"/>
<path d="M28.5 36C28.5 37.2 28.9 38 29.7 38.8C30.5 39.6 31.3 40 32.5 40C33.7 40 34.5 39.6 35.3 38.8C36.1 38 36.5 37.2 36.5 36C36.5 34.8 36.1 34 35.3 33.2C34.5 32.4 33.7 32 32.5 32C31.3 32 30.5 32.4 29.7 33.2C28.9 34 28.5 34.8 28.5 36ZM34.5 8V16H30.5V8H24.5C23.9 8 23.5 7.8 23.1 7.4C22.7 7 22.5 6.6 22.5 6C22.5 5.4 22.7 5 23.1 4.6C23.5 4.2 23.9 4 24.5 4H40.5C41.1 4 41.5 4.2 41.9 4.6C42.3 5 42.5 5.4 42.5 6C42.5 6.6 42.3 7 41.9 7.4C41.5 7.8 41.1 8 40.5 8H34.5Z" fill="url(#paint2_linear_1334_14859)"/>
<defs>
<linearGradient id="paint0_linear_1334_14859" x1="8.5" y1="36" x2="56.5" y2="36" gradientUnits="userSpaceOnUse">
<stop stop-color="#F4DFB2"/>
<stop offset="1" stop-color="#DCB37B"/>
</linearGradient>
<linearGradient id="paint1_linear_1334_14859" x1="30.5" y1="29" x2="34.5" y2="29" gradientUnits="userSpaceOnUse">
<stop stop-color="#F4DFB2"/>
<stop offset="1" stop-color="#DCB37B"/>
</linearGradient>
<linearGradient id="paint2_linear_1334_14859" x1="22.5" y1="22" x2="42.5" y2="22" gradientUnits="userSpaceOnUse">
<stop stop-color="#F4DFB2"/>
<stop offset="1" stop-color="#DCB37B"/>
</linearGradient>
</defs>
</svg>
