<svg width="21" height="22" viewBox="0 0 21 22" fill="none" xmlns="http://www.w3.org/2000/svg">
<path fill-rule="evenodd" clip-rule="evenodd" d="M4.47903 3.125C3.89448 3.125 3.30584 3.34881 2.85869 3.79632C1.96417 4.69127 1.9639 6.14223 2.85869 7.03701L7.25918 11.4375L2.85869 15.838C1.96377 16.7329 1.96377 18.1838 2.85869 19.0787C3.30539 19.5254 3.8938 19.75 4.47903 19.75C5.06359 19.75 5.65262 19.5258 6.09978 19.0783L10.4999 14.6782L14.9004 19.0787C15.7947 19.9738 17.2467 19.9734 18.141 19.0787C19.0363 18.1834 19.0363 16.7333 18.141 15.838L13.7406 11.4375L18.141 7.03701C19.036 6.1421 19.036 4.69124 18.141 3.79632C17.2472 2.90208 15.7945 2.90148 14.9 3.79672L10.4999 8.19681L6.09938 3.79632C5.65268 3.34962 5.06427 3.125 4.47903 3.125Z" fill="white"/>
</svg>
