<svg width="118" height="24" viewBox="0 0 118 24" fill="none" xmlns="http://www.w3.org/2000/svg">
<rect width="24" height="24" rx="6.69767" fill="url(#paint0_linear_366_3803)"/>
<path d="M18.9903 11.7927C19.0898 12.6908 18.2132 13.7529 18.2132 13.7529C18.2132 13.7529 18.5171 12.7392 17.8664 11.9057C17.2156 11.0721 15.5916 11.3652 14.196 11.4674C12.8005 11.5696 9.32375 13.0646 9.32375 13.0646C9.32375 13.0646 8.64616 13.1668 8.25358 12.4112C7.861 11.6556 9.3856 9.81641 9.3856 9.81641C9.3856 9.81641 9.11402 10.4725 9.61415 10.6016C10.1143 10.7306 10.2998 10.2117 13.8922 10.0477C17.4845 9.88363 18.8908 10.8947 18.9903 11.7927Z" fill="url(#paint1_linear_366_3803)"/>
<path d="M5.86067 13.7585C6.62431 14.5141 9.33471 13.0594 9.33471 13.0594C9.33471 13.0594 8.25191 12.8201 8.21076 12.1398C8.1696 11.4595 9.07927 10.1365 9.75956 9.34332C10.4398 8.5501 11.4966 7.75783 12.3194 7.16532C13.3701 6.40873 14.1882 5.98759 14.1882 5.98759C14.1882 5.98759 14.1693 6.50655 14.2446 7.01475C14.3199 7.52295 14.4974 7.95855 14.4974 7.95855C14.4974 7.95855 14.6238 6.61679 15.1024 5.40679C15.581 4.19679 16.5732 3.40088 16.5732 3.40088C16.5732 3.40088 13.8736 3.73661 10.2167 6.92601C6.55978 10.1154 5.09703 13.0029 5.86067 13.7585Z" fill="url(#paint2_linear_366_3803)"/>
<path d="M9.78371 18.4448C8.37401 19.6891 7.69175 20.5198 7.41211 21.08C7.41211 21.08 8.39857 20.5569 9.5928 19.8646C11.2695 18.8926 12.037 18.6573 14.3898 17.052C16.7426 15.4467 18.2618 13.6936 18.2618 13.6936C18.2618 13.6936 18.6624 12.5992 17.8342 11.7683C17.0061 10.9375 14.6882 11.4268 14.6882 11.4268C14.8863 11.4699 15.3126 11.6866 15.4331 12.2093C15.5836 12.8627 15.1615 13.4812 14.2822 14.468C13.403 15.4548 11.7547 16.7051 9.78371 18.4448Z" fill="url(#paint3_linear_366_3803)"/>
<path d="M8.47134 6.40684C9.88031 4.90375 11.4936 4.00298 11.4936 4.00298C11.4936 3.84702 11.3942 3.65073 10.9451 3.54049C10.4961 3.43024 9.88031 3.54049 9.88031 3.54049C9.88031 3.54049 11.0984 2.96506 12.4643 2.93011C13.8303 2.89515 15.0376 3.35764 15.0376 3.35764C15.0376 3.35764 12.7924 4.17238 10.3885 5.81797C7.98465 7.46357 6.58643 9.72493 6.58643 9.72493C6.58643 9.72493 7.06236 7.90993 8.47134 6.40684Z" fill="url(#paint4_linear_366_3803)" stroke="url(#paint5_linear_366_3803)" stroke-width="0.00537778"/>
<path d="M30.0087 10.6945C29.6129 10.3848 29.3203 9.98903 29.131 9.50723C28.9244 9.04264 28.8384 8.54364 28.8384 8.06185C28.8384 7.04663 29.1654 6.2207 29.8194 5.58404C30.4906 4.94738 31.3167 4.62045 32.3494 4.62045H41.4539V6.78853L32.4354 6.77132C32.0396 6.77132 31.7126 6.90898 31.4544 7.16708C31.1963 7.42519 31.0758 7.78653 31.0758 8.21671C31.0758 8.66409 31.1963 9.00823 31.4544 9.26633C31.7126 9.54165 32.0396 9.6621 32.4354 9.6621H38.0289C38.528 9.6621 38.9755 9.74813 39.3714 9.88579C39.75 10.0406 40.1114 10.2299 40.4212 10.488C40.7138 10.7289 41.0064 11.0903 41.2473 11.5377C41.4883 12.0022 41.626 12.5357 41.626 13.1723C41.626 13.6713 41.5399 14.1187 41.385 14.5145C41.2301 14.893 41.0236 15.2372 40.7827 15.5297C40.5245 15.8222 40.1631 16.0803 39.6984 16.3212C39.2165 16.5621 38.6657 16.6825 38.0289 16.6825H28.9761V14.5317H37.9257C38.3559 14.5317 38.7002 14.394 38.9755 14.1015C39.2337 13.8262 39.3714 13.4648 39.3714 13.0002C39.3714 12.5529 39.2337 12.1743 38.9755 11.899C38.7002 11.6237 38.3559 11.486 37.9257 11.486H32.3494C31.988 11.486 31.5921 11.4344 31.1963 11.314C30.7832 11.2107 30.3873 11.0042 30.0087 10.6945ZM55.3473 7.7005H57.4298L54.8309 15.891C54.7105 16.4072 54.3835 16.6825 53.8327 16.6825H52.9894C52.4731 16.6825 52.1461 16.4589 52.0084 16.0115L49.6677 9.74813L47.2926 16.0115C47.1377 16.4589 46.8107 16.6825 46.3116 16.6825H45.4511C44.9175 16.6825 44.5733 16.4072 44.4528 15.891L41.8884 7.7005H43.9365L46.0362 14.3768L48.3253 8.38878C48.4802 7.9414 48.8072 7.7005 49.3063 7.7005H49.9947C50.511 7.7005 50.838 7.9414 50.9757 8.38878L53.282 14.4456L55.3473 7.7005ZM60.6797 16.6825H58.5283V7.7005H60.6797V16.6825ZM59.4405 6.42718C59.1479 6.42718 58.907 6.34115 58.7349 6.15187C58.5455 5.9798 58.4595 5.7389 58.4595 5.46359C58.4595 5.17107 58.5455 4.94738 58.7349 4.77531C58.907 4.58604 59.1479 4.5 59.4405 4.5H59.7675C60.0429 4.5 60.2838 4.58604 60.4559 4.77531C60.6453 4.94738 60.7313 5.17107 60.7313 5.46359C60.7313 5.7389 60.6453 5.9798 60.4559 6.15187C60.2838 6.34115 60.0429 6.42718 59.7675 6.42718H59.4405ZM72.8893 10.4192C73.1303 11.0042 73.2508 11.6581 73.2508 12.398C73.2508 13.7574 72.8377 14.8242 71.9944 15.5985C71.1683 16.3728 69.9463 16.7686 68.3801 16.7686C68.1908 16.7686 67.8122 16.7514 67.2442 16.6998C66.7451 16.6653 65.2478 16.3556 64.4905 16.1835V19.9003H62.3563V11.985C62.3563 10.6085 62.735 9.55885 63.4923 8.81895C64.2495 8.07905 65.3682 7.7005 66.8311 7.7005H68.4317C69.103 7.7005 69.7398 7.80374 70.3421 8.02743C70.9273 8.23392 71.4436 8.54364 71.8739 8.9394C72.3042 9.33516 72.6484 9.83417 72.8893 10.4192ZM68.1564 14.8242C70.1184 14.8242 71.0994 13.9983 71.0994 12.3464C71.0994 11.4688 70.8585 10.815 70.3594 10.3676C69.8775 9.9202 69.2234 9.69651 68.4317 9.69651H66.8828C66.1083 9.69651 65.5231 9.88579 65.1101 10.2815C64.697 10.6773 64.4905 11.2451 64.4905 11.985V14.2219C65.1101 14.3768 66.3837 14.6521 66.8139 14.7037C67.313 14.7898 67.7605 14.8242 68.1564 14.8242ZM84.7997 10.3676C85.0406 10.9354 85.1611 11.5205 85.1611 12.1743C85.1611 12.811 85.0406 13.4132 84.7997 13.981C84.5587 14.5317 84.2145 15.0135 83.7843 15.4264C83.354 15.8222 82.8377 16.1319 82.2525 16.3556C81.6501 16.5621 81.0133 16.6653 80.3421 16.6653H79.0857C78.3973 16.6653 77.7605 16.5621 77.1753 16.3556C76.573 16.1319 76.0566 15.8222 75.6264 15.4264C75.1961 15.0135 74.8691 14.5317 74.6281 13.981C74.3872 13.4132 74.2667 12.811 74.2667 12.1743C74.2667 11.5205 74.3872 10.9354 74.6281 10.3676C74.8691 9.81696 75.1961 9.33516 75.6264 8.9394C76.0566 8.54364 76.573 8.25112 77.1753 8.02743C77.7605 7.82095 78.3973 7.7005 79.0857 7.7005H80.3421C81.0133 7.7005 81.6501 7.82095 82.2525 8.02743C82.8377 8.25112 83.354 8.54364 83.7843 8.9394C84.2145 9.33516 84.5587 9.81696 84.7997 10.3676ZM82.2525 13.9983C82.7516 13.5165 83.0098 12.9142 83.0098 12.1743C83.0098 11.4344 82.7516 10.8494 82.2525 10.3676C81.7362 9.90299 81.0994 9.6621 80.3421 9.6621H79.0513C78.294 9.6621 77.6572 9.90299 77.1581 10.3676C76.6418 10.8494 76.3836 11.4344 76.3836 12.1743C76.3836 12.9142 76.6418 13.5165 77.1581 13.9983C77.6572 14.4801 78.294 14.7037 79.0513 14.7037H80.3421C81.0994 14.7037 81.7362 14.4801 82.2525 13.9983ZM96.6829 10.3676C96.9238 10.9354 97.0443 11.5205 97.0443 12.1743C97.0443 12.811 96.9238 13.4132 96.6829 13.981C96.4419 14.5317 96.0977 15.0135 95.6674 15.4264C95.2372 15.8222 94.7209 16.1319 94.1357 16.3556C93.5333 16.5621 92.8965 16.6653 92.2253 16.6653H90.9689C90.2805 16.6653 89.6437 16.5621 89.0585 16.3556C88.4561 16.1319 87.9398 15.8222 87.5095 15.4264C87.0793 15.0135 86.7523 14.5317 86.5113 13.981C86.2704 13.4132 86.1499 12.811 86.1499 12.1743C86.1499 11.5205 86.2704 10.9354 86.5113 10.3676C86.7523 9.81696 87.0793 9.33516 87.5095 8.9394C87.9398 8.54364 88.4561 8.25112 89.0585 8.02743C89.6437 7.82095 90.2805 7.7005 90.9689 7.7005H92.2253C92.8965 7.7005 93.5333 7.82095 94.1357 8.02743C94.7209 8.25112 95.2372 8.54364 95.6674 8.9394C96.0977 9.33516 96.4419 9.81696 96.6829 10.3676ZM94.1357 13.9983C94.6348 13.5165 94.893 12.9142 94.893 12.1743C94.893 11.4344 94.6348 10.8494 94.1357 10.3676C93.6194 9.90299 92.9826 9.6621 92.2253 9.6621H90.9345C90.1772 9.6621 89.5404 9.90299 89.0413 10.3676C88.525 10.8494 88.2668 11.4344 88.2668 12.1743C88.2668 12.9142 88.525 13.5165 89.0413 13.9983C89.5404 14.4801 90.1772 14.7037 90.9345 14.7037H92.2253C92.9826 14.7037 93.6194 14.4801 94.1357 13.9983ZM108.565 10.3676C108.806 10.9354 108.927 11.5205 108.927 12.1743C108.927 12.811 108.806 13.4132 108.565 13.981C108.324 14.5317 107.98 15.0135 107.55 15.4264C107.119 15.8222 106.603 16.1319 106.018 16.3556C105.416 16.5621 104.779 16.6653 104.108 16.6653H102.851C102.163 16.6653 101.526 16.5621 100.941 16.3556C100.338 16.1319 99.8221 15.8222 99.3918 15.4264C98.9616 15.0135 98.6346 14.5317 98.3936 13.981C98.1527 13.4132 98.0322 12.811 98.0322 12.1743C98.0322 11.5205 98.1527 10.9354 98.3936 10.3676C98.6346 9.81696 98.9616 9.33516 99.3918 8.9394C99.8221 8.54364 100.338 8.25112 100.941 8.02743C101.526 7.82095 102.163 7.7005 102.851 7.7005H104.108C104.779 7.7005 105.416 7.82095 106.018 8.02743C106.603 8.25112 107.119 8.54364 107.55 8.9394C107.98 9.33516 108.324 9.81696 108.565 10.3676ZM106.018 13.9983C106.517 13.5165 106.775 12.9142 106.775 12.1743C106.775 11.4344 106.517 10.8494 106.018 10.3676C105.502 9.90299 104.865 9.6621 104.108 9.6621H102.817C102.06 9.6621 101.423 9.90299 100.924 10.3676C100.407 10.8494 100.149 11.4344 100.149 12.1743C100.149 12.9142 100.407 13.5165 100.924 13.9983C101.423 14.4801 102.06 14.7037 102.817 14.7037H104.108C104.865 14.7037 105.502 14.4801 106.018 13.9983ZM114.631 7.7005H117.161V9.6621H114.683C113.925 9.6621 113.34 9.86858 112.927 10.2643C112.514 10.6601 112.308 11.2279 112.308 11.9678V16.6653H110.174V11.985C110.174 10.6085 110.552 9.55885 111.309 8.81895C112.084 8.07905 113.185 7.7005 114.631 7.7005Z" fill="white"/>
<defs>
<linearGradient id="paint0_linear_366_3803" x1="2.23254" y1="23.1628" x2="-3.77172" y2="-2.11524" gradientUnits="userSpaceOnUse">
<stop stop-color="#806BFF"/>
<stop offset="1" stop-color="#FF8BF3"/>
</linearGradient>
<linearGradient id="paint1_linear_366_3803" x1="13.5936" y1="9.81641" x2="13.5936" y2="13.7529" gradientUnits="userSpaceOnUse">
<stop stop-color="#231070"/>
<stop offset="1" stop-color="#5C29B7"/>
</linearGradient>
<linearGradient id="paint2_linear_366_3803" x1="11.1186" y1="3.40088" x2="11.1186" y2="13.9761" gradientUnits="userSpaceOnUse">
<stop stop-color="#231070"/>
<stop offset="1" stop-color="#5C29B7"/>
</linearGradient>
<linearGradient id="paint3_linear_366_3803" x1="12.8854" y1="11.2837" x2="12.8854" y2="21.08" gradientUnits="userSpaceOnUse">
<stop stop-color="#231070"/>
<stop offset="1" stop-color="#5C29B7"/>
</linearGradient>
<linearGradient id="paint4_linear_366_3803" x1="10.812" y1="2.92822" x2="10.812" y2="9.72493" gradientUnits="userSpaceOnUse">
<stop stop-color="#231070"/>
<stop offset="1" stop-color="#5C29B7"/>
</linearGradient>
<linearGradient id="paint5_linear_366_3803" x1="13.7308" y1="3.04304" x2="6.82574" y2="9.0796" gradientUnits="userSpaceOnUse">
<stop stop-color="#E678C3"/>
<stop offset="0.323009" stop-color="#DDEFF1"/>
<stop offset="1" stop-color="#4653A2"/>
</linearGradient>
</defs>
</svg>
