<svg width="180" height="134" viewBox="0 0 180 134" fill="none" xmlns="http://www.w3.org/2000/svg">
<rect x="47" width="86" height="86" rx="24" fill="url(#paint0_linear_328_7928)"/>
<path d="M115.049 42.2562C115.406 45.4743 112.264 49.2802 112.264 49.2802C112.264 49.2802 113.353 45.6478 111.022 42.6609C108.69 39.6739 102.87 40.7242 97.8695 41.0903C92.8688 41.4565 80.4106 46.8136 80.4106 46.8136C80.4106 46.8136 77.9825 47.1798 76.5758 44.4723C75.169 41.7648 80.6322 35.1743 80.6322 35.1743C80.6322 35.1743 79.659 37.5253 81.4512 37.9878C83.2433 38.4503 83.9081 36.5907 96.7807 36.0029C109.653 35.4152 114.693 39.038 115.049 42.2562Z" fill="url(#paint1_linear_328_7928)"/>
<path d="M68.0004 49.2998C70.7368 52.0073 80.4491 46.7946 80.4491 46.7946C80.4491 46.7946 76.569 45.9371 76.4216 43.4994C76.2741 41.0617 79.5337 36.3212 81.9714 33.4788C84.4091 30.6364 88.1957 27.7975 91.1441 25.6743C94.9091 22.9632 97.8406 21.4541 97.8406 21.4541C97.8406 21.4541 97.7731 23.3137 98.0429 25.1347C98.3127 26.9558 98.9486 28.5167 98.9486 28.5167C98.9486 28.5167 99.4015 23.7087 101.117 19.3729C102.832 15.0371 106.387 12.1851 106.387 12.1851C106.387 12.1851 96.7133 13.3881 83.6094 24.8168C70.5056 36.2455 65.264 46.5923 68.0004 49.2998Z" fill="url(#paint2_linear_328_7928)"/>
<path d="M82.0583 66.0939C77.0069 70.5527 74.5621 73.529 73.5601 75.5364C73.5601 75.5364 77.0949 73.662 81.3742 71.1813C87.3822 67.6984 90.1326 66.8551 98.5634 61.1029C106.994 55.3507 112.438 49.0685 112.438 49.0685C112.438 49.0685 113.874 45.147 110.906 42.1697C107.938 39.1925 99.6329 40.9461 99.6329 40.9461C100.343 41.1003 101.87 41.8768 102.302 43.7499C102.841 46.0913 101.329 48.3074 98.178 51.8435C95.0273 55.3796 89.1209 59.8599 82.0583 66.0939Z" fill="url(#paint3_linear_328_7928)"/>
<path d="M77.3563 22.9572C82.4052 17.5712 88.1863 14.3434 88.1863 14.3434C88.1863 13.7845 87.8298 13.0812 86.2207 12.6861C84.6116 12.2911 82.4052 12.6861 82.4052 12.6861C82.4052 12.6861 86.7699 10.6242 91.6646 10.4989C96.5592 10.3737 100.885 12.0309 100.885 12.0309C100.885 12.0309 92.8401 14.9504 84.2262 20.8471C75.6123 26.7439 70.6021 34.8471 70.6021 34.8471C70.6021 34.8471 72.3075 28.3433 77.3563 22.9572Z" fill="url(#paint4_linear_328_7928)" stroke="url(#paint5_linear_328_7928)" stroke-width="0.0192704"/>
<path d="M4.01791 115.389C3.22622 114.77 2.64105 113.978 2.26241 113.014C1.84935 112.085 1.67725 111.087 1.67725 110.124C1.67725 108.093 2.33125 106.441 3.63927 105.168C4.98171 103.895 6.63395 103.241 8.69924 103.241H26.9082V107.577L8.87135 107.543C8.07965 107.543 7.42564 107.818 6.90932 108.334C6.393 108.85 6.15205 109.573 6.15205 110.433C6.15205 111.328 6.393 112.016 6.90932 112.533C7.42564 113.083 8.07965 113.324 8.87135 113.324H20.0583C21.0566 113.324 21.9515 113.496 22.7432 113.772C23.5005 114.081 24.2234 114.46 24.8429 114.976C25.4281 115.458 26.0133 116.181 26.4952 117.075C26.9771 118.004 27.2524 119.071 27.2524 120.345C27.2524 121.343 27.0803 122.237 26.7705 123.029C26.4608 123.786 26.0477 124.474 25.5658 125.059C25.0495 125.644 24.3266 126.161 23.3972 126.642C22.4334 127.124 21.3319 127.365 20.0583 127.365H1.95262V123.063H19.8518C20.7124 123.063 21.4008 122.788 21.9515 122.203C22.4679 121.652 22.7432 120.93 22.7432 120.001C22.7432 119.106 22.4679 118.349 21.9515 117.798C21.4008 117.247 20.7124 116.972 19.8518 116.972H8.69924C7.97639 116.972 7.18469 116.869 6.393 116.628C5.56688 116.421 4.77519 116.008 4.01791 115.389ZM54.695 109.401H58.86L53.6624 125.782C53.4214 126.814 52.7674 127.365 51.6659 127.365H49.9793C48.9466 127.365 48.2926 126.918 48.0172 126.023L43.3359 113.496L38.5857 126.023C38.2759 126.918 37.6219 127.365 36.6237 127.365H34.9026C33.8356 127.365 33.1471 126.814 32.9062 125.782L27.7774 109.401H31.8735L36.073 122.754L40.651 110.778C40.9608 109.883 41.6148 109.401 42.6131 109.401H43.9899C45.0226 109.401 45.6766 109.883 45.952 110.778L50.5644 122.891L54.695 109.401ZM65.3598 127.365H61.0571V109.401H65.3598V127.365ZM62.8815 106.854C62.2963 106.854 61.8144 106.682 61.4702 106.304C61.0916 105.96 60.9195 105.478 60.9195 104.927C60.9195 104.342 61.0916 103.895 61.4702 103.551C61.8144 103.172 62.2963 103 62.8815 103H63.5355C64.0862 103 64.5682 103.172 64.9124 103.551C65.291 103.895 65.4631 104.342 65.4631 104.927C65.4631 105.478 65.291 105.96 64.9124 106.304C64.5682 106.682 64.0862 106.854 63.5355 106.854H62.8815ZM89.7792 114.838C90.2611 116.008 90.502 117.316 90.502 118.796C90.502 121.515 89.6759 123.648 87.9892 125.197C86.337 126.746 83.8931 127.537 80.7607 127.537C80.3821 127.537 79.6248 127.503 78.4889 127.4C77.4907 127.331 74.496 126.711 72.9815 126.367V133.801H68.7132V117.97C68.7132 115.217 69.4705 113.118 70.985 111.638C72.4996 110.158 74.737 109.401 77.6628 109.401H80.864C82.2064 109.401 83.48 109.607 84.6848 110.055C85.8551 110.468 86.8878 111.087 87.7483 111.879C88.6088 112.67 89.2973 113.668 89.7792 114.838ZM80.3132 123.648C84.2373 123.648 86.1993 121.997 86.1993 118.693C86.1993 116.938 85.7174 115.63 84.7192 114.735C83.7554 113.84 82.4474 113.393 80.864 113.393H77.7661C76.2171 113.393 75.0467 113.772 74.2206 114.563C73.3945 115.355 72.9815 116.49 72.9815 117.97V122.444C74.2206 122.754 76.7678 123.304 77.6284 123.407C78.6266 123.58 79.5216 123.648 80.3132 123.648ZM113.6 114.735C114.082 115.871 114.323 117.041 114.323 118.349C114.323 119.622 114.082 120.826 113.6 121.962C113.118 123.063 112.43 124.027 111.569 124.853C110.708 125.644 109.676 126.264 108.506 126.711C107.301 127.124 106.027 127.331 104.685 127.331H102.172C100.795 127.331 99.5215 127.124 98.3512 126.711C97.1464 126.264 96.1138 125.644 95.2532 124.853C94.3927 124.027 93.7387 123.063 93.2568 121.962C92.7749 120.826 92.5339 119.622 92.5339 118.349C92.5339 117.041 92.7749 115.871 93.2568 114.735C93.7387 113.634 94.3927 112.67 95.2532 111.879C96.1138 111.087 97.1464 110.502 98.3512 110.055C99.5215 109.642 100.795 109.401 102.172 109.401H104.685C106.027 109.401 107.301 109.642 108.506 110.055C109.676 110.502 110.708 111.087 111.569 111.879C112.43 112.67 113.118 113.634 113.6 114.735ZM108.506 121.997C109.504 121.033 110.02 119.828 110.02 118.349C110.02 116.869 109.504 115.699 108.506 114.735C107.473 113.806 106.199 113.324 104.685 113.324H102.103C100.589 113.324 99.315 113.806 98.3167 114.735C97.2841 115.699 96.7678 116.869 96.7678 118.349C96.7678 119.828 97.2841 121.033 98.3167 121.997C99.315 122.96 100.589 123.407 102.103 123.407H104.685C106.199 123.407 107.473 122.96 108.506 121.997ZM137.366 114.735C137.848 115.871 138.089 117.041 138.089 118.349C138.089 119.622 137.848 120.826 137.366 121.962C136.884 123.063 136.196 124.027 135.335 124.853C134.475 125.644 133.442 126.264 132.272 126.711C131.067 127.124 129.794 127.331 128.451 127.331H125.938C124.561 127.331 123.288 127.124 122.118 126.711C120.913 126.264 119.88 125.644 119.02 124.853C118.159 124.027 117.505 123.063 117.023 121.962C116.541 120.826 116.3 119.622 116.3 118.349C116.3 117.041 116.541 115.871 117.023 114.735C117.505 113.634 118.159 112.67 119.02 111.879C119.88 111.087 120.913 110.502 122.118 110.055C123.288 109.642 124.561 109.401 125.938 109.401H128.451C129.794 109.401 131.067 109.642 132.272 110.055C133.442 110.502 134.475 111.087 135.335 111.879C136.196 112.67 136.884 113.634 137.366 114.735ZM132.272 121.997C133.27 121.033 133.786 119.828 133.786 118.349C133.786 116.869 133.27 115.699 132.272 114.735C131.239 113.806 129.966 113.324 128.451 113.324H125.869C124.355 113.324 123.081 113.806 122.083 114.735C121.05 115.699 120.534 116.869 120.534 118.349C120.534 119.828 121.05 121.033 122.083 121.997C123.081 122.96 124.355 123.407 125.869 123.407H128.451C129.966 123.407 131.239 122.96 132.272 121.997ZM161.131 114.735C161.613 115.871 161.854 117.041 161.854 118.349C161.854 119.622 161.613 120.826 161.131 121.962C160.649 123.063 159.961 124.027 159.1 124.853C158.239 125.644 157.207 126.264 156.037 126.711C154.832 127.124 153.558 127.331 152.216 127.331H149.703C148.326 127.331 147.052 127.124 145.882 126.711C144.677 126.264 143.645 125.644 142.784 124.853C141.924 124.027 141.27 123.063 140.788 121.962C140.306 120.826 140.065 119.622 140.065 118.349C140.065 117.041 140.306 115.871 140.788 114.735C141.27 113.634 141.924 112.67 142.784 111.879C143.645 111.087 144.677 110.502 145.882 110.055C147.052 109.642 148.326 109.401 149.703 109.401H152.216C153.558 109.401 154.832 109.642 156.037 110.055C157.207 110.502 158.239 111.087 159.1 111.879C159.961 112.67 160.649 113.634 161.131 114.735ZM156.037 121.997C157.035 121.033 157.551 119.828 157.551 118.349C157.551 116.869 157.035 115.699 156.037 114.735C155.004 113.806 153.73 113.324 152.216 113.324H149.634C148.12 113.324 146.846 113.806 145.848 114.735C144.815 115.699 144.299 116.869 144.299 118.349C144.299 119.828 144.815 121.033 145.848 121.997C146.846 122.96 148.12 123.407 149.634 123.407H152.216C153.73 123.407 155.004 122.96 156.037 121.997ZM173.263 109.401H178.323V113.324H173.366C171.851 113.324 170.681 113.737 169.855 114.529C169.029 115.32 168.616 116.456 168.616 117.936V127.331H164.348V117.97C164.348 115.217 165.105 113.118 166.619 111.638C168.168 110.158 170.371 109.401 173.263 109.401Z" fill="white"/>
<defs>
<linearGradient id="paint0_linear_328_7928" x1="54.9999" y1="83" x2="33.4847" y2="-7.57962" gradientUnits="userSpaceOnUse">
<stop stop-color="#806BFF"/>
<stop offset="1" stop-color="#FF8BF3"/>
</linearGradient>
<linearGradient id="paint1_linear_328_7928" x1="95.7107" y1="35.1743" x2="95.7107" y2="49.2802" gradientUnits="userSpaceOnUse">
<stop stop-color="#231070"/>
<stop offset="1" stop-color="#5C29B7"/>
</linearGradient>
<linearGradient id="paint2_linear_328_7928" x1="86.8414" y1="12.1851" x2="86.8414" y2="50.0795" gradientUnits="userSpaceOnUse">
<stop stop-color="#231070"/>
<stop offset="1" stop-color="#5C29B7"/>
</linearGradient>
<linearGradient id="paint3_linear_328_7928" x1="93.1726" y1="40.4331" x2="93.1726" y2="75.5364" gradientUnits="userSpaceOnUse">
<stop stop-color="#231070"/>
<stop offset="1" stop-color="#5C29B7"/>
</linearGradient>
<linearGradient id="paint4_linear_328_7928" x1="85.7437" y1="10.4922" x2="85.7437" y2="34.8471" gradientUnits="userSpaceOnUse">
<stop stop-color="#231070"/>
<stop offset="1" stop-color="#5C29B7"/>
</linearGradient>
<linearGradient id="paint5_linear_328_7928" x1="96.2027" y1="10.9036" x2="71.4596" y2="32.5346" gradientUnits="userSpaceOnUse">
<stop stop-color="#E678C3"/>
<stop offset="0.323009" stop-color="#DDEFF1"/>
<stop offset="1" stop-color="#4653A2"/>
</linearGradient>
</defs>
</svg>
